<?xml version="1.0" encoding="us-ascii" standalone="no"?><svg xmlns="http://www.w3.org/2000/svg" xmlns:xlink="http://www.w3.org/1999/xlink" contentStyleType="text/css" height="506px" preserveAspectRatio="none" style="width:832px;height:506px;background:#FEFEFE;" version="1.1" viewBox="0 0 832 506" width="832px" zoomAndPan="magnify"><defs/><g><rect fill="#FEFEFE" height="506" style="stroke:none;stroke-width:1.0;" width="832" x="0" y="0"/><!--entity l1--><g id="elem_l1"><rect fill="#F1F1F1" height="39.0679" rx="25" ry="25" style="stroke:#181818;stroke-width:0.5;" width="111" x="360.5" y="461.74"/><text fill="#000000" font-family="sans-serif" font-size="14" lengthAdjust="spacing" textLength="91" x="370.5" y="486.7059">L1 Blockchain</text></g><!--entity l2--><g id="elem_l2"><rect fill="#F1F1F1" height="161.4754" rx="25" ry="25" style="stroke:#181818;stroke-width:0.5;" width="217" x="307.5" y="240.27"/><text fill="#FFFFFF" font-family="sans-serif" font-size="14" lengthAdjust="spacing" textLength="4" x="317.5" y="265.2359">.</text><text fill="#000000" font-family="sans-serif" font-size="14" lengthAdjust="spacing" textLength="15" x="409.5" y="265.2359">L2</text><line style="stroke:#181818;stroke-width:1.0;stroke-dasharray:1.0,2.0;" x1="308.5" x2="523.5" y1="269.3379" y2="269.3379"/><ellipse cx="323" cy="284.9058" fill="#000000" rx="2.5" ry="2.5" style="stroke:#000000;stroke-width:0.0;"/><text fill="#000000" font-family="sans-serif" font-size="14" lengthAdjust="spacing" textLength="129" x="329.5" y="288.3039">Pools management</text><ellipse cx="323" cy="303.9738" fill="#000000" rx="2.5" ry="2.5" style="stroke:#000000;stroke-width:0.0;"/><text fill="#000000" font-family="sans-serif" font-size="14" lengthAdjust="spacing" textLength="104" x="329.5" y="307.3718">Add new nodes</text><ellipse cx="323" cy="323.0417" fill="#000000" rx="2.5" ry="2.5" style="stroke:#000000;stroke-width:0.0;"/><text fill="#000000" font-family="sans-serif" font-size="14" lengthAdjust="spacing" textLength="154" x="329.5" y="326.4397">Remove inactive nodes</text><ellipse cx="323" cy="342.1096" fill="#000000" rx="2.5" ry="2.5" style="stroke:#000000;stroke-width:0.0;"/><text fill="#000000" font-family="sans-serif" font-size="14" lengthAdjust="spacing" textLength="185" x="329.5" y="345.5076">Distribute nodes over pools</text><ellipse cx="323" cy="361.1775" fill="#000000" rx="2.5" ry="2.5" style="stroke:#000000;stroke-width:0.0;"/><text fill="#000000" font-family="sans-serif" font-size="14" lengthAdjust="spacing" textLength="123" x="329.5" y="364.5755">Payment channels</text><ellipse cx="323" cy="380.2454" fill="#000000" rx="2.5" ry="2.5" style="stroke:#000000;stroke-width:0.0;"/><text fill="#000000" font-family="sans-serif" font-size="14" lengthAdjust="spacing" textLength="159" x="329.5" y="383.6434">Proof of storage mining</text></g><!--entity l3_0--><g id="elem_l3_0"><rect fill="#F1F1F1" height="66.1358" rx="25" ry="25" style="stroke:#181818;stroke-width:0.5;" width="145" x="134.5" y="114.13"/><text fill="#FFFFFF" font-family="sans-serif" font-size="14" lengthAdjust="spacing" textLength="4" x="144.5" y="139.0959">.</text><text fill="#000000" font-family="sans-serif" font-size="14" lengthAdjust="spacing" textLength="15" x="192.5" y="139.0959">L3</text><line style="stroke:#181818;stroke-width:1.0;stroke-dasharray:1.0,2.0;" x1="135.5" x2="278.5" y1="143.1979" y2="143.1979"/><text fill="#000000" font-family="sans-serif" font-size="14" lengthAdjust="spacing" textLength="125" x="144.5" y="162.1639">Data management</text></g><!--entity n0--><g id="elem_n0"><polygon fill="#F1F1F1" points="120,30.06,94,6,42,6,16,30.06,42,54.13,94,54.13,120,30.06" style="stroke:#181818;stroke-width:0.5;"/><text fill="#000000" font-family="sans-serif" font-size="14" lengthAdjust="spacing" textLength="52" x="42" y="25.9659">Storage</text><text fill="#000000" font-family="sans-serif" font-size="14" lengthAdjust="spacing" textLength="36" x="50" y="45.0339">Node</text></g><!--entity n1--><g id="elem_n1"><polygon fill="#F1F1F1" points="259,30.06,233,6,181,6,155,30.06,181,54.13,233,54.13,259,30.06" style="stroke:#181818;stroke-width:0.5;"/><text fill="#000000" font-family="sans-serif" font-size="14" lengthAdjust="spacing" textLength="52" x="181" y="25.9659">Storage</text><text fill="#000000" font-family="sans-serif" font-size="14" lengthAdjust="spacing" textLength="36" x="189" y="45.0339">Node</text></g><!--entity l3_1--><g id="elem_l3_1"><rect fill="#F1F1F1" height="66.1358" rx="25" ry="25" style="stroke:#181818;stroke-width:0.5;" width="145" x="343.5" y="114.13"/><text fill="#FFFFFF" font-family="sans-serif" font-size="14" lengthAdjust="spacing" textLength="4" x="353.5" y="139.0959">.</text><text fill="#000000" font-family="sans-serif" font-size="14" lengthAdjust="spacing" textLength="15" x="401.5" y="139.0959">L3</text><line style="stroke:#181818;stroke-width:1.0;stroke-dasharray:1.0,2.0;" x1="344.5" x2="487.5" y1="143.1979" y2="143.1979"/><text fill="#000000" font-family="sans-serif" font-size="14" lengthAdjust="spacing" textLength="125" x="353.5" y="162.1639">Data management</text></g><!--entity n2--><g id="elem_n2"><polygon fill="#F1F1F1" points="398,30.06,372,6,320,6,294,30.06,320,54.13,372,54.13,398,30.06" style="stroke:#181818;stroke-width:0.5;"/><text fill="#000000" font-family="sans-serif" font-size="14" lengthAdjust="spacing" textLength="52" x="320" y="25.9659">Storage</text><text fill="#000000" font-family="sans-serif" font-size="14" lengthAdjust="spacing" textLength="36" x="328" y="45.0339">Node</text></g><!--entity n3--><g id="elem_n3"><polygon fill="#F1F1F1" points="537,30.06,511,6,459,6,433,30.06,459,54.13,511,54.13,537,30.06" style="stroke:#181818;stroke-width:0.5;"/><text fill="#000000" font-family="sans-serif" font-size="14" lengthAdjust="spacing" textLength="52" x="459" y="25.9659">Storage</text><text fill="#000000" font-family="sans-serif" font-size="14" lengthAdjust="spacing" textLength="36" x="467" y="45.0339">Node</text></g><!--entity l3_2--><g id="elem_l3_2"><rect fill="#F1F1F1" height="66.1358" rx="25" ry="25" style="stroke:#181818;stroke-width:0.5;" width="145" x="551.5" y="114.13"/><text fill="#FFFFFF" font-family="sans-serif" font-size="14" lengthAdjust="spacing" textLength="4" x="561.5" y="139.0959">.</text><text fill="#000000" font-family="sans-serif" font-size="14" lengthAdjust="spacing" textLength="15" x="609.5" y="139.0959">L3</text><line style="stroke:#181818;stroke-width:1.0;stroke-dasharray:1.0,2.0;" x1="552.5" x2="695.5" y1="143.1979" y2="143.1979"/><text fill="#000000" font-family="sans-serif" font-size="14" lengthAdjust="spacing" textLength="125" x="561.5" y="162.1639">Data management</text></g><!--entity n4--><g id="elem_n4"><polygon fill="#F1F1F1" points="676,30.06,650,6,598,6,572,30.06,598,54.13,650,54.13,676,30.06" style="stroke:#181818;stroke-width:0.5;"/><text fill="#000000" font-family="sans-serif" font-size="14" lengthAdjust="spacing" textLength="52" x="598" y="25.9659">Storage</text><text fill="#000000" font-family="sans-serif" font-size="14" lengthAdjust="spacing" textLength="36" x="606" y="45.0339">Node</text></g><!--entity n5--><g id="elem_n5"><polygon fill="#F1F1F1" points="815,30.06,789,6,737,6,711,30.06,737,54.13,789,54.13,815,30.06" style="stroke:#181818;stroke-width:0.5;"/><text fill="#000000" font-family="sans-serif" font-size="14" lengthAdjust="spacing" textLength="52" x="737" y="25.9659">Storage</text><text fill="#000000" font-family="sans-serif" font-size="14" lengthAdjust="spacing" textLength="36" x="745" y="45.0339">Node</text></g><!--link n0 to l3_0--><g id="link_n0_l3_0"><path d="M95.13,53.54 C115.83,70.68 140.0196,90.7122 163.2196,109.9322 " fill="none" id="n0-to-l3_0" style="stroke:#181818;stroke-width:1.0;"/><polygon fill="#181818" points="167.84,113.76,163.4612,104.9381,163.9897,110.5702,158.3575,111.0986,167.84,113.76" style="stroke:#181818;stroke-width:1.0;"/></g><!--link n1 to l3_0--><g id="link_n1_l3_0"><path d="M207,54.36 C207,71.45 207,88.86 207,107.77 " fill="none" id="n1-to-l3_0" style="stroke:#181818;stroke-width:1.0;"/><polygon fill="#181818" points="207,113.77,211,104.77,207,108.77,203,104.77,207,113.77" style="stroke:#181818;stroke-width:1.0;"/></g><!--link n2 to l3_1--><g id="link_n2_l3_1"><path d="M360.17,54.36 C370.55,71.45 381.6724,89.7336 393.1724,108.6436 " fill="none" id="n2-to-l3_1" style="stroke:#181818;stroke-width:1.0;"/><polygon fill="#181818" points="396.29,113.77,395.0312,104.0019,393.692,109.498,388.1959,108.1587,396.29,113.77" style="stroke:#181818;stroke-width:1.0;"/></g><!--link n3 to l3_1--><g id="link_n3_l3_1"><path d="M471.04,54.36 C460.8,71.45 449.8558,89.7143 438.5158,108.6243 " fill="none" id="n3-to-l3_1" style="stroke:#181818;stroke-width:1.0;"/><polygon fill="#181818" points="435.43,113.77,443.4891,108.1087,438.0015,109.4819,436.6282,103.9943,435.43,113.77" style="stroke:#181818;stroke-width:1.0;"/></g><!--link n4 to l3_2--><g id="link_n4_l3_2"><path d="M624,54.36 C624,71.45 624,88.86 624,107.77 " fill="none" id="n4-to-l3_2" style="stroke:#181818;stroke-width:1.0;"/><polygon fill="#181818" points="624,113.77,628,104.77,624,108.77,620,104.77,624,113.77" style="stroke:#181818;stroke-width:1.0;"/></g><!--link n5 to l3_2--><g id="link_n5_l3_2"><path d="M735.87,53.54 C715.17,70.68 690.9804,90.7122 667.7804,109.9322 " fill="none" id="n5-to-l3_2" style="stroke:#181818;stroke-width:1.0;"/><polygon fill="#181818" points="663.16,113.76,672.6425,111.0986,667.0103,110.5702,667.5388,104.9381,663.16,113.76" style="stroke:#181818;stroke-width:1.0;"/></g><!--link l3_0 to l2--><g id="link_l3_0_l2"><path d="M246.31,180.51 C266.89,197.43 288.4348,215.1501 314.0448,236.2001 " fill="none" id="l3_0-to-l2" style="stroke:#181818;stroke-width:1.0;"/><polygon fill="#181818" points="318.68,240.01,314.2671,231.2051,314.8173,236.8351,309.1873,237.3853,318.68,240.01" style="stroke:#181818;stroke-width:1.0;"/></g><!--link l3_1 to l2--><g id="link_l3_1_l2"><path d="M416,180.51 C416,197.43 416,212.96 416,234.01 " fill="none" id="l3_1-to-l2" style="stroke:#181818;stroke-width:1.0;"/><polygon fill="#181818" points="416,240.01,420,231.01,416,235.01,412,231.01,416,240.01" style="stroke:#181818;stroke-width:1.0;"/></g><!--link l3_2 to l2--><g id="link_l3_2_l2"><path d="M584.88,180.51 C564.4,197.43 542.9664,215.1395 517.4764,236.1895 " fill="none" id="l3_2-to-l2" style="stroke:#181818;stroke-width:1.0;"/><polygon fill="#181818" points="512.85,240.01,522.3366,237.3635,516.7053,236.8262,517.2426,231.1949,512.85,240.01" style="stroke:#181818;stroke-width:1.0;"/></g><!--link l2 to l1--><g id="link_l2_l1"><path d="M416,402.07 C416,424.3 416,440.44 416,455.46 " fill="none" id="l2-to-l1" style="stroke:#181818;stroke-width:1.0;"/><polygon fill="#181818" points="416,461.46,420,452.46,416,456.46,412,452.46,416,461.46" style="stroke:#181818;stroke-width:1.0;"/></g><!--SRC=[dLBRIiD047tVhnYZGY_qaXHV90IqVImYzL6bRBFJTEbcjcosrYB-kxjfabQf84u2EPazPoudMKc1K5WqgEr-WwnOIzfmmtDOy7IT6RqbCTPA6xXSehyOYmkxLvYm_cmC7mnSp0uiGsZWPiW-MJoeECnWQZbb2Y6OXd2lTBfELrnI074y6oS9y09KUCfJKNtqN1QFKz_-ThUI5fD-F2XV4pWRqwYKz5sKe0EFMgi2Sauymnp9Lkax8O1m1wG55bLkXhb-Gv34KoiTE3sRoC8QkTZQAWsEQM3ZYzUD-DxN1xST4HxJHkibkBkmshWP89SaAMElZB6BZT4fYgr148RlvchKkg9sAJpQSUqRKzOAr6WUTDtvTtV-vD1qr70RQtnCkEK_lN63-SSAttcc2OAdmzml1F3WDW_y1sjceg3RYZfkgFO_HDtGoKhTcNhGwoLdTZzFzvL-4x0B9D4OpLZjzB3TmF088pUHqmxBQYhoE3p1KOsPAg7_Sxy0]--></g></svg>