<svg xmlns="http://www.w3.org/2000/svg" viewBox="0 0 340 250">
  <!-- Background -->
  <rect x="0" y="0" width="340" height="250" fill="#fefefe"/>

  <!-- Blowup diagram -->
  <circle cx="85" cy="70" r="40" stroke="black" fill="none" stroke-width="2"/>
  <circle cx="255" cy="70" r="40" stroke="black" fill="none" stroke-width="2"/>
  
  <!-- Original 4 circles for blowup -->
  <circle cx="85" cy="30" r="6" fill="#FF6B6B"/>
  <circle cx="125" cy="70" r="6" fill="#4ECDC4"/>
  <circle cx="85" cy="110" r="6" fill="#45B7D1"/>
  <circle cx="45" cy="70" r="6" fill="#FFA07A"/>
  
  <!-- 4 new circles for blowup -->
  <circle cx="255" cy="30" r="6" fill="#FF6B6B"/>
  <circle cx="295" cy="70" r="6" fill="#4ECDC4"/>
  <circle cx="255" cy="110" r="6" fill="#45B7D1"/>
  <circle cx="215" cy="70" r="6" fill="#FFA07A"/>
  <circle cx="283" cy="42" r="6" fill="#98D8C8"/>
  <circle cx="283" cy="98" r="6" fill="#F7E967"/>
  <circle cx="227" cy="98" r="6" fill="#7E909A"/>
  <circle cx="227" cy="42" r="6" fill="#C06C84"/>
  
  <text x="170" y="60" font-size="12" text-anchor="middle">blowup</text>
  <path d="M 135 70 L 205 70 M 200 65 L 205 70 L 200 75" stroke="black" fill="none" stroke-width="2"/>

  <!-- Coset shift diagram -->
  <circle cx="85" cy="200" r="40" stroke="black" fill="none" stroke-width="2"/>
  <circle cx="255" cy="200" r="40" stroke="black" fill="none" stroke-width="2"/>
  
  <!-- Original 4 circles for coset shift -->
  <circle cx="85" cy="160" r="6" fill="#FF6B6B"/>
  <circle cx="125" cy="200" r="6" fill="#4ECDC4"/>
  <circle cx="85" cy="240" r="6" fill="#45B7D1"/>
  <circle cx="45" cy="200" r="6" fill="#FFA07A"/>
  
  <!-- Rotated 4 circles for coset shift -->
  <circle cx="283" cy="172" r="6" fill="#98D8C8"/>
  <circle cx="283" cy="228" r="6" fill="#F7E967"/>
  <circle cx="227" cy="228" r="6" fill="#7E909A"/>
  <circle cx="227" cy="172" r="6" fill="#C06C84"/>
  
  <text x="170" y="190" font-size="12" text-anchor="middle">coset shift</text>
  <path d="M 135 200 L 205 200 M 200 195 L 205 200 L 200 205" stroke="black" fill="none" stroke-width="2"/>
</svg>