<?xml version="1.0" encoding="UTF-8"?>
<!DOCTYPE svg  PUBLIC '-//W3C//DTD SVG 1.1//EN'  'http://www.w3.org/Graphics/SVG/1.1/DTD/svg11.dtd'>
<svg width="101.69mm" height="81.292mm" clip-rule="evenodd" fill-rule="evenodd" image-rendering="optimizeQuality" shape-rendering="geometricPrecision" text-rendering="geometricPrecision" version="1.1" viewBox="0 0 4287.1 3427.1" xml:space="preserve" xmlns="http://www.w3.org/2000/svg">
 <defs>
  <style type="text/css">
   <![CDATA[
    .fil0 {fill:#FEFEFE}
    .fil1 {fill:black}
   ]]>
  </style>
 </defs>
 
  
  
   <path class="fil0" d="m371.34 2869.9c-2.32-2.6-4.62-5.3-6.89-8.09-45.19-55.6-155.02-103.14-222.08-124.18-38.98-12.23-65.14-14.21-98.11-45.47-31.88-30.23-45.69-71.23-44.14-114.54 6.77-188.7 247.62-412.41 381.63-545.01-23.84-4.77-47.74-9.38-71.51-14.17-44.47-8.96-100.63-18.11-143.16-32.38-27.53-9.24-51.25-26.51-67.82-50.45-68.63-99.16 25.13-227.98 82.86-309.1 71.16-99.98 170.32-192.67 263.11-272.86 25.83-22.32 49.21-43.08 78.77-60.89 33.99-20.48 71.17-33.29 111-34.77 8.71-4.43 18.02-8.2 27.79-11.44 40.47-13.44 81.73-23.52 122.6-35.48 104.03-30.45 209.1-56.03 314.56-80.32-1.86-3.1-3.63-6.2-5.3-9.29l-95.26-176 130.61 12.06 0.41-1.3c13.43-42.61 65.08-93.19 112.46-133.97-63.57-210.84-80.82-435.93-59.21-654.56 2.09-21.13 3.71-41.72 8.24-62.57 17.23-79.4 83.29-120.39 162.04-99.91l6.23 1.62 5.99 2.35c136.19 53.53 256.79 99.67 380.47 180.88 80.93 53.13 193.52 133.57 269.29 210.51 19.27-1.57 38.54-3.64 57.56-5.43 50.51-4.75 100.43-8.12 151.21-8.19 71.1-0.1 126.82 6.94 193.91 17.12l8.06-10.83c44.28-58.25 111.47-131.9 167.84-178.09 41.42-33.95 81.78-67.37 126.82-96.63 22.66-14.72 45.43-29 68.82-42.53 23.57-13.63 47.72-25.77 71.86-38.32 40.33-20.97 71.18-39.09 120.53-22.54 55.53 18.63 73.95 63.7 85.34 114.84 48.4 217.38 52.91 416.37 7.56 629.51 39.57 40.12 93.58 98.93 121.28 146.34l9.46 16.2 156.61-23.96-80.93 134.93c37.97 3.9 75.92 8.16 113.84 12.47 72.6 8.25 145.55 17.86 218.2 25.13 108.68 10.87 146.29 32.71 227.58 97.82 68.34 54.75 132.67 114.38 201.42 168.51 13.75 10.83 27.37 22.37 40.07 34.41 42.36 40.17 90.68 73.26 132.81 114.48 19.16 16.48 33.05 25.42 47.82 48.5 23.48 36.69 30.53 80.85 15.79 122.32-19.42 54.63-58.25 75.34-104.74 99.48-58.37 30.31-128.44 63.65-196.14 88.98 3.53 171.49-7.68 343.27 3.29 514.22 9.56 148.97 6.26 235.15-133.61 318.38-32.07 19.08-64.8 36.92-97.2 55.4l-429.44 245.04c-129.4 73.84-258.59 148.02-391.57 215.31-14.83 7.5-30.33 14.47-44.72 22.74-99.42 57.17-203.89 104.1-307.31 153.35-40.96 19.51-83.21 45.57-127.84 55.02-39.16 8.3-103.27-4.84-138.15-25.07-17.19-9.97-31.94-22.12-48.46-32.66-95.32-60.86-222.25-96.36-330.37-127.68-145.38-42.12-288.9-83-424.91-151.12l-299.83-150.16c-10.4-5.21-22.34-10.49-34.81-16.05-158.48 175.08-392.73 317.07-604.91 317.1-20.18 0-40.36-0.87-60.39-3.41-101.25-12.83-184.18-73.53-184.13-184.05 0.03-61.73 16.09-104.43 38.4-160.44 2.77-6.96 5.69-14.03 8.79-21.13z"/>
   <path class="fil1" d="m2303.4 2084.2c1.47 32.15 27.27 180.74 33.36 235.13 28.27 252.38 43.38 516.08 43.39 773.3-5.01-5.9-1.6 1.23-6.65-11.34-0.94-2.34-2.9-11.02-3.65-14.38-33.98-152.67-58.29-287.35-71.1-447.19-12.54-156.39-11.85-250.52-9.68-403.58 0.59-42.07 7.16-88.57 7.14-131.97l7.19 0.03zm176.69-1211.7c2.14 16.89 19.31 41.06 27.27 54.86 12.42 21.53 17.12 42.51 44.97 35.22 7.02-36.85 0.32-75.86-13.39-109.71-23.88 2.79-40.83 12.15-58.84 19.62zm-458.69-16.08c-22.53-7.49-17.79-21.41-42.49 28.6-8.05 16.3-31.31 44.84-19.08 65.08 16.87 16.38 79.28-42.67 90.54-61.56-4.25-9.06-6.06-9.62-12.82-16.18-2.37-2.29-4.47-4.09-7.35-6.87-0.74-0.72-2.93-2.81-3.62-3.51l-5.19-5.57c15.91 5.05 57.11 36.72 73.13 48.22l69.66 50.81c-8.67 35.4-62.79 69.22-110.15 76.22-91.52 13.54-190.88-50.75-228.94-136.07-26.88-60.24-13.73-96.12 5.34-149.85 29.49 10.02 144.59 76.88 181.06 102.55 3.62 2.55 2.94 2.13 6.09 4.66l3.82 3.46zm-694.4-747.48c-19.6-5.1-26.18-0.62-30.44 18.99-3.44 15.84-4.67 33.63-6.32 50.39-21.85 221.02-1.44 448.74 69.52 657.93 3.41 10.06 5.49 16.81 9.41 20.72-72.77 59.09-130.48 112.06-136.61 131.54 34.41 24.21 80.65 43.27 119.42 65.99 16.25 9.52 34.05 9.25 33.19 30.37-39 7.71-154.46-10.41-196.33-14.27 18.92 34.97 62.85 77.35 92.69 100.98l43.52 35.03c11.1 8.05 13.23 8.06 11.93 21.93l-49.99 3.47c7.7 17.19 48.73 67.93 61.61 83.19 24.12 28.6 46.91 50.41 71.37 74.86 138.99 138.96 331.32 236.14 529.25 277.24l45.3 7.89c21.96 6.01 7.89-1.99 14.39 9.34-7.95 16.69-23.31 7.95-42.32 4.51l-145.14-36.46c-61.89-19.92-112.64-43.26-167.71-71.24-50.41-25.61-103.06-57.26-147.24-92.2-22.74-17.98-44.42-35.08-65-52.82-21.83-18.82-40.84-46.02-62.58-60.08-40.64 0.71-81.09 15.29-111.7 32.32-13.55 7.54-31.4 21.07-41.59 29.92-11.99 10.4-19.66 27.07-32.31 39.93-35.29-0.59-294.55-59.85-352.58-72.94-16.39-3.7-38.05-5.16-51.64-14.5 83.85-31.18 423.44-112.31 497.91-124.05-6.63-14.03-18.12-23.55-23.64-35.47-11.8-25.51 16.5-18.06 37.91-18.09-20.52-20.1-18.85-14.07-53.65-6.22-145.33 32.78-286.83 64.27-432.14 106.81-38.8 11.36-80.13 21.45-118.94 34.34-43.35 14.4 5.36 15.11-56.59 16.79-23.85 0.65-44.5 9.76-60.69 19.51-24.84 14.97-44.12 33-64.02 50.19-84.33 72.88-182.27 164.55-245.88 253.93-19.87 27.92-130.64 175-68.23 195.94 32.01 10.74 202.95 42.81 252.75 53.72 39.73 8.7 82.1 18.96 123.68 30 32.7 8.68 30.59 0.93 54.49-13.23 16.73-9.92 35.91-16.26 52.65-26.06-65.36-20.19-138.61-38.05-207.08-53.42-31.14-6.99-204.58-41.35-215.04-48.35 24.34-66.91 82.91-125.64 127.3-178.73 32.4-38.76 93.93-100.16 133.41-130.77 24.29-18.83 47.44-44.62 71.56-64.01 49.78-40 73.52-19.36 134.94-5.49l292.99 63.7c31.44 6.38 114.69 19.97 141.42 30.69l5.42 2.62c-1.28 71.03 28.03 130.24 98.61 146.33-4-39.92-5.26-66.39 11.56-102.44 10.84-23.22 37.62-60.07 60.73-65.31-2.27 23.17-28.09 19.84-50.91 67.72-14.8 31.05-18.66 62.74-9.78 100.04 19.33 11.5 10.83-6.66 21.86 20.05 12.08 29.25 33.05 50.74 65.55 63.02 24.93 9.42 50.8 9.25 74.73 1.38 20.37-6.7 43.57-20.75 52.44-34.48-4.11-14.23-13.22-24.11-18.23-40.19-15.3-49.13 11.64-131.07 40.13-125.8-1.71 13.6-27.41 35.02-33.32 66.79-5.89 31.65 2.15 64.44 17.23 84.93 11.62 3.71-1.17-6.91 23.68 4.64 71.75 33.33 173.2 1.22 199.44-74.22l505.91 103.57-193.65 173c-111.8 111.47-279.49 332.8-339.96 477.45-31.74-13.47-179.38-103.82-213.56-123.81-221.91-129.8-448.21-243.67-698.42-327.73l4.03 49.02c61.04 51.76-3.49 16.98 103.97 59.03 159.78 62.52 299.3 136.81 448.11 215.73 108.58 57.59 213.84 121.54 318.88 184.53 84.49 50.65 61.1 28.71 153.11-133.57 39.44-69.55 87.9-135.95 136.15-199.26 49.41-64.83 102.77-120.13 157.33-174.56 55.78-55.66 118.47-105.85 179.35-154.36l-3.16 59.74c-33.41 7.61-29.71 26.5-33.53 58.11-45.51 376.94-31.12 758.42 50.87 1127.8 8.84 39.81 33.49 118.29 36.69 154.41-42.57-16.65-87.06-44.31-137.16-64.58-193.63-78.35-384.87-102.65-598.03-201.66-46.02-21.37-88.3-43.76-133.35-66.28-68.26-34.14-199.53-107.69-270.08-131.93-9.79 7.59-27.33 37.98-38.37 51.34 6.33 7.74 80.45 39.8 97.84 48.49l299.83 150.16c265.35 130.14 565.46 156.93 764.96 284.29 16.9 10.79 30.79 22.3 44.57 30.29 10.71 6.21 49.52 15.64 62.23 12.95 26.79-5.67 77.17-34.17 103.99-46.94 99.9-47.58 203.51-94.03 299.97-149.5 16.17-9.3 33.21-17.09 49.75-25.46 131.83-66.7 258.53-140.82 386.85-212.77l429.44-245.04c31.21-18.05 63.48-35.36 95.51-54.42 91.34-54.35 89.63-92.95 81.5-219.5-12.66-197.22 4.29-399.91-6.34-597.86 74.6-19.72 187.17-71.11 256.71-107.23 22.07-11.46 72.84-30.4 48.11-69.05-6.77-10.57-22.54-19.88-31.8-28.98-40.15-39.49-90.72-74.58-132.32-114.03-9.24-8.76-21.77-19.43-32.63-27.98-68.73-54.12-133.28-113.92-202.13-169.08-57.44-46.02-76.95-65.4-171.29-74.84-60.1-6.01-419.17-50.89-446.76-45.99 0.34 0.91 0.91 1.31 1 2.75 0.12 1.75 1.38 4.59 1.47 5.55 1.05 11.4-2.12 13.64-9.52 23.91-6.48 8.98-13.3 17.98-17.06 27.59l369.43 41.97c-16.73 11.01-106.67 43.33-132.55 53.98l-205.58 80.05c-13.65 5.69-19.34 10.15-34.47 2.36-120.18-61.85-103.07-36.46-152.99 13.49-82.97 83.03-227.97 190.88-334.09 237.14l-117.32 50.54c-14.19 2.9-8.32-0.85-12.59-7.47 4.97-12.04 4.17-9.24 19.3-14.72 122.34-44.39 231.05-112.69 331.04-189.96l72.87-62.85c21.99-21.69 51.9-48.83 68.84-70.26 25.82-32.67 107.17-123.43 119.19-159.23-26.57 3.83-48.92 16.32-61.59 3.55 1.4-17.86 78.05-108.03 91.93-131.18-49.11 7.51-63.23 16.71-122.28 17.97-15.96 0.34-40.32 5.32-34.62-12.59 2.3-7.22 85.6-63.99 99.7-76.06l5.83-5.74c0.43-0.44 1.3-1.35 1.85-2.1-18.54-31.74-75.75-95.53-106.61-126.74-14.71-14.88-25.26-20.78-40.62-37.46 56.41-221.32 55.97-419.47 6.33-642.4-11.34-50.95-13.69-40.46-51.94-20.57-24.32 12.65-44.38 22.55-67.65 36.01-23.22 13.44-42.36 25.51-64.1 39.64-43.53 28.28-80.29 59.34-117.28 89.65-43.96 36.03-114.19 112.36-150.47 160.08l-44.35 59.63c-71.53-3.8-109.1-23.83-242.72-23.65-108.41 0.14-183.7 15.08-254.32 16.06-57.72-72.25-198.1-175-282.67-230.52-121.35-79.67-228.11-118.54-360.87-170.72zm67.28 727.86c-5.57-34.15-27.32-92.12-35.47-128.19-77.1-341.14-27.42-490.94-35.22-545.25 20.64 9.65 132.62 150.83 142.59 163.16 51.85 64.11 106.05 135 151.85 205.13 22.54 34.52 47.01 73.12 73.21 105.26-30.52 2.38-177.41 104.93-296.96 199.88zm1696.6 1772.2c0.8-0.54 1.92-1.13 2.5-1.45 68.7-38.75 9.85-67.14-14.31-117.49-7.5-15.63-11.17-32.25-18.96-44.37-35.9-8.09-39.05 2.13-42.44 31.28-2.49 21.4-5.16 46.09-8.84 66.21-4.24 23.23-8.61 40.95-12 63.9-5.99 40.56 18.41 23.24 36.47 25.16l6.04 23.06c0.9 8.03 1.51 15.3 2.36 22.39 4.21 35.1 9.25 112.6 22.86 130.32 72.96 6.74 47.93-39.52 43.87-54.75-6.59-24.76-17.61-120.98-17.54-144.24zm-151.9 54.51c0.83-0.35 1.86-0.81 2.78-1.17 1.08-0.43 4.45-1.58 5.56-1.99 4.91-1.82 5.54-1.37 10.31-3.93 32.33-17.38-2.47-45.34-8.22-50.96-31.5-30.84-32.21-52.49-56.1-58.44-37.64-9.38-26.02 6.94-42.79 70.16-10.3 38.82-30.18 74.74-17.99 87.3 12.54 13.7 29.56-0.29 48.2-2.68 3.11 35.41 4.08 71.93 5.88 107.22 4.78 93.56-3.55 85.53 48.54 85.53 70.22 0 12.09-105.26-1.77-228.44l5.59-2.6zm-385.74-75.93c0 66.37 20.32 221.28 76.5 265.93 26.63 21.17 24.4-28.03 21.64 87.44l-0.77 16.04c-16.29 5.15-54.5 19.65-65.26 30.36-3.25 20.29 3.72 61.42 9.84 74.96 21.95 6.07 57.95-19.93 88.99-36.57 73.55-39.42 107.79-20.72 84.11-114.24-30.15-11.88-21.53 0.54-36.58 4.46-15.19-11.47-17.02-37.65-21.42-58 77.65-21.36 67.82-165.53 67.82-245.39 0-44.62 2.01-94.73-24.55-93.72l-19.6 6.54c-59.71 19.03-92.46 29.92-155.39 38.28-19.97 2.66-25.33 2.31-25.33 23.91zm-1543.3-257c22.82 35.11 63.81 23.29 63.76 99.94-0.1 132.37-186.82 335.12-290.94 406.74-47.96 32.99-101.44 69.88-174.83 69.73-33.94-0.07-57.76-16.5-76.18-39.79-11.22-14.19-5.15-7.54-19.31-17.31-20.15 10.78-39.18 52.67-50.4 80.84-17.9 44.94-30.78 75.5-30.8 120.86-0.03 72.41 80.87 80.34 137.42 80.34 248.88-0.04 542.1-242.97 646.42-455.05 44.79-91.06 81.85-181.57 81.74-292.77-0.24-273.18-272.73-74.9-286.89-53.54zm-215.53-296.27c-12.92 5.77-10.65 11.12-24.59 33.39-8.77 14.02-15.16 23.16-24.54 36.09-42.63 58.82-70.35 84.42-105.74 129.91l-61.04 62.08c18.95-40.1 193.03-202.35 193.85-304.28 1.32-163.23-279.43 84.11-293.5 95.78l-186.62 184.65c-47.85 51.06-182.41 235.03-185.09 309.62-1.58 43.99 32.26 43.01 67.29 54 90.07 28.25 212.94 84.76 273.13 158.82 82.9 102 287.94-77.23 353.1-142.55 56.03-56.18 180.83-187.33 185.28-310.53 2.77-76.71-46.41-49.75-101.72-147.76-38.05-67.42-43.84-88.77-89.81-159.22zm1556.3-202.55c27.07 26.63 125.43 148.43 148.62 177.93 82.58 105.05 133.39 178.42 208.57 284.01 94.11 132.19 59.54 129.03 170.04 51.15 223.87-157.76 462.06-305.68 703.34-446.08 32.43-18.87 190.92-101.97 223.06-102.72 0.08 116.47 1.33 232.45 1.72 348.91 0.19 57.81 11.4 309.01 0.51 342.95-8.23 25.66-73.29 56.38-102.62 72.49-36.15 19.85-74.34 42.17-110.9 63.78l-336.47 191.9c-37.32 19.9-74.17 43.6-111.85 63.03l-226.26 123.69c-76.86 41.5-151.78 81.29-229.57 120.18-36.66 18.32-216.79 108.7-240.91 114.22-0.13-243.99-7.53-487.53-26.05-724.45-9-115.12-22.31-226.07-38.43-337.72-11.76-81.47-49.67-261.32-32.82-343.27zm-247.18-409.61 128.5 3.57c42.25-2 77.19-11.99 119.66-7.62-0.06 52.5-6.16 134.09-28.62 171.86l-80.33 7.15c-84.93-0.89-80.45 1.25-109.49-53.03-12.02-22.47-47.96-95.97-29.72-121.92zm1091.8 5.38c16.52-11.41 332.57-131.12 381.3-150.81 63.08-25.48 71.26-38.63 127.06 3.41 86 64.79 204.31 173.96 289.66 242.21l93.89 83.65c-81.69 47.42-251.03 102.61-351.67 143.49-144.38 58.65-275.43 143.49-403.46 221.3l-154.8 95.02c-56.32 32.63-168.82 108.99-227.1 147.71-26.41 17.54-47.64 33.68-73.36 51.39-15.31 10.54-62.72 47-74.61 51.43-14.27-31.83-189.55-267.83-207.33-291.52-54.12-72.07-111.24-137.93-167.3-207.46-15.22-18.88-48.23-50.78-57.26-69.51l314.81-122.3c0.85 1.19 1.7 1.4 1.96 2.67s1.37 1.68 1.72 2.16c23.86 32.66 76.51 76.84 120.5 56.5 28.13-13.01 19.8 6.68 43.87-16.49 73.91-71.13 50.4-148.14 46.29-203.62 31.2 7.04 26.39 146-33.98 205.16-4.18 4.09-4.89 4.49-9.22 8.6l-11.21 12.01c28.13 7 46.99 14.14 79.36 9.82 36.4-4.86 39.01-13.9 58.08-16.88l22.26-2.76c41.93-59.32 25.5-225.09 30.36-233.34 13.37 8.4 10.8 42.43 10.85 56.66 0.33 84.94-8.68 113.54-31.36 182.04 63.41 21.13 141.73-8.04 183.98-65.1 45.36-61.27 36.54-135.14-3.31-195.45zm-638.46-70.52c10.81 22.6 4.42 73.77-0.03 99.34-17.8 102.21-41.77 98.89-207 131.82 1.25-50.94 30.34-81.66 18.74-174.93l188.3-56.23zm-678.21 20.52c65.62 11.42 130.83 35.64 199.94 42.83 0 42.53 4.81 58.38 20.26 94.03 8.8 20.3 26.83 59.23 38.64 72.01-33.73 7.42-168.37-23.31-193.08-38.83-35.89-22.55-65.76-109.49-65.76-170.04zm698.51-28.62c8.08-9.14 92.39-58.22 109.11-65.05 5.4 45.58 12.97 128.33-8.9 167.71-11.05 19.9-27.39 30.75-50.27 42.63-12.36 6.41-54.38 28.7-64.9 27.93 18.54-97.68 25.43-85.1 14.97-173.22zm-846.63-32.04c31.64 4.39 65.1 34.84 126.74 49.97 5.82 36.85 6.61 61.13 18.22 95.97 6.03 18.07 32.53 70.12 33.55 77.2-26.76-2.92-48.9-15.15-72.13-24.13-34.04-13.15-41.1-12.55-58.37-41.8-22.99-38.92-40.9-106.91-48.02-157.21zm25.94 162.46c-21.73-12.3-39.32-17.94-60.75-32.92-64.3-44.93-97.2-156.29-72.28-206.29 59.56 55.9 84.45 27.03 90.61 94.58 5.59 61.29 41.79 122.98 42.41 144.63zm953.85-141.03c0-51.85-21.36-57.99 12.45-91.09 11.93-11.68 45.58-49.02 58.99-56.18 16.91 47.85 21.43 74.41 21.41 125.85-0.03 52.65-54.97 101.36-97.36 122.22l4.5-100.8zm-1192.2-121.36c0-23.51 8.98-46.9 21.42-59.8 16.68 6.17 29.39 28.41 42.69 42.15 23.56 24.33 16.24 25.2 16.23 64.05-0.01 61.99 11.74 68.71 19.62 118.68-38-25.03-99.97-90.14-99.97-165.09zm955.76 41.99c-15.78 0.38-104.28-22.33-130.56-28.56-14.67-3.48-25.99-8.12-39.08-11.67 41.1-0.02 135.15 22.5 169.64 40.24zm-407.83-41.21-161.58 29.6c30.07-19.34 116.46-31.02 159.91-34.89l10.41-2.47c-3.9 9.12 5.24 4.02-8.74 7.76zm168.41 48.05c-9.92 20.85-19.14 38.44-45.79 27.14-21.39-9.07-28.31-25.68-41.07-48.66-13.66-24.61-30.27-20.14-47.99-37.68-21.36-21.14-14.96-45.48 15.38-49.3 21.23-2.67 52.05 7.94 77.75 7.9 22.96-0.03 64.32-10.18 81.45-1.08 22.02 11.7 19.08 39.09-1.51 54.24-28.63 21.05-21.36 11.98-38.22 47.44zm565.07-91.66c0-22.39 29.97-69.18 41.02-80.33l26.7 55.41c32.55 79.03 5.92 130.75-45.41 181.09-2.86-28.87-1.08-54.96-5.6-83.4-3.57-22.43-16.71-55.61-16.71-72.77zm-487.25 23.24c24.7-12.81 83.28-14.35 116.04-14.35l17.84 0.06 41.14 4.4-175.03 9.89zm-425.65-25.06c41.62-7.04 148.38 5.38 176.61 20.12l-176.61-20.12zm417.62-8.03c8.84-3.28 22.84-11.57 36.03-17.42 14.48-6.42 24.39-8.98 39.83-13.95 19.21-6.2 63.21-19.09 83.06-18.61-17.96 9.23-149.65 52.47-158.92 49.99zm-803.99 49.13c-15.12-53.55-40.64-127.46-26.79-191 20.17 24.54 13.12 35.69 41.25 87.36 12.42 22.82 1.51 68.16-9.24 94.54-4.31 10.59-0.95 3.95-5.22 9.11zm564.02-54.42c-19.86-1.91-148.3-49.85-166.96-58.97 41.5 0.7 138.14 41.99 166.96 58.97zm833.44 24.09c-6.29-16.15-12.75-32.21-19.72-48.16-7.28-16.67-16.5-33.26-22.93-48.95-6.58-16.07 8.31-91.55 14.92-112.64 30.27 31.59 56.56 153.58 27.72 209.75zm-596.58-223.12c26.45-26.99 299.19-163.15 351.17-170.45 8.14 19.52 16.96 37.78 16.96 63.37 0 97.92-68.73 161.14-148.92 184.85-45.59 13.48-89.71 14.38-135.34-2.31-32.85-12.02-74.94-44.92-83.86-75.46zm424.84-344.3c13.24-23.88 22.18-67.41 33.96-98.65 16.74-44.38 31.56-79.77 49.84-121.27 26-59.04 83.85-170.66 125.4-214.83 12.31 84.46 30.35 157.07 30.35 247.21 0 165.28-4.62 150.66-29.45 311.44-62.58-40.78-149.52-107.94-210.1-123.91z"/>
  
 
</svg>
