<?xml version="1.0" encoding="UTF-8" standalone="no"?>
<!-- Created with Inkscape (http://www.inkscape.org/) -->

<svg
   version="1.1"
   id="svg2"
   width="349.33334"
   height="480"
   viewBox="0 0 349.33334 480"
   sodipodi:docname="cheshire3.eps"
   xmlns:inkscape="http://www.inkscape.org/namespaces/inkscape"
   xmlns:sodipodi="http://sodipodi.sourceforge.net/DTD/sodipodi-0.dtd"
   xmlns="http://www.w3.org/2000/svg"
   xmlns:svg="http://www.w3.org/2000/svg">
  <defs
     id="defs6" />
  <sodipodi:namedview
     id="namedview4"
     pagecolor="#ffffff"
     bordercolor="#000000"
     borderopacity="0.25"
     inkscape:showpageshadow="2"
     inkscape:pageopacity="0.0"
     inkscape:pagecheckerboard="0"
     inkscape:deskcolor="#d1d1d1" />
  <g
     id="g8"
     inkscape:groupmode="layer"
     inkscape:label="ink_ext_XXXXXX"
     transform="matrix(1.3333333,0,0,-1.3333333,0,480)">
    <g
       id="g10"
       transform="scale(0.1)">
      <path
         d="m 1928.35,1569.7 c 0.09,-12.24 -0.48,-24.54 -1.62,-36.92 -5.08,-55.65 -20.46,-92.6 -41.75,-142.9 -5.34,-12.6 -10.93,-25.09 -16.43,-37.63 1.38,1.12 2.81,2.26 4.27,3.42 10.5,8.31 19.65,13.43 28.91,16.19 17.18,12.94 43.68,22.78 64.17,25.5 25.29,3.35 51.65,0.1 75.54,-8.8 142.71,-53.23 134.89,-224.14 48.9,-324.45 -53.61,-62.53 -132.56,-83.606 -210.14,-75.036 38.91,-19.367 75.68,-42.937 109.24,-70.738 15.04,-12.465 27.8,-23.477 33.41,-41.086 25.06,-14.609 50.62,-32.754 62.53,-45.969 l 19.2,-21.308 -5.35,-28.184 c -2.17,-11.406 -6.57,-21.965 -13.16,-31.027 0.1,-23.016 -13.14,-43.989 -29.35,-62.012 -7.15,-7.953 -15.92,-17.293 -24.41,-26.895 14.35,-21.792 27.25,-45.367 33.93,-59.992 14.34,-31.402 30.02,-61.883 42.19,-94.277 12.97,-34.535 24.72,-69.231 33.02,-105.231 6.59,-28.601 13.48,-57 16.02,-86.335 4.08,-47.063 -25.77,-82.028 -73.9,-78.766 l -3.93,0.105 c -120.38,2.067 -260.09,41.856 -366.63,97.465 -2.56,1.336 -5.21,2.977 -7.88,4.614 -27.72,-10.59 -55.05,-21.918 -83.5,-30.833 -37.54,-11.765 -77.56,-21.855 -116.78,-25.957 -18.48,-46.738 -47.16,-99.449 -73.01,-134.699 -16.37,-22.316 -33.3,-43.597 -51.54,-64.4295 -15.55,-17.7734 -35.48,-32.9179 -49.85,-50.6132 L 1310.8,8.73047 1279.81,11.8242 c -32.17,3.2149 -47.99,16.0196 -62.77,42.9649 l -0.77,1.3476 -28.85,58.0113 -0.23,0.489 c -33.6,70.871 -57.92,159.195 -63.83,240.34 -10.46,5.726 -20.98,11.425 -31.24,17.414 -20.16,11.757 -46.84,26.285 -64.67,45.687 -11.86,2.074 -23.4,7.61 -34.716,15.938 l -29.035,21.285 6.297,35.453 c 1.434,8.09 3.582,15.949 6.152,23.68 -9.73,16.285 -11.437,37.453 -5.05,61.035 8.254,30.476 19.64,59.844 31.972,88.867 14.36,33.805 32.33,67.887 52.52,98.535 24.07,36.516 50.8,70.578 81.1,102.109 0.02,0.02 0.04,0.043 0.06,0.063 -11.55,9.496 -22.9,19.207 -34.13,28.902 -120.171,103.684 -214.526,191.155 -259.1,349.505 -9.454,33.58 -15.133,67.94 -23.852,101.65 -20.293,78.47 -26.531,162.04 -16.941,242.6 14.445,121.34 69.671,232.65 152.41,317.8 -39.828,26.94 -51.074,51.83 -52.985,97.61 l -5.324,-9.98 -54.183,42.02 c -100.122,77.64 -122.332,89.64 -181.516,204.85 -10.043,19.55 -16.859,26.91 -18.926,51.65 l -3.008,35.91 0.907,0.55 -15.262,40.69 -16.727,14.35 c -35.242,30.23 -44.343,105.21 -48.304,149.2 -4.164,46.33 -10.512,132.4 28.914,165.36 l 0.972,0.82 H 76.7188 l -16.1407,31.36 C 38.7344,2772.31 16.6758,2814 7.625,2861.41 c -14.84766,77.79 10.9805,145.13 58.9414,206 l 17.3672,22.04 H 693.781 c 5.496,4.78 11.453,9.01 17.797,12.63 87.723,50.09 61.688,58.14 104.34,164.57 33.176,85.87 213.322,211.92 296.932,249.58 50.04,22.55 241.34,32.25 298.33,35.09 l 12.55,12.37 c 29.72,29.29 67.61,28.65 105.95,25.54 79.14,-6.4 169.25,-44.35 236.6,-85.89 104.96,-64.73 186.85,-182.22 211.38,-302.79 7.5,-36.82 15.14,-73.79 19.95,-111.1 h 84.43 c 164.63,33.85 297.76,104.33 439.16,192.48 l 48.37,30.16 30.85,-47.92 c 2.93,-4.56 5.29,-9.46 7.03,-14.59 16.88,-49.85 -27.35,-87.72 -62.45,-113.92 -21.68,-16.18 -44.59,-31.43 -67.73,-46.21 h 34.14 l 17.26,-24.68 c 79.47,-113.65 86.83,-234.1 -2.37,-344.72 l -17.37,-21.52 H 1045.91 c -1.75,-5.89 -3.49,-12.07 -5.35,-18.61 -14.45,-50.72 -35.7,-62.53 -65.31,-113.11 l -12.363,-93.94 -0.649,-45.08 5.414,-4.32 c 17.172,-13.7 27.524,-38.59 39.928,-56.75 17.84,-26.11 37.66,-51.15 30.97,-85.27 -0.46,-2.36 -1.04,-4.63 -1.72,-6.82 4.43,-0.14 8.99,-0.68 13.71,-1.66 26.36,-5.49 43.48,-22.63 58.71,-43.34 2.18,-2.97 4.68,-6.78 7.15,-9.79 21.81,-15.49 49.97,-51.69 64.72,-70.66 16.7,-21.47 45.11,-57.88 52.94,-86.45 l 1.51,5.7 42.52,1.85 c 12.28,0.54 25.49,3.52 37.98,4.64 46.66,4.17 94.34,4.76 140.81,-1.72 47.19,-6.58 95.1,-17.38 138.1,-38.48 13.16,-6.45 25.47,-13.76 37.77,-21.68 6.75,-4.34 13.75,-9.2 20.86,-12.9 14.55,-7.56 32.8,-5.52 48.44,-3.49 92.51,12.05 183.77,-24.93 247.65,-90.54 l 11.94,3.52 c 20.97,6.17 42.23,15.83 63.32,17.79 l 6.77,1.87 c 72.91,20.17 149.41,-33.54 172.15,-102.13 21.94,-66.15 -0.91,-137.78 -49.16,-186.14 -59.44,-59.57 -144.71,-82.47 -226.37,-71.32"
         style="fill:#ffffff;fill-opacity:1;fill-rule:evenodd;stroke:none"
         id="path12" />
      <path
         d="m 1196.75,698.723 c 32.11,-96.91 40.31,-50.664 23.58,-115.047 -13.24,8.492 -30.53,34.094 -35.46,48.605 -6.62,19.477 -2.43,52.324 11.88,66.442 z m 891.08,2332.907 c 185.71,37.09 327.78,116.33 463.96,201.23 19.51,-30.29 -180.18,-134.81 -270.82,-201.23 h 200.31 c 66.38,-94.92 71.26,-186.91 0,-275.27 H 1058.15 c 6.76,10.4 15.33,20.49 26.83,30.96 3.88,3.54 10.25,10.14 14.7,12.98 18.72,7.79 27.49,13.45 39.05,31.49 l 5.73,8.95 1.27,10.55 c 2.75,22.92 184.34,79.61 202.98,88.51 29.89,14.27 57.27,28.12 82.48,50.19 16.72,14.65 44.13,28.36 69.64,41.64 h 55.08 c 13.84,46.23 33.44,104.97 35.48,116.01 19.32,104.7 -3.38,188.04 -55.05,278.77 -27.97,49.12 -66.15,84.09 -72.02,96.09 13.39,13.2 38.07,10.93 60.69,9.09 68.2,-5.51 150.41,-40.16 210.92,-77.47 95.08,-58.63 164.62,-164.63 185.07,-265.1 7.44,-36.55 21.66,-101.29 23.49,-157.39 z m -1218.072,213.91 -14.274,-35.61 c 50.942,-2.74 172.086,-31.59 224.126,-60.79 53.23,-29.88 80.04,-52.91 114.71,-104.09 20.34,-30.04 47.18,-88.67 62.73,-99.65 13.67,11.3 53.98,27.89 71.65,36.31 23.64,11.29 49.23,23.39 71.89,43.23 56.43,49.42 46.95,66.96 22.52,154.01 -17.73,63.21 -90.14,234.6 -178.6,284.29 -43.89,24.65 -75.56,14.84 -107.91,0.27 -76.21,-34.33 -242.616,-154.04 -266.842,-217.97 z m 115.183,-549.78 c 14.688,51.56 25.699,86.69 68.769,125.91 6.45,5.86 14.61,14.01 22.28,18.59 11.04,6.6 14.68,2.62 23.62,16.58 5.02,41.76 -102.969,110.6 -143.469,133.33 -52.387,29.41 -177.821,103.92 -227.711,52.53 -47.875,-49.32 -71.711,-137.83 -79.11,-198.1 -6.675,-54.42 -7.871,-70.58 33.129,-74.18 76.071,-6.67 118.602,-6.12 196.715,-36.08 37.836,-14.51 70.691,-35.51 105.777,-38.58 z m -872.953,335.87 h 550.028 c -32.934,-54.08 -51.661,-123.22 -58.793,-181.37 -3.825,-31.15 -9.547,-66.58 9.468,-93.9 H 111.988 c -43.8513,85.17 -87.9607,163.63 0,275.27 z m 886.16,-851.24 c -23.574,-42.05 -37.378,-102.83 -38.312,-145.91 -1.27,-58.34 -1.484,-65.67 47.674,-93.26 12.58,-7.06 21.88,-6.08 34.31,-3.59 10.82,12.3 98.7,63.13 124.62,75.15 -0.48,12.68 13.57,22.79 11.97,34.28 -2.77,19.83 -81.16,117.65 -95.93,125.95 -22.57,12.67 -39.65,87.06 -84.332,7.38 z m -298.32,116.08 c 1.11,-13.24 6.766,-18.43 12.738,-30.05 54.649,-106.39 64.782,-107.46 165.516,-185.58 22.051,41.35 -14.762,69.02 65.922,168.1 41.242,50.65 52.512,31.47 15.828,85.16 -10.504,15.38 -23.141,40.1 -28.246,44.17 -29.801,-27.77 -131.121,-52.32 -172.137,-63.89 -25.656,-7.24 -40.39,-6.39 -59.621,-17.91 z m -74.012,356.89 c -22.015,-18.41 -8.168,-202.2 19.95,-226.32 22.937,12.44 41.164,18.61 61.886,26.19 21.016,7.69 45.098,11.48 64.86,16.41 55.086,13.73 77.105,17.79 133.937,17.6 l 14.43,109.64 c -9.527,5.94 -55.352,6.5 -71.262,8.14 -24.715,2.55 -47.949,5.38 -72.273,10 -37.364,7.08 -115.504,19.55 -151.528,38.34 z m 654.774,-640.85 -0.5,-1.91 c 90.93,-24 175.05,-47.88 252.05,-108.35 17.32,6.68 7.52,9.29 34.83,10.75 8.1,0.43 6.8,1.36 12.67,6.15 14.86,12.14 43.37,22.76 69.45,13.37 l 60.8,-31.86 c 31.82,-21.88 32.93,-40.69 37.56,-47.27 3.63,-5.15 16.66,-15.4 22,-20.96 34.29,-35.81 64.96,-76.87 83.59,-121.92 28.78,-69.67 11.75,-65.31 47.76,-75.94 74.34,-21.92 158.46,-7.35 212.99,47.3 32.71,32.79 50.35,81.42 35.2,127.1 -13.47,40.65 -60.38,76.06 -101.85,64.58 2.74,-6.94 48.12,-48.66 38.64,-91.68 -1.84,-8.35 -2.4,-10.05 -9.67,-10.51 -4.9,7.37 -2.36,1.78 -0.92,10.89 2.26,14.23 2.83,18.36 -3.03,33.46 -5.96,15.35 -21.31,40.87 -34.96,52.17 -8.52,7.05 -39.58,-7.94 -59.23,-13.72 15.63,-15.35 22.48,-14.26 39.27,-39.85 7.53,-11.47 22.94,-36.25 17.91,-49.93 -18.18,2.12 -0.4,19.6 -37.79,59.26 -5.29,5.61 -21.22,21.61 -30.29,24.25 -10.12,2.94 -25.14,-8.71 -36.6,-8.15 -49.08,65.96 -132.73,111.05 -220.96,99.57 -116.46,-15.16 -76.02,50.88 -260.62,76.62 -41.86,5.84 -85.74,5.14 -127.66,1.39 -12.67,-1.13 -28.04,-4.27 -40.64,-4.81 z M 2079.26,327.887 c -3.76,-4.766 2.02,-5.473 -8.56,-0.352 -0.15,0.07 -7.24,5.199 -7.67,5.504 -5.39,3.723 -10.87,7.836 -17.48,10.441 -7.99,7.391 -19.67,13.493 -29.22,20.215 -53.94,37.95 -82.06,58.852 -133.69,100.754 -11.59,9.399 -39.65,36.926 -51.71,40.699 4.59,17.165 17.02,30.512 26.72,42.508 10.51,13.008 18.57,24.028 28.03,37.551 12.93,18.484 6.02,3.277 18.12,13.07 2.81,2.274 11.25,13.176 14.38,16.75 6.6,7.528 24.06,29.84 29.89,33.633 8.26,-11.566 15.28,-23.316 23,-36.055 26.42,-43.582 38.19,-66.355 58.81,-115.414 11.52,-27.429 20.08,-53.16 28.8,-83.023 z m 1.37,-32.707 5.96,-0.164 c 12.8,-1.168 14.31,4.035 13.27,16.015 -2.25,26.02 -9.02,53.449 -14.76,78.336 -7.95,34.512 -19.1,66.703 -30.81,97.887 -11.65,31.019 -26.83,60.328 -40.65,90.586 -5.87,12.844 -41.39,75.555 -54.44,84.144 10.75,16.914 39.08,48.27 54.53,65.442 35.17,39.094 -0.7,27.179 -41.96,42.07 10.22,3.664 26.68,5.004 37.42,6.949 15.97,2.887 30.04,-0.644 33.23,16.129 -12,13.317 -63.85,46.012 -84.36,52.207 16.02,13.407 11.7,14.766 -5.51,29.024 -79.94,66.226 -180.99,106.043 -284.72,119.633 9.76,20.302 21.72,36.282 31.68,59.862 5.63,13.34 22.26,59.35 21.37,72.06 5.1,-1.58 26.5,-20.68 33.42,-26 83.34,-63.95 220.31,-81.4 292.14,2.39 59.91,69.89 77.31,194.39 -25.21,232.63 -15.93,5.94 -32.79,7.63 -47.73,5.65 -12.5,-1.65 -30.67,-9.03 -37.86,-15.06 78.86,-12.81 95.07,-105.6 77.62,-112.47 -6.58,3.55 -4.71,2.23 -4.62,11.09 0.13,13.77 -1.57,28.93 -7.23,40.71 -11.11,23.14 -35.89,45.05 -64.33,50.3 -17.56,3.24 -18.11,3.85 -28.37,-4.27 -16.47,-13.04 -24.9,-19.44 -35.69,-43.59 88.54,-4.35 118.88,-69.54 98.05,-90.91 -14.11,3.55 6.41,29.62 -25.12,56.13 -19.91,16.75 -49.27,22.47 -75.43,25.27 -4.47,-20.01 3.86,-59.7 -61.07,-14.68 -15.5,10.75 -27.38,25.59 -25.51,46.34 2.09,23.31 37.34,98.86 47.79,123.54 19.03,44.96 32.8,75.14 37.41,125.62 2.76,30.11 1.75,59.23 -5.83,88.31 -2.76,10.56 -5.03,16.24 -8.32,25.35 8.28,2.35 1.4,-1.73 9.07,-0.34 -5.93,17.64 -11.7,34.95 -18.68,51.5 -5.57,13.23 -17.42,38.43 -25.69,49.37 -11.3,14.97 -19.12,29.4 -31.48,44.35 -8.24,9.96 -27.67,33.02 -38.76,41.03 -6.55,-38.41 -19.21,-53.74 -43.58,-74.22 -18.14,-15.24 -43.8,-29.21 -72.69,-32.83 -44.65,-5.59 -150.38,13.78 -195.48,33.14 l 4.45,-4.53 c 0.67,-0.59 3.85,-3 4.81,-3.71 51.97,-38.23 86.96,-77.75 85.24,-149.85 -2.41,-101.52 -31.64,-206.14 -112.47,-268.08 -126.28,-96.78 -327.52,-26.4 -318.69,-12.26 4.8,7.69 16.84,-1.6 25.3,-4.94 116.33,-45.92 264.35,-31.44 338.91,79.98 38.54,57.59 59.73,143.61 57.02,214 -4.52,117.12 -108.89,137.83 -180.16,205.41 -57.07,54.12 -42.15,75.95 -30.29,56.65 15.66,-25.48 34.43,-48.32 60.9,-67.61 28.62,-20.87 62.26,-35.96 100,-47.14 38.16,-11.31 77.97,-17.5 115.89,-21 43.2,-3.98 64.49,1.29 92.73,17.82 19.6,11.47 54.8,39.75 57.17,75.42 1.85,27.87 -25.2,61.73 -56.89,70.42 3.23,-10.47 11.18,-50.18 -0.67,-62.35 -9.51,0.16 -6.52,5.55 -5.17,14.49 12.43,82.55 -71.18,80.54 -90.31,53.37 11.2,-9.9 41.53,-27.3 31.49,-46.43 -11.33,2.46 -10.43,19.99 -27.08,31.7 -45.9,32.32 -91.48,-34.88 -39.56,-58.5 5.19,-2.36 8.91,-2.87 10.28,-7.65 -6.06,-7.96 -13.91,-3.1 -22.12,2.34 -22.75,15.08 -25.77,39.03 -12.93,63.33 -66.16,47.3 -136.17,80.33 -223,100.93 -60.45,14.35 -64.21,8.5 -110.86,-7.12 -173.69,-58.16 -308.702,-215.69 -331.542,-407.54 -8.796,-73.87 -2.824,-150.41 15.504,-221.28 8.618,-33.31 14.465,-68.25 23.532,-100.46 40.769,-144.82 128.806,-224.41 241.206,-321.393 26.07,-22.497 55.48,-47.254 83.55,-66.254 -13.21,-18.758 -61.64,-51.75 -120.06,-140.418 -17.25,-26.184 -34.54,-58.621 -47.59,-89.328 -11.27,-26.524 -21.82,-53.469 -29.38,-81.375 -3.71,-13.719 -4.78,-17.618 10.06,-20.344 2.24,1.914 3.76,3.519 7.12,6.324 1.4,1.172 1.8,1.57 3.3,2.668 l 5,3.211 c -6.16,-22.332 -21.37,-48.551 -25.46,-71.563 5.62,-4.125 8.8,-8.066 17.03,-3.148 14.29,8.535 31.18,22.77 48.59,26.52 -5.68,-13.5 -23.73,-25.395 -26.63,-41.282 2.51,-14.203 101.04,-65.586 113.89,-73.218 0.48,-81.911 25.52,-178.157 59.63,-250.11 l 27.91,-56.117 c 4.74,-8.3633 4.1,-12.5196 18.21,-13.9297 15.39,18.9531 34.32,32.9097 51.23,52.2347 18.01,20.593 31.88,38.007 48.41,60.55 26.41,36 62.77,105.161 76.37,151.938 5.39,4.496 -0.5,1.871 8.64,3.195 l 27.31,2.746 c 35.46,3.828 74.14,13.52 106.82,23.758 33.85,10.61 65.02,24.344 97.98,36.328 10.98,3.989 26.77,-8.457 37.45,-14.023 98.26,-51.293 229.98,-89.008 340.86,-90.91 z m -843.9,470.511 c 0.87,-1.363 1.14,-1.574 2.07,-3.828 l 5.9,-30.433 c 2.57,-10.649 6.95,-22.106 10.71,-30.742 6.52,-14.985 7.91,-13.723 -1.84,-30.461 -4.61,-7.922 -13.19,-24.934 -18.39,-31.993 -9.75,7.954 -33.96,58.305 -28.71,78.235 4.85,18.398 18.28,40.234 30.26,49.222 z M 1213.45,576.5 c 3.41,-5.707 8.51,-46.555 6.92,-54.332 -9.51,3.734 -26.01,33.062 -30.35,42.277 -6.17,13.157 -12.72,35.758 -10.41,53.879 z m 81.01,249.98 c 4.16,-12.078 2.78,-31.496 4.59,-45.582 2.52,-19.585 7.7,-26.519 12.65,-41.32 -8.81,-12.215 -33.56,-32.566 -42.17,-44.308 -0.35,0.414 -0.72,1.019 -0.92,1.328 -9.9,15.531 -20.04,55.914 -19.83,71.07 0.36,27.242 31.4,45.219 45.68,58.812 z m 94.68,58.422 c 3.31,-11.547 1.81,-31.781 3.2,-44.82 2,-18.727 6.64,-26.844 9.79,-40.965 l -83.19,-51.293 c -6.01,15.035 -18.03,56.801 -11.86,80.403 5.65,21.593 67.58,52.242 82.06,56.675 z m -35.1,279.688 c 5.95,6.32 5.66,11.61 10.52,19.09 12.57,19.35 25.38,22.02 44.51,25.96 9.21,1.9 7.98,4.67 15.25,9.65 32.17,22 87.47,9.17 105.4,-38.46 12.42,-32.96 1.07,-68.42 -16.04,-62.4 -2.03,17.37 15.45,2.84 10.69,43.31 -4.67,39.72 -45.82,70.51 -87.53,52.8 -7.5,-3.18 -3.84,-0.33 -8.78,-6.41 23.33,-9.29 33.11,-17.77 39.29,-36.3 3.9,-11.68 2.49,-49.85 -15.12,-47.38 -4.67,10.31 23.68,34.91 -6.01,62.48 -31.3,29.05 -114.29,12.02 -65.14,-95.91 6.44,-14.16 16.59,-20.49 12.26,-24.26 -3.86,-2.71 3.78,-5.87 -7.57,-0.82 -7.2,3.2 -18.63,30.41 -21.35,37.89 -9.31,25.61 -8.53,46.69 -11.68,51.91 -17.83,-3.48 -58.93,23.39 -70.28,33.82 -44.61,41 -36.83,64.12 -26.12,52.65 2.59,-2.78 1.55,-7.7 11.56,-20.82 21.65,-28.39 46.45,-49.6 86.14,-56.8 z m 47.45,-273.289 c 12.13,3.09 26.5,9.101 40.72,13.012 7.43,2.042 13.37,3.023 21.43,4.863 8.91,2.027 11.82,5.062 18.77,-0.293 20.87,-16.098 45.83,-46.313 47.81,-68.285 -5.13,-3.481 -50.28,-12.45 -60.96,-15.993 -12.92,-4.285 -45.68,-20.054 -57.54,-19.894 -8.69,16.312 -13.54,62.371 -10.23,86.59 z m -79.78,-528.496 c -3.6,-16.196 -3.3,-45.844 -4.79,-63.989 -5.21,-63.57 -12.63,-119.375 -33,-180.273 -3.22,-9.617 -3.08,-9.688 -8.04,-12.578 -3.62,10.504 -9.46,20.887 -14.52,31.824 -36.01,77.922 -57.1,152.406 -62.25,242.082 27.52,-6.68 52.15,-28.047 58.72,-5.023 z m 123.03,345.3 c -12.01,-5.546 -74.8,-8.23 -91.43,-3.41 8.05,1.778 83.92,4.918 91.43,3.41 z m -86.31,-41.867 10.65,4.575 c 17.19,5.621 63.05,23.937 73.37,24.687 -3.32,-3.582 -0.28,-1.504 -5,-4.004 L 1402.2,677.43 c -12,-4.024 -30.25,-9.742 -43.77,-11.192 z m 26.69,-29.91 c 6.83,8.067 46.17,32.051 56.4,39.957 l 9.32,4.801 c -11.07,-14.703 -50.98,-40.762 -65.72,-44.758 z m 154.48,98.106 c 21.74,-5.715 23.56,-25.075 5.19,-31.012 -15.61,-5.039 -19.89,1.906 -61.7,-15.582 -6.85,-2.867 -14.22,-4.719 -22.05,0.406 -17.17,11.223 4.83,24.945 8.34,38.25 3.19,11.313 4.46,61.32 46.31,19.734 10.02,-9.957 8.28,-7.687 23.91,-11.796 z m -41.19,495.816 c 12.86,11.48 42.07,3.99 58.47,-7.7 64.99,-46.31 37.85,-164.27 -37.04,-197.46 -103.41,-45.817 -231.41,-4.89 -322.49,53.8 -17.94,11.56 -30.46,15.3 -29.14,24.86 8.28,3.8 26.75,-11.55 36.26,-17.55 33.99,-21.47 86.45,-47.31 125.91,-57.71 82.17,-21.66 178.44,-16.93 221.79,31.97 24.69,27.85 36.76,75.21 27.92,111.19 -3.39,13.79 -15.09,32.33 -27.49,41.87 -23.71,18.25 -38.49,9.77 -51.91,9.98 -1.08,2.12 -1.78,3.58 -2.28,6.75 z m 172.52,290.04 c 9.82,-7.26 23.63,-17.82 20.28,-27.24 -8.4,-0.33 -21.2,14.25 -27.42,21.46 -17.22,-7.6 -22.66,-24.96 -30.44,-22.99 -3.77,2.48 -6.23,1.35 -2.38,8.09 l 23.75,22.91 c -7.83,8.27 -15.72,11.49 -12.26,21.03 9.97,0.17 12.51,-9.11 21.18,-14.23 8.17,4.88 18.4,16.4 28.22,14.42 0.61,-1.69 1.12,-3.29 1.73,-5.02 -6.27,-8 -15.87,-9.67 -22.66,-18.43 z M 1368.19,531.527 c 4.8,18.227 17.86,32.618 28.73,41.743 38.09,31.976 101.91,33.007 127.18,-7.383 l 1.42,-2.617 c -5.61,-5.911 -16.88,-13.473 -23.64,-18.094 -26.57,-18.113 -54.95,-31.828 -75.07,-45.867 -0.22,0.441 -0.49,1.062 -0.63,1.347 l -6.23,11.133 c -22.83,33.473 -23.73,26.383 -24.84,26.445 l -3.46,-0.699 c -8.59,-12.441 6.42,-38.613 7.64,-49.254 l 8.46,2.328 c -5.82,-4.363 -25.23,-14.82 -32.64,-15.804 -7.84,17.683 -13.95,30.062 -6.92,56.722 z m 124.54,381.985 c 12.64,5.562 82.16,13.164 98.96,5.738 18.38,-8.125 36.24,-35.398 43.37,-51.93 3.11,-7.218 6.39,-11.132 7.33,-19.675 -23.65,-4.848 -78.42,0.878 -98.1,-6.696 l -5.3,10.692 c -7.46,19.972 -23.78,39.375 -39.74,53.972 -2.15,1.961 -2.54,2.188 -4.16,4.16 -1.89,2.305 -1.68,2.418 -2.36,3.739 z m 68.84,-174.731 c 15,11.301 45.03,22.946 57.45,30.555 3.91,2.394 14.36,7.437 18.91,8.332 -12.13,-11.129 -60.24,-38.176 -76.36,-38.887 z m 45.22,181.254 c 12.19,4.004 29.51,-0.23 44.16,-1.402 27.52,-2.203 42.11,-27.125 55.12,-50.16 l 16.65,-31.328 c -21.56,0.519 -45.76,8.429 -66.55,7.871 l -20.94,40.113 c -5.66,10.168 -18.57,26.957 -28.44,34.906 z m -37.97,-192.312 c 3.55,3.09 81.72,16.554 89.07,15.711 -12.52,-4.297 -27.78,-8.352 -42.96,-11.282 -16.63,-3.214 -30.53,-2.699 -46.11,-4.429 z m 51.94,-22.207 c -17.09,0.894 -30.3,2.273 -47.84,6.894 30.4,0.078 62.99,-4.719 93.69,-5.328 -0.44,-0.113 -1.06,-0.297 -1.34,-0.359 l -21.67,-1.539 c -7.12,-0.075 -14.38,-0.114 -22.84,0.332 z m 93.7,-40.532 c 33.41,-8.8 60.02,-37.898 59.28,-65.449 -12.5,-4.699 -104.71,-13.078 -119.99,-10.59 5.13,5.489 0.49,19.446 -0.98,28.016 -1.7,9.949 0.37,22.773 -13.04,19.918 -5.78,-5.996 -15.87,-38.813 -10.96,-46.402 -7.4,-3.938 -14.88,-3.254 -30.46,-1.661 2.82,69.946 64.24,89.848 116.15,76.168 z m 2.58,241.282 c 47.5,-12.516 72.33,-74.996 66.58,-90.766 -74.52,19.59 -38.55,18.332 -76.49,69.699 -4.79,6.485 -17.28,20.516 -18.52,27.086 z m 51.33,-23.184 c 25.84,-4.859 81.64,-45.789 68.78,-95.93 -10.49,-1.093 -22.75,10.004 -31.02,15.696 -13.16,9.078 -9.36,13.257 -12.63,26.566 -3.16,12.824 -18.68,42.313 -25.13,53.668 z m 77.86,-65.25 c 10.98,-13.664 17.34,-25.781 24.42,-41.73 3.32,-7.485 15.21,-37.747 13,-45.926 -10.59,10.316 -7.65,8.476 -14.86,19.133 -9.8,14.461 -31.33,21.457 -22.56,68.523"
         style="fill:#231f20;fill-opacity:1;fill-rule:evenodd;stroke:none"
         id="path14" />
    </g>
  </g>
</svg>
