<svg xmlns="http://www.w3.org/2000/svg" height="464" width="353.333" xml:space="preserve"><path style="fill:#fff;fill-opacity:1;fill-rule:evenodd;stroke:none" d="M1965.66 1699.33c80.58 19.22 168.36 17.31 239.82-4.73 54.12-16.69 105.05-39.85 152.13-71.42 43.74-29.34 97.04-70.52 104.7-126.15l5.66-41.18-5.57-2.77.57-.09 63-90 18.1-25.54c42.21-23.5 61.94-56.02 76.18-108.16 9.44-34.52 16.15-70.48 19.45-106.13 6.2-66.86 12.02-174.98-12.25-236.992-11.11-28.383-20.42-59.711-50.33-71.16l-20.87-80.258c10.02-17.105 15.8-36.211 15.28-57.504-1.37-55.699-39.18-132.777-72.36-177.293-24.26-32.547-55.75-76.031-96.38-91.109l-25.46-19.918.95-.485-23.85-50.726c-27.16-57.774-160.73-154.902-224.96-156.555l-37.35-.961-36.19-12.383-1.06-9.261-29.01-13.77c-77.66-36.867-210.64-37.597-291.4-9.371l-.86.301-23.49 9.051c-68.93-58.918-124.14-106.114-226.93-104.407-28.66.477-61.54 6.66-89.12 19.926-90.39-75.715-187.24-66.937-269.59-1.3-11.08 8.84-19.64 14.07-27.67 26.562-83.43-81.121-229.999-69.445-284.378 49.59-6.637 14.527-8.16 28.789-6.832 43.199-44.797 23.527-78.254 68.187-100.051 112.633-54.137 110.398-47.398 234.398.141 345.765 12.992 30.438 29.281 54.86 49.133 81.004 8.941 11.778 18.015 23.442 26.039 35.871l7.558 11.719c-20.012 73.606-42.535 146.445-60.293 220.703-18.015 75.359 1.672 233.459 18.832 310.929a802.186 802.186 0 0 0 7.188 29.68c-109.594 42.56-234.356 128.01-312.051 204-30.883 30.21-61.566 66.52-88.594 100.16-29.25 36.41-82.449 102.75-82.297 150.89l.039 12.03c-17.425 19.06-32.511 38.44-47.328 59.71-4.906 7.05-10.148 14.02-14.547 21.4-15.742 26.44-19.726 57.88-.394 84.07 7.238 9.81 15.715 16.54 24.988 20.99l-2.625 9.66 18.973 23.06c4.949 6.02 12.523 12.62 21.734 19.48-2.18.3-4.367.61-6.547.93-125.39 18.67-228.508 81.61-248.957 216.2-17.398 114.51 43.344 204.03 132.172 269.28 68.367 50.21 132.762 82.43 211.387 110.77 1.148 6.6 2.375 13.18 3.695 19.74 1.61 8.03 2.285 16.72 3.77 24.94 5.32 29.5 17.195 57.52 45.957 71.43 16.691 8.08 34.687 8.87 51.668 3.9 9.847-.82 19.121-4.06 27.25-9.47 4.07-1.43 8.207-3.33 12.664-5.77 4.312-1.92 8.609-3.89 12.937-5.77 9.942-4.34 19.528-9.26 29.379-13.74 13.203-6 26.313-12.18 39.219-18.76l22.625 5.21c77.949 17.95 156.301 33.79 234.637 49.93l.828.17.84.14c10.472 1.84 20.82 4.73 31.421 6.56 50.067 8.62 101.715-5.49 114.301-61.5 8.979-39.96-19.875-82.41-59.597-90.37-45.746-9.16-93.594-23.52-139.332-40.11 69.304-51.94 132.8-110.05 195.937-181.07a201.59 201.59 0 0 0 2.707-3.12l99.274.91c-19.34 19.36-34.5 43.76-43.29 72.94-15.41 51.22-7.28 108.7 20.98 154.03 9.46 15.17 19.24 26.44 29.88 35.41-9.7 4.56-18.4 11.08-25.29 20.57l-6.37 8.78-2.76 10.5c-12.49 47.57-11.11 95.87 2.81 142.94 11.23 37.94 29.86 73.1 52.02 105.72 28.49 41.95 62.16 78.61 95.85 116.25 9.67 10.81 42.7 47.19 46.43 60.5 2.52 9.84 8.02 35.2-3.96 42.06-9.11 5.22-31.29 4.96-38.21-2.24-1.18-1.55-1.85-3.23-2.45-5.06-4.99-15.49-6.23-35.85-10.73-52.72l-7.21-26.97-25.59-11.14c-43.7-19.02-226.314-18.25-271.751-1.7l-29.406 10.72-7.11 30.49c-30.691 131.63 59.664 277.69 176.107 335.88 71.75 35.84 157.68 48.7 237.23 42.53 216.14-16.78 368.82-164.62 332.73-390.49-15.53-97.2-73.63-167.55-143.33-232.23-15.32-14.22-32.18-24.33-47.81-37.45-4.13-3.46-8.36-7.44-11.26-12.03-10.98-17.39-11.96-48.76-15.01-68.93-1.57-10.45-3.61-20.79-6.49-30.96-3.24-11.47-7.42-22.67-13.16-33.14l-4.73-8.62-7.3-6.58c-2.9-2.61-6-4.85-9.25-6.75 26.33-22.16 46.32-50.87 54.57-83.51 17.61-69.65 2.59-140.53-53.83-187.9a189.024 189.024 0 0 0-21.51-15.61c7.4-1.69 14.79-3.4 22.19-5.11 5.14 6.65 10.2 13.35 15.17 19.07 73.36 84.3 176.31 163.84 274.4 217.28.23.12.46.25.7.38-17.98 7.41-32.49 19.37-39.9 38.89-6.44 16.95-6.88 35.42-.38 52.44 21.98 57.54 89.92 55.09 139.16 60.74 153 17.58 395.66 21.84 486.47-127.6 23.12-38.04 32.98-80.7 21.19-124.35-24.71-91.53-133.37-144.49-214.17-177.44-54.16-22.1-109.39-40.73-165.26-57.27-4.26-45.17-11.49-89.81-23.03-133.76-5.07-19.27-7.31-35.86-12.81-53.75 2.36-2.24 4.66-4.42 6.68-6.45 15.59-15.74 30.01-32.25 43.64-49.72 18.42-23.61 39.11-49.48 54.3-75.28 6.23-10.58 11.33-21.58 14.28-32.84 7.4-1.95 14.77-5.27 22.12-10.45 14.88-10.48 24.39-25.98 28.18-43.64 2.73-12.75 2.08-25.81-2.07-38.19-6.23-18.57-14-23.74-25.09-37.08l-.56-.68-8.08-9.15c.77-1.44 1.52-2.9 2.23-4.39l9.41-19.6-5.85-20.96c-1.69-6.06-4.58-12.67-8.33-19.57zm75.99-465.81-35.4 12.28c-31.64 10.97-40.83 29.54-67.02 45.56-17.88 10.94-35.37 23.64-54.32 32.6-63.57 30.11-115.44 86.03-129.97 147.38-59.92-47.65-125.21-89.46-189.19-122.17l32.84-37.33c38.79-41.14 74.12-85.18 109.84-128.96 182.24-223.364 210.88-450.579 161.93-718.333l84.39 14.512 7.71 12.211c14.39 22.796 66.58 82.328 88.63 95.914l22.07 13.601a92.537 92.537 0 0 0-6.91 7.656l-29 36.192 29.03 36.168c21.13 26.316 37.21 68.828 34.3 102.863-.31 1.547-.76 3.16-1.13 4.68-7.45 30.414-2.56 55.375 11.74 73.199l-19.41 63.082-9.56-1.32-14.06 47.765c-13.55 46.02-34.98 119.87-35.43 166.47-.32 34.33 4.7 60.05 14.73 80.48zM99.973 1852.07c61.433 10.2 121.757-32.83 132.164-94.18 10.707-63.13-30.735-124.7-94.473-135.34-45.617-7.6-90.187 9.76-116.012 48.65-47.472 71.49-8.187 166.5 78.32 180.87zm1984.697 285.62c61.43 10.2 121.76-32.83 132.16-94.18 10.71-63.13-30.73-124.71-94.47-135.34-45.62-7.61-90.2 9.76-116.02 48.65-47.46 71.5-8.18 166.5 78.33 180.87zm-225.25 1046.59c88.84 14.75 177.1-48.18 192.15-136.93 15.6-91.98-44.22-182.49-137.38-198.03-66.76-11.14-131.39 13.13-169.28 70.2-13.31 20.04-22.32 42.79-26.65 66.43-17.8 97.28 42.92 182.01 141.16 198.33zM450.258 2894.36c-12.207 96.52 52.93 187.31 150.258 199.74 96.601 12.33 186.839-52.4 199.617-149.54 8.754-66.54-14.195-129.7-70.617-168.12-27.961-19.04-61.184-29.6-94.891-31.42-92.781-4.97-172.434 54.96-184.367 149.34" transform="matrix(.13333 0 0 -.13333 0 464)"/><path style="fill:#231f20;fill-opacity:1;fill-rule:evenodd;stroke:none" d="M529.039 1971.01c13.039-10.47 10.582-24.84 15.645-41.11 4.113-13.23 14.675-32.9 16.175-43.1 2.039-13.86-13.304-58.06-21.714-70.78-17.86 51.22-17.434 113.52-10.106 154.99zm-419.508-200.04c44.285 12.47 60.473-56.44 16.875-67.71-42.863-11.08-64.605 54.28-16.875 67.71zm-.082 24.05c-78.676-13.06-58.652-128.33 18.699-115.43 28.52 4.76 52.965 33.31 46.973 68.63-4.594 27.09-32.855 52.25-65.672 46.8zm1984.781 261.57c44.29 12.47 60.47-56.44 16.88-67.71-42.87-11.08-64.61 54.28-16.88 67.71zm-.09 24.05c-78.67-13.06-58.65-128.33 18.71-115.43 28.52 4.76 52.96 33.31 46.97 68.63-4.6 27.09-32.86 52.25-65.68 46.8zm-225.09 1000.57c84.74 23.86 115.71-108 32.3-129.57-82.02-21.2-123.63 103.86-32.3 129.57zm-.16 46.02c-150.54-25-112.22-245.56 35.79-220.87 54.57 9.1 101.34 63.73 89.88 131.32-8.79 51.84-62.87 99.98-125.67 89.55zM606.996 2990.02c91.641 26.81 131.438-115.07 39.453-141.36-92.816-26.54-138.422 112.41-39.453 141.36zm-99.367-88.4c18.566-146.81 256.484-126.62 235.172 35.4-7.817 59.44-63.637 108.82-134.961 99.71-58.93-7.52-109.289-63.34-100.211-135.11zm412.695-239.01c-55.097-11.04-133.75-34.82-210.722-67.1l-87.368 49.12c81.274 18.72 160.414 34.62 233.321 49.64 23.773 4.17 72.097 21.42 79.304-10.66 1.371-6.09-4.5-18.99-14.535-21zm-545.961-262.92c1.137-2.4-4.097-3.43-6.117-5.15-91.586-78.21-123.828-158.49 41.344-226.38 50.676-20.84 106.047-26.99 113.195-41.11 22.008-43.43-106.953-42.34-126.797-42.84-121.093-3.08-297.62 11.35-322.285 173.69-13.969 91.91 37.844 161.56 109.231 213.99 66.093 48.55 124.093 77.65 208.273 107.07-3.609-33.7-21.617-169.19-16.844-179.27zm1639.697-34.04c98.64 40.23 231.58 109.33 165.41 218.22-72.29 118.95-287.68 116.59-430.45 100.18-20.72-2.38-103.92-2.07-91.34-35.19 6.11-16.07 95.02-14.06 118.06-16.28 233.34-22.53 308.57-97 88.95-224.99-84.58-49.29-236.78-106.59-338.29-134.55-72.19-19.88-86.16-16.05-81.12-47.43 19.68-11.67 73.02.81 117.82 11.33 152.14 35.74 306.04 69.59 450.96 128.71zm-586.54 526.02c46.87 43.5 110.97 107.67 125.55 198.97 48.92 306.13-299.09 380.99-487 287.11-103.836-51.88-167.691-176.44-145.64-271.02 30.433-11.09 200.61-11.92 228.87.38 8.05 30.16 5.78 55.26 23.08 77.94 38.61 50.61 177.68 42.02 144.18-89.2-20.33-79.62-245.24-213.5-197.21-396.42 11.25-15.5 195.48-11.69 203.05-4.88 3.45 6.3 6.08 13.48 8.24 21.11 10.74 37.96 4.95 78.12 28.24 115.02 17.17 27.2 45.92 39.91 68.64 60.99zm-235.97-263.26c-36.24-14.28-56.12-20.01-74.52-49.52-16.74-26.85-26.65-66.95-14.67-106.76 42.64-141.7 292.65-101.66 247.99 75.03-17.09 67.61-108.73 100.98-158.8 81.25zm685.25-890.5-5.42 3.69 60.98 69.03c8.07 9.71 17.43 15.33 15.1 26.18-6.09 28.38-49.86-8.96-114.5-3.36 11.72 8.06 24.55 15.74 36.6 23.37 35.46 22.46 51.44 14.33-30.04 118.77-54.8 70.26-77.77 66.2-64.7 96.02 9.72 22.17 11.05 42.05 16.86 64.16 11.67 44.43 18.37 88.61 22.2 133.53-9.75-2.67-19.51-5.3-29.28-7.87-2.63-25.83-5.85-50.86-11.05-75.51-5.56-26.42-16.6-90.25-27.64-108.97-16.34 18.77-50.11 50.46-73.57 52.57l-12.16-10.98c-22.79 18.45-63.76 41.19-87.94 52.96 2.27 8.7 8.98 25.1 16.52 42.34l-19.18-4.5c-36.57-8.58-105.87-27.61-138.76-8.12l-11.43 6.77-2.1 13.12c-2.17 13.51-2.19 26.71 5.01 38.88 8.77 14.8 23.94 20.87 39.62 25.44 18.74 5.48 38.07 9.74 56.96 14.94 43.84 12.08 87.65 26.61 130.57 42.38 2.69 5.63 5.4 11.39 8.14 17.33 11.64 25.26 38.8 68.3 54.47 92.55 20.27 31.36 40.91 59.87 66.54 87.75 7.48-33.42 11.31-87.82 12.2-139.49 9.36 4.45 18.62 9.02 27.72 13.72-1.33 43.29-9.32 160.25-24.48 177.36-19.13.95-100.88-41.36-123.54-53.7-91.53-49.87-190.53-126.41-258.45-204.46-12.55-14.44-25.05-32.9-38.05-45.06-95.4 20.73-129.06 33.89-243.39 36.31l-159.454-1.45c-12.027 1.3-2.597-3.44-12.875 7.54-4.527 4.84-8.883 10.29-13.207 15.15-113.168 127.31-221.062 206.43-364.91 287.36-18.375 10.34-37.223 19.39-56.684 28.23-10.093 4.59-17.75 8.65-28.582 13.38-4.976 2.17-7.5 3.35-13.441 6-8.289 3.69-6.023 4.81-15 4.18-9.766 8.86-1.926 5.47-12.102 6.06-29.343 15.85-30-34.58-33.878-53.89-2.047-10.18-3.93-20.83-5.668-31.85l-4.297-32.34-6.989-74.52c-2.085-33.69-3.007-68.37-2.738-102.49l3.028-14.07-2.661-2.11-.152-.13c.961-50.15 4.531-98.53 10.816-140.12 1.528-10.09 3.508-24.34 5.957-40.51 1.372-.59 2.711-1.14 4-1.67 8.692-3.57 17.524-6.66 26.434-9.49-2.945 17.19-5.172 31.68-6.152 38.97-12.973 96.67-17.18 187.16-9.641 282.28 1.977 25 4.117 44.59 7.695 68.79 1.555 10.53 11.563 56.39 7.825 65.69 11.16 2.97 4.578 4.2 14.808-8.24 3.949-4.8 6.813-9.46 10.824-14.73 6.477-8.52 13.7-21.39 21.489-26.92 14.996-26.02 42.316-59.01 60.394-85.34 19.961-29.06 37.828-56.81 57.985-87.24 17.238-26.02 103.828-177.9 112.097-184.91-13.808-27.44-87.418-63.92-119.402-86.94-33.57-24.16-18.606-13.14-31.039-13.63-3.883-.16-10.723-2.83-19.113-6.95 2.027-8.5 1.906-17.36-.911-25.99-13.968-42.84-83.816-48.91-132.375-50.4-44.226-23.81-115.406-61.89-127.726-76.88 6.531-24.04 60.832-46.15 79.894-62.54-13.785-.64-43.254 5.94-59.175 9.4-17.602 3.83-80.227 21.29-56.637-18.32 2.715-4.56 9.074-13.28 12.316-17.94 34.715-49.85 46.59-55.71 79.793-95.02-8.246-1.48-14.34-2.39-22.133-9.96-.132-40.6 120.032-176.79 153.497-209.52 80.617-78.85 221.957-172.87 330.16-204.29 3.797-1.1 7.949-2.42 12.359-3.9-7.805-25.17-15.086-49.78-21.629-79.33-14.414-65.05-34.402-220.77-19.051-284.983 20.215-84.551 44.641-160.516 66.59-244.176 24.563-93.625 15.469-138.363 73.293-157.961 19.957-6.766 47.352-7.36 67.293.898 51.895 21.496 46.905 53.266 63.785 79.793 6.26 9.852.38-4.402 4.78 7.598-8.78 42.363-16.18 80.195-16.89 125.922-.72 46.773 3.39 91.109 3.02 137.867-.08 9.453-2.71 22.762 1.71 29.012 4.99 7.047 16.78 8.234 22.71-.075 5.65-7.917 3.77-57.48 3.08-70.089-2.57-47.032-4.21-94.684-.19-140.68 13.18-150.852 102.12-292.75 72.28-501.602l22.79 29.207c42.82 57.989 24.53 38.239 30.17 123.11 10.3 155.062 38.9 307.773 39.31 463.605.07 24.68-7.54 75.571-.74 90.805 33.68 4.211 25.35-21.418 27.51-55.383 5.27-82.562-9.3-157.055-9.93-235.351 38.1-25.469 61.77-50.379 123.02-36.875 25.06 5.527 38.08 15.64 54.17 28.07 11.29 8.719 14.61 6.848 16.36 24.922 3.72 38.504 4.47 165.867 4.85 207.312.47 49.965.38 113.394 5.18 163.254 40.76 24.75 26.3-43.96 25.64-69.586-2.84-111.449-8.88-224.719-8.77-335.394 17.82 25.082 46.19 118.488 143.41 123.011 13.98.653 28.16-.894 40.64-4.875 17.94-5.718 18.34-9.281 12.94-26.609-26.02-6.586-81.86 31.117-143.6-52.687-16.99-23.059-56.06-116.926-59.38-148.602-19.23-183.398-68.97-236.723-79.36-339.859-2.49-24.704-3.7-76.918 12.18-90.868 18.23-16.015 53.22-24.539 81.93-25.015 94.71-1.57 146.64 55.324 206.3 105.797 65.41 55.34 90.22 118.031 109.9 206.382 66.92 300.481 39.21 520.336-136.72 735.975-35.14 43.07-69.71 86.25-107.78 126.56l-84.83 96.43c30.17 13.05 56.35 25.22 65.43 29.82 114.74 58.15 233.74 147.73 312.63 243.22 15.7 19 64.15 73.93 69.22 92.09-10.24 21.35-23.74 12.66-41.49 3.46zm-512.26-233.27-.21-.43-.22-.42-.39-.76-.49-.92-.21-.4-.24-.43-.65-1.17-.22-.39-.03-.06-.2-.32-.75-1.27-.23-.37-.82-1.3-.13-.2-.1-.15-.02-.03-.86-1.28-.03-.04-.06-.09-.08-.11c-.31-.43-.62-.86-.93-1.28l-.08-.11h-.01l-.07-.1-.89-1.13-.27-.33c-.31-.38-.64-.75-.95-1.11l-.02-.03c-.35-.38-.7-.75-1.05-1.1l-.02-.03-.03-.03-.06-.06c-.34-.33-.68-.65-1.02-.96l-.04-.05-.04-.03c-.36-.32-.72-.62-1.08-.91l-.02-.01c-.75-.59-1.5-1.1-2.25-1.53-44.01-24.85-101.19-21.58-145.08-30.61l-.05.96-.01.07-.02.89v.15l-.01.83v.06l.01.86v.09l.03.77.01.19.01.37.02.27.05.71.01.2.06.78.02.19.05.5.06.59.02.14.11.92.01.05c.09.67.18 1.34.29 2.01l.03.18.03.2.16.91.02.14.19.98.01.06.21 1.05v.02l.23 1.03.02.09.22.96.04.18.21.89.06.25.21.81.08.33.2.73.11.41.18.66.14.49.29 1.04.04.11.14.51.2.64.13.44.22.72.11.36.25.8.09.28.29.88.38 1.16.04.13.35 1.04.02.04.37 1.08.01.04.37 1.05.04.11.34.97.07.2.32.89.1.27.3.81.12.35.43 1.16.24.66.19.51.22.57.22.59.19.49.25.67.16.41.28.74.12.34.31.81.1.26.35.9.44 1.14.03.1.4 1.05.01.02.4 1.06.03.06.38 1 .05.13.35.92.08.21.32.85.11.28.29.77.13.35.26.68.16.44.22.6.19.51.19.53.21.57.16.46.24.64.13.38v.01c.37 1.01.72 2.02 1.05 3.01l.31.93.03.07.32.98v.01l.32.98.02.07.28.9.04.14.25.83.06.21.22.75.09.27.18.68c.41 1.47.77 2.91 1.07 4.3 9.85 45.42 3.86 31.54 6.91 71.17 27.68.28 138.84 31.54 155.19 32.1 6.93-23.02-4.78-90.37-21.94-124.61zm-160.33 11.32-.32-1.19-.31-1.19-.32-1.19-.01-.01-.64-2.35-.32-1.17-.02-.06-.31-1.12-.33-1.16-.3-1.04-.03-.12-.34-1.16-.12-.4-.22-.76-.33-1.15-.17-.56-.18-.58-.34-1.14-.22-.72-.13-.41-.34-1.12-.35-1.13-.35-1.1-.33-1.03-.02-.08-.36-1.1-.7-2.17-.36-1.08-1.07-3.15-.01-.03-.36-1.04-.36-1.03-.36-1.02-.24-.67-.13-.34-.36-1.01-.29-.8-.07-.19-.37-.98-.34-.93-.02-.04-.37-.96-.36-.95-.03-.09-.33-.85-.37-.92-.09-.23-.27-.69-.37-.9-.14-.35-.22-.54-.37-.87-.2-.47-.16-.39-.37-.85-.24-.58-.12-.26-.66-1.49-.07-.14-.36-.79-.35-.76-.01-.02-.04-.08-.62-1.33-.06-.11-.04-.09-.32-.64-.35-.71-.1-.2-.09-.18c-.43-.86-.87-1.68-1.3-2.47l-.28-.5-.35-.62-.24-.43-.1-.17c-.47-.79-.93-1.53-1.38-2.23-14.22-2.34-124.22-.47-132.21 13.67-26.79 47.45-41.59 78.89-39.21 133.47 11.3 4.01 15.59.93 26.79-.3 9.51-1.05 15.36-1.79 24.99-3.04 14.96-1.95 33.73-4.61 50.19-4.91 23.81-.43 87.15 4.29 102.22-1.78 2.41-16.39-2.67-47.59-10.29-76.73zm-249.222 563.59c-11.332 2.47-30.55-21.33-34.16-76.41-1.543-23.47 17.375-76.51 39.91-68.01 61.512 23.22 25.586 137.61-5.75 144.42zm40.953 22.17c150.719-52.84 84.199-238.68-100.285-178.1-131.73 43.26-35.301 225.64 100.285 178.1zm377.989-49.35c11.59.55 26.59-26.1 21.03-81.02-2.37-23.4-29.81-72.57-50.62-60.46-56.82 33.09-2.44 139.95 29.59 141.48zm-36.71 28.65c-157.39-27.14-122.58-221.44 69.39-192.26 137.08 20.84 72.2 216.67-69.39 192.26zM573.867 1858.8c9.117-5.11 29.672-32.98 36.379-42.71 14.125-20.5 7.399-28.84 4.434-47.33-2.442-15.22-.86-30.29 1.328-47.74 1.699-13.6 7-35.96 5.637-48.09-22.899 9.95-56.012 65.29-64.02 94.52-9.371 34.19-5.508 69.09 16.242 91.35zm62.84-75.53c11.051-3.6 33.113-25.7 45.371-35.17 28.949-22.33 21.285-13.4 21.52-47 .289-41.9 25.125-98.24 26.664-117.81-118.805 47.71-108.012 185.11-93.555 199.98zm233.008 57.99c22.226-3.42 107.015-35.45 130.875-57.38-12.203.19-21.918 7.87-34.047 13l-65.129 28.73c-11.098 4.8-23.203 9.43-31.699 15.65zm-11.488-58.62c32.699.44 120.336-12.02 139.765-25.44-12.39-1.18-23.105 2.28-34.722 4.71-10.973 2.29-24.102 3.65-35.02 5.85zm13.363-64.05-6.516-.25c.629 1.26-9.359 2.94 4.465 2.55 39.258 12.68 102.637 22.74 136.341 16.36-16.349-5.9-49.232-7.71-67.192-9.89-21.543-2.6-47.426-3.85-67.098-8.77zm-53.031-51.77c-4.403-44.06 11.093-96.62 31.781-142.68-16.317.09-87.934 33.54-97.332 50.17-21.621 38.25-31.727 101.07-34.348 141.26 26.254-3.57 68.598-43.27 99.899-48.75zm351.441 53.8c-37.58-21.2-23.94-42.09-51.53-57.69-24.24-13.71-45.88 32.54-53.72 50.42-5.23 12.11-30.37 17.94-38.36 32.17-6.82 12.12-7.57 24.33 4.34 31.07 19.24 10.86 33.72 1.34 50.09-1.78 43.68-8.33 83.98.56 96.58-9.42 19.46-15.43 10.88-34.46-7.4-44.77zm-176.711-111.53c-3.117-54.43 12.751-81.47 38.181-139.11-27.91 1.07-81.747 14.4-108.032 25.13-12.176 4.98-20.75 5.66-33.368 11.66-49.164 23.41-60.425 129.68-54.32 150.44l117.688-38.71c15.804-3.86 24.078-3.5 39.851-9.41zm209.571 154.54c27.99 18.74 106 32.83 135.45 34.36-14.94-7.15-121.82-33.7-135.45-34.36zm1.97-25.82c26.52 5.33 45.9 4.89 71.23 5.08l68.03-7.26c-19.93-2.52-125.6-1.88-139.26 2.18zm1.42-23.38c-10.31.83-3.11-2.4-11.74 4.76 14.59 5.96 5.97 1.79 10.22-.77 7.76.26 28.28-3.49 35.21-5.29 14.18-3.67 20.2-6.87 33.37-11.5 16.08-5.65 49.23-15.89 63.28-25.73-13.24 2.05-52.46 13.16-65.23 18.85-19.93 8.88-44.67 11.15-65.11 19.68zm462.38 204.55c20.59-41.41 30.98-138.48 5.29-170.31-4.69 12.97-29.16 82.96-29.06 92.43.08 7.42 14.63 70.72 23.77 77.88zm-34.27-94.22c4.68-17.88 14.85-34.15 19.66-55.02 14.89-64.55-4.08-89.81-49.36-136.73-2.77 13.47.75 32.72.74 49.24-.05 51.51-20.27 74.06-1.46 103.62 5.72 8.98 22.37 32.87 30.42 38.89zm-139-144.1c4.45-33.21-.25-90.9-8.57-115.92-7.07-21.26-14.58-33.25-41.05-46.58-14.94-7.53-52.87-23.27-64.03-22.8-1.63 17.04 15.13 49.14 18.82 69.78 8.7 48.64 2.78 34.84 3.02 72.53zm83.75 69.17c12.48-37.45 12.38-76.38 8.67-109.89-3.78-34.24-39.3-66.81-83.71-86.44-2.27 15.65 4.61 38.5 6.6 54.1 9.39 73.7-16.49 71.91 22.12 103.6 11.67 9.58 34.77 32.17 46.32 38.63zM1107.18 153.969c10.2 4.613 9.61 1.679 9.84 15.136zM974.434 505.453c-24.871 0-49.883 11.094-68.098 18.336.215-15.258 5.641-35.207 8.203-50.101a1217.746 1217.746 0 0 0 4.074-25.25c2.231-14.672-.211-14.969 10.102-22.36 47.09-33.754 96.175-47.226 152.985-23.308l37.37 22.14c-3.45 23.731-17.21 114.801-27.48 128.172-34.02-28.793-63.62-47.629-117.156-47.629zm360.316-143.515c26.75.023 66.13 11.558 74.43 26.343 10.5 18.703 34.08 142.196 31.75 170.653-46.35-12.157-33.76-10.989-82.74-10.989-41.88 0-81.77 8.965-117.18 21.239-11.07-120.711-38.1-162.633 26.42-191.129 13.64-6.024 49.66-16.141 67.32-16.117zm411.14-157.598-3.55-10.016 11.2-4.32c68.59-23.973 185.72-22.316 247.52 7.019 1.31 11.454-15.13 41.051-20.96 53.829l-25.18 52.32c-34.63 79.383-19.33 39.891-38.49 110.621l-44.95-7.73c-82.19-9.793-27.98-10.45-65.29-117.02-6.69-19.094-15.8-34.98-27.14-48.832-9.52-11.633-25.66-24.848-33.16-35.871zm-603.01-54.801c.01-37.121-1.8-29.844 17.64-45.336 8.32-6.637 16.68-12.828 27.76-16.91 0 21.727.29 40.289 5.57 59.777 4.59 16.934 15.69 41.016 30.31 20.047 5.95-10.824-13.16-35.472-4.9-91.652 52.5-8.235 62.79-16.356 62.77 41.851-.01 19.004-14.46 52.739 6.12 55.493 31.76 4.25 19.93-76.243 17.76-94.348 28.57 7.844 49.65 22.445 64 38.855-16.71 94.036-10.75 80.973 8.79 180.161-48.51-21.051-116.09-.536-158.2 21.238-18.13-30.11-63.59-79.309-70.59-113.067-3-14.519-7.02-41.207-7.03-56.109zm868.47 310.859c54.78-65.539 43.83-61.043 83.71-132.093l32.92-89.336c42.59 1.097 157.38 87.742 174.12 123.347-49.33 25.09-130.52 89.082-170.78 128.809-10.87 10.727-39.86 42.121-49.89 46.832-11.71-7.219-60.79-62.855-70.08-77.559zM880.68 138.555c3.636 5.406 10.847 46.984 17.66 60.675 30.922 62.098 60.402 32.348 42.652 10.293-6.183-7.687-8.617-8.453-14.297-18.128-16.027-27.286-16.886-45.344-14.019-74.829 27.496-9.875 33.367-10.968 66.137-10.968-4.629 37.828-6.004 61.539 9.507 100.332 8.45 21.109 12.23 37.031 35.91 26.367 4.15-26.395-20.4-40.121-20.5-88.613l2.84-35.164c34.91 6.043 47.1 11.085 59.88 31.062 43.69 68.309 57.4 129.859 57.38 215.738-36.17-7.937-35.77-24.156-111.31-24.156-34.395 0-54.918 14.27-80.54 23.438-.101-89.497-39.191-70.567-64.824-162.325-9.523-34.101-1.84-33.589 13.524-53.722zm-35.141 85.297c4.125 3.789 22.176 41.242 28.078 49.945 10.09 14.871 24.75 29.969 29.11 50.125 10.461 48.383-54.286 346-73.289 398.336-24.079-37.313-50.461-61.11-70.575-108.227-40.976-95.996-48.035-202.523-1.402-297.601 18.574-37.887 49.062-79.098 88.078-92.578zm1265.841 420.75c18.06-22.539 85.48-45.211 132.7-77.114 125.83-85.008 104.81-172.406 208.72-32.976 25.9 34.742 59.88 102.004 60.92 144.148 1.81 73.977-182.17 131.004-256.25 147.102-22.68 4.929-48.52 9.164-71.31 8.554-47.41-1.273-29.81-26.199-28.09-44.382 4.55-47.938-14.96-105.797-46.69-145.332zm-86.18 655.828c48.3 66.15 90.34 117.48 164.94 150.13 25.66 11.22 74.53 24.14 102.19 29.94 18.22 3.82 35.12 5.89 55.89 6.46 11.84.32 48.56-1.91 56.8 2.18-4.65 33.81-52.25 67.65-79.63 86.01-41.02 27.52-85.95 48.46-136.94 64.19-107.03 33-262.19 13.18-344.72-63.64-78.33-72.92-10.17-163.43 65.93-199.47 22.41-10.61 38.93-22.81 59.75-35.55 36.09-22.08 35.39-33.18 55.79-40.25zm98.43-313.032c10.11 1.395 13.25-.332 26.01 2.586 160.31 36.616 233.12 17.216 374.24-96.625 36.69-29.605 28.21-41.078 49.72 13.879 20.16 51.528 13.16 160.502 8.52 210.592-3.12 33.64-9.77 67.37-17.65 96.22-11.71 42.85-23.34 64.53-69.64 82.65-85.94 33.64-255.35-23.47-307.56-46.34-76.57-33.55-97.36-44.16-96.71-112.28.32-34.37 21.87-112.63 33.07-150.682" transform="matrix(.13333 0 0 -.13333 0 464)"/></svg>