<?xml version="1.0" encoding="us-ascii" standalone="no"?><svg xmlns="http://www.w3.org/2000/svg" xmlns:xlink="http://www.w3.org/1999/xlink" contentStyleType="text/css" height="786px" preserveAspectRatio="none" style="width:1094px;height:786px;background:#FEFEFE;" version="1.1" viewBox="0 0 1094 786" width="1094px" zoomAndPan="magnify"><defs/><g><rect fill="#FEFEFE" height="786" style="stroke:none;stroke-width:1.0;" width="1094" x="0" y="0"/><!--cluster pool0--><g id="cluster_pool0"><rect fill="none" height="206.69" rx="25" ry="25" style="stroke:#181818;stroke-width:1.0;" width="362" x="228" y="243.7"/><text fill="#000000" font-family="sans-serif" font-size="14" font-weight="bold" lengthAdjust="spacing" textLength="29.75" x="394.125" y="260.6659">Pool</text></g><!--cluster pool1--><g id="cluster_pool1"><rect fill="none" height="196.69" rx="25" ry="25" style="stroke:#181818;stroke-width:1.0;" width="362" x="630" y="347.05"/><text fill="#000000" font-family="sans-serif" font-size="14" font-weight="bold" lengthAdjust="spacing" textLength="29.75" x="796.125" y="364.0159">Pool</text></g><!--cluster pool2--><g id="cluster_pool2"><rect fill="none" height="196.7" rx="25" ry="25" style="stroke:#181818;stroke-width:1.0;" width="362" x="139" y="583.74"/><text fill="#000000" font-family="sans-serif" font-size="14" font-weight="bold" lengthAdjust="spacing" textLength="143.4375" x="248.2813" y="600.7059">Commissioning Pool</text></g><!--cluster pool3--><g id="cluster_pool3"><rect fill="none" height="196.7" rx="25" ry="25" style="stroke:#181818;stroke-width:1.0;" width="362" x="712" y="7"/><text fill="#000000" font-family="sans-serif" font-size="14" font-weight="bold" lengthAdjust="spacing" textLength="84.8125" x="850.5938" y="23.9659">Unallocated</text></g><g id="elem_node0"><ellipse cx="309.0028" cy="306.3744" fill="#F1F1F1" rx="37.4228" ry="16.6744" style="stroke:#181818;stroke-width:0.5;"/><text fill="#000000" font-family="sans-serif" font-size="14" lengthAdjust="spacing" textLength="36" x="288.0028" y="311.1073">Node</text></g><g id="elem_node1"><ellipse cx="419.0028" cy="306.3744" fill="#F1F1F1" rx="37.4228" ry="16.6744" style="stroke:#181818;stroke-width:0.5;"/><text fill="#000000" font-family="sans-serif" font-size="14" lengthAdjust="spacing" textLength="36" x="398.0028" y="311.1073">Node</text></g><g id="elem_node2"><ellipse cx="529.0028" cy="306.3744" fill="#F1F1F1" rx="37.4228" ry="16.6744" style="stroke:#181818;stroke-width:0.5;"/><text fill="#000000" font-family="sans-serif" font-size="14" lengthAdjust="spacing" textLength="36" x="508.0028" y="311.1073">Node</text></g><g id="elem_node3"><ellipse cx="529.0028" cy="409.7244" fill="#F1F1F1" rx="37.4228" ry="16.6744" style="stroke:#181818;stroke-width:0.5;"/><text fill="#000000" font-family="sans-serif" font-size="14" lengthAdjust="spacing" textLength="36" x="508.0028" y="414.4573">Node</text></g><g id="elem_node4"><ellipse cx="309.0028" cy="409.7244" fill="#F1F1F1" rx="37.4228" ry="16.6744" style="stroke:#181818;stroke-width:0.5;"/><text fill="#000000" font-family="sans-serif" font-size="14" lengthAdjust="spacing" textLength="36" x="288.0028" y="414.4573">Node</text></g><g id="elem_node5"><ellipse cx="419.0028" cy="409.7244" fill="#F1F1F1" rx="37.4228" ry="16.6744" style="stroke:#181818;stroke-width:0.5;"/><text fill="#000000" font-family="sans-serif" font-size="14" lengthAdjust="spacing" textLength="36" x="398.0028" y="414.4573">Node</text></g><g id="elem_node6"><ellipse cx="931.0028" cy="409.7244" fill="#F1F1F1" rx="37.4228" ry="16.6744" style="stroke:#181818;stroke-width:0.5;"/><text fill="#000000" font-family="sans-serif" font-size="14" lengthAdjust="spacing" textLength="36" x="910.0028" y="414.4573">Node</text></g><g id="elem_node7"><ellipse cx="711.0028" cy="409.7244" fill="#F1F1F1" rx="37.4228" ry="16.6744" style="stroke:#181818;stroke-width:0.5;"/><text fill="#000000" font-family="sans-serif" font-size="14" lengthAdjust="spacing" textLength="36" x="690.0028" y="414.4573">Node</text></g><g id="elem_node8"><ellipse cx="821.0028" cy="409.7244" fill="#F1F1F1" rx="37.4228" ry="16.6744" style="stroke:#181818;stroke-width:0.5;"/><text fill="#000000" font-family="sans-serif" font-size="14" lengthAdjust="spacing" textLength="36" x="800.0028" y="414.4573">Node</text></g><g id="elem_node9"><ellipse cx="821.0028" cy="503.0744" fill="#F1F1F1" rx="37.4228" ry="16.6744" style="stroke:#181818;stroke-width:0.5;"/><text fill="#000000" font-family="sans-serif" font-size="14" lengthAdjust="spacing" textLength="36" x="800.0028" y="507.8073">Node</text></g><g id="elem_node10"><ellipse cx="931.0028" cy="503.0744" fill="#F1F1F1" rx="37.4228" ry="16.6744" style="stroke:#181818;stroke-width:0.5;"/><text fill="#000000" font-family="sans-serif" font-size="14" lengthAdjust="spacing" textLength="36" x="910.0028" y="507.8073">Node</text></g><g id="elem_node11"><ellipse cx="711.0028" cy="503.0744" fill="#F1F1F1" rx="37.4228" ry="16.6744" style="stroke:#181818;stroke-width:0.5;"/><text fill="#000000" font-family="sans-serif" font-size="14" lengthAdjust="spacing" textLength="36" x="690.0028" y="507.8073">Node</text></g><g id="elem_node12"><ellipse cx="220.0028" cy="646.4244" fill="#F1F1F1" rx="37.4228" ry="16.6744" style="stroke:#181818;stroke-width:0.5;"/><text fill="#000000" font-family="sans-serif" font-size="14" lengthAdjust="spacing" textLength="36" x="199.0028" y="651.1573">Node</text></g><g id="elem_node13"><ellipse cx="330.0028" cy="646.4244" fill="#F1F1F1" rx="37.4228" ry="16.6744" style="stroke:#181818;stroke-width:0.5;"/><text fill="#000000" font-family="sans-serif" font-size="14" lengthAdjust="spacing" textLength="36" x="309.0028" y="651.1573">Node</text></g><g id="elem_node14"><ellipse cx="440.0028" cy="646.4244" fill="#F1F1F1" rx="37.4228" ry="16.6744" style="stroke:#181818;stroke-width:0.5;"/><text fill="#000000" font-family="sans-serif" font-size="14" lengthAdjust="spacing" textLength="36" x="419.0028" y="651.1573">Node</text></g><g id="elem_node15"><ellipse cx="220.0028" cy="739.7744" fill="#F1F1F1" rx="37.4228" ry="16.6744" style="stroke:#181818;stroke-width:0.5;"/><text fill="#000000" font-family="sans-serif" font-size="14" lengthAdjust="spacing" textLength="36" x="199.0028" y="744.5073">Node</text></g><g id="elem_node16"><ellipse cx="330.0028" cy="739.7744" fill="#F1F1F1" rx="37.4228" ry="16.6744" style="stroke:#181818;stroke-width:0.5;"/><text fill="#000000" font-family="sans-serif" font-size="14" lengthAdjust="spacing" textLength="36" x="309.0028" y="744.5073">Node</text></g><g id="elem_node17"><ellipse cx="440.0028" cy="739.7744" fill="#F1F1F1" rx="37.4228" ry="16.6744" style="stroke:#181818;stroke-width:0.5;"/><text fill="#000000" font-family="sans-serif" font-size="14" lengthAdjust="spacing" textLength="36" x="419.0028" y="744.5073">Node</text></g><g id="elem_node18"><ellipse cx="793.0028" cy="69.6744" fill="#F1F1F1" rx="37.4228" ry="16.6744" style="stroke:#181818;stroke-width:0.5;"/><text fill="#000000" font-family="sans-serif" font-size="14" lengthAdjust="spacing" textLength="36" x="772.0028" y="74.4073">Node</text></g><g id="elem_node19"><ellipse cx="903.0028" cy="69.6744" fill="#F1F1F1" rx="37.4228" ry="16.6744" style="stroke:#181818;stroke-width:0.5;"/><text fill="#000000" font-family="sans-serif" font-size="14" lengthAdjust="spacing" textLength="36" x="882.0028" y="74.4073">Node</text></g><g id="elem_node20"><ellipse cx="1013.0028" cy="69.6744" fill="#F1F1F1" rx="37.4228" ry="16.6744" style="stroke:#181818;stroke-width:0.5;"/><text fill="#000000" font-family="sans-serif" font-size="14" lengthAdjust="spacing" textLength="36" x="992.0028" y="74.4073">Node</text></g><g id="elem_node21"><ellipse cx="793.0028" cy="163.0244" fill="#F1F1F1" rx="37.4228" ry="16.6744" style="stroke:#181818;stroke-width:0.5;"/><text fill="#000000" font-family="sans-serif" font-size="14" lengthAdjust="spacing" textLength="36" x="772.0028" y="167.7573">Node</text></g><g id="elem_node22"><ellipse cx="903.0028" cy="163.0244" fill="#F1F1F1" rx="37.4228" ry="16.6744" style="stroke:#181818;stroke-width:0.5;"/><text fill="#000000" font-family="sans-serif" font-size="14" lengthAdjust="spacing" textLength="36" x="882.0028" y="167.7573">Node</text></g><g id="elem_node23"><ellipse cx="1013.0028" cy="163.0244" fill="#F1F1F1" rx="37.4228" ry="16.6744" style="stroke:#181818;stroke-width:0.5;"/><text fill="#000000" font-family="sans-serif" font-size="14" lengthAdjust="spacing" textLength="36" x="992.0028" y="167.7573">Node</text></g><!--link node0 to node1--><!--link node1 to node2--><!--link node3 to node4--><!--link node4 to node5--><!--link node0 to node3--><!--link node1 to node4--><!--link node2 to node5--><!--link node6 to node7--><!--link node7 to node8--><!--link node9 to node10--><!--link node10 to node11--><!--link node6 to node9--><!--link node7 to node10--><!--link node8 to node11--><!--link node12 to node13--><!--link node13 to node14--><!--link node15 to node16--><!--link node16 to node17--><!--link node12 to node15--><!--link node13 to node16--><!--link node14 to node17--><!--link node18 to node19--><!--link node19 to node20--><!--link node21 to node22--><!--link node22 to node23--><!--link node18 to node21--><!--link node19 to node22--><!--link node20 to node23--><!--link node0 to node12--><g id="link_node0_node12"><path d="M282.85,318.52 C277.98,320.26 272.89,321.87 268,323.05 C251.7,326.96 204.21,318.58 193,331.05 C114.63,418.22 183.4396,573.9771 209.0196,624.4971 " fill="none" id="node0-to-node12" style="stroke:#181818;stroke-width:1.0;"/><polygon fill="#181818" points="211.73,629.85,211.2331,620.0137,209.4714,625.3892,204.0958,623.6275,211.73,629.85" style="stroke:#181818;stroke-width:1.0;"/></g><!--link node1 to node13--><g id="link_node1_node13"><path d="M389.29,317.04 C381.17,319.35 372.31,321.57 364,323.05 C351.93,325.18 262.35,322.07 254,331.05 C171.98,419.25 277.1602,575.5499 314.5902,625.4599 " fill="none" id="node1-to-node13" style="stroke:#181818;stroke-width:1.0;"/><polygon fill="#181818" points="318.19,630.26,315.9903,620.6599,315.1901,626.2599,309.5902,625.4597,318.19,630.26" style="stroke:#181818;stroke-width:1.0;"/></g><!--link node3 to node14--><g id="link_node3_node14"><path d="M523.02,426.48 C506.81,469.24 464.2573,581.4398 448.0773,624.1098 " fill="none" id="node3-to-node14" style="stroke:#181818;stroke-width:1.0;"/><polygon fill="#181818" points="445.95,629.72,452.8811,622.7229,447.7228,625.0448,445.4009,619.8865,445.95,629.72" style="stroke:#181818;stroke-width:1.0;"/></g><!--link node7 to node15--><g id="link_node7_node15"><path d="M700.23,426.13 C692.17,437.47 680.73,453.15 670,466.39 C633.17,511.85 544.72,632.26 495,663.09 C408.86,716.49 372.62,695.87 275,723.09 C267.16,725.28 264.4694,726.0226 256.5894,728.2726 " fill="none" id="node7-to-node15" style="stroke:#181818;stroke-width:1.0;"/><polygon fill="#181818" points="250.82,729.92,260.5724,731.2952,255.6278,728.5472,258.3759,723.6027,250.82,729.92" style="stroke:#181818;stroke-width:1.0;"/></g><!--link node9 to node16--><g id="link_node9_node16"><path d="M808.32,518.79 C797.71,530.63 781.79,547.29 766,559.74 C696.26,614.72 676.41,627.62 595,663.09 C594.31,663.39 436.3,708.4545 366.59,728.3345 " fill="none" id="node9-to-node16" style="stroke:#181818;stroke-width:1.0;"/><polygon fill="#181818" points="360.82,729.98,370.5719,731.3584,365.6283,728.6088,368.3779,723.6651,360.82,729.98" style="stroke:#181818;stroke-width:1.0;"/></g><!--link node10 to node17--><g id="link_node10_node17"><path d="M918.37,518.84 C907.77,530.72 891.87,547.39 876,559.74 C804.41,615.45 783.3,627.17 700,663.09 C621.65,696.88 529.5603,719.503 479.2003,730.563 " fill="none" id="node10-to-node17" style="stroke:#181818;stroke-width:1.0;"/><polygon fill="#181818" points="473.34,731.85,482.9885,733.8263,478.2236,730.7775,481.2725,726.0126,473.34,731.85" style="stroke:#181818;stroke-width:1.0;"/></g><!--link node18 to node0--><g id="link_node18_node0"><path d="M766.3,81.58 C761.58,83.31 756.68,84.98 752,86.35 C626.54,123.14 582.06,90.17 464,146.35 C412.27,170.97 403.14,185.85 364,227.7 C345.6,247.37 331.4828,268.3751 321.3728,284.7451 " fill="none" id="node18-to-node0" style="stroke:#181818;stroke-width:1.0;"/><polygon fill="#181818" points="318.22,289.85,326.3524,284.2945,320.8473,285.5959,319.5459,280.0908,318.22,289.85" style="stroke:#181818;stroke-width:1.0;"/></g><!--link node19 to node1--><g id="link_node19_node1"><path d="M873.19,80.04 C829.78,93.83 746.72,120.73 677,146.35 C585.77,179.87 550.31,167.5 474,227.7 C452.46,244.68 438.5207,266.9885 429.4207,284.3085 " fill="none" id="node19-to-node1" style="stroke:#181818;stroke-width:1.0;"/><polygon fill="#181818" points="426.63,289.62,434.357,283.5132,428.9556,285.1937,427.275,279.7923,426.63,289.62" style="stroke:#181818;stroke-width:1.0;"/></g><!--link node20 to node3--><g id="link_node20_node3"><path d="M982.18,79.52 C974.3,81.77 965.84,84.16 958,86.35 C860.38,113.57 822.65,90.62 738,146.35 C685.71,180.77 577.2064,337.4634 542.7064,388.3634 " fill="none" id="node20-to-node3" style="stroke:#181818;stroke-width:1.0;"/><polygon fill="#181818" points="539.34,393.33,547.7007,388.1243,542.1453,389.1911,541.0785,383.6358,539.34,393.33" style="stroke:#181818;stroke-width:1.0;"/></g><!--link node21 to node7--><g id="link_node21_node7"><path d="M787.75,179.7 C772.97,223.79 733.0766,342.851 718.2266,387.161 " fill="none" id="node21-to-node7" style="stroke:#181818;stroke-width:1.0;"/><polygon fill="#181818" points="716.32,392.85,722.9726,385.5876,717.9088,388.1092,715.3872,383.0454,716.32,392.85" style="stroke:#181818;stroke-width:1.0;"/></g><!--link node22 to node9--><g id="link_node22_node9"><path d="M915.53,179.21 C953.5,227.16 1060.3,377.37 986,466.39 C970.08,485.47 900.2,480.76 876,486.39 C867.97,488.26 865.1419,488.9313 857.1819,491.1913 " fill="none" id="node22-to-node9" style="stroke:#181818;stroke-width:1.0;"/><polygon fill="#181818" points="851.41,492.83,861.1603,494.2198,856.2199,491.4644,858.9753,486.524,851.41,492.83" style="stroke:#181818;stroke-width:1.0;"/></g><!--link node23 to node10--><g id="link_node23_node10"><path d="M1019.45,179.62 C1038.14,227.48 1087.09,374.62 1024,466.39 C1011.26,484.92 993.3513,492.5939 973.0213,496.8739 " fill="none" id="node23-to-node10" style="stroke:#181818;stroke-width:1.0;"/><polygon fill="#181818" points="967.15,498.11,976.781,500.1701,972.0427,497.0799,975.1329,492.3417,967.15,498.11" style="stroke:#181818;stroke-width:1.0;"/></g><!--link pool0 to pool1--><!--link pool0 to pool2--><!--link pool2 to pool3--><!--link pool1 to pool3--><!--SRC=[TT2x3i8W503GdQ-WZODDn01LQnSN_G0N9-FG5A8a58njO_nxUMXw6oi38OVxWaIPMlT2uhPxQRbKVQDHyZNng9vtQtLaX6O71qS7yzJlwGBJR0BP2FUsQLJRAckKkU9F21-5d4objQshJWftbsUk5J9MI8e98JliZum7OK3o83cGLP02o3f82MGJwy3IHUp6jeFHA30n20TviJy78nLH-21b53WaTO_pd-egdMzA26akX60lx8_puFp7y-1imjrw0m00]--></g></svg>