<?xml version="1.0" encoding="us-ascii" standalone="no"?><svg xmlns="http://www.w3.org/2000/svg" xmlns:xlink="http://www.w3.org/1999/xlink" contentStyleType="text/css" height="874px" preserveAspectRatio="none" style="width:1118px;height:874px;background:#FEFEFE;" version="1.1" viewBox="0 0 1118 874" width="1118px" zoomAndPan="magnify"><defs/><g><rect fill="#FEFEFE" height="874" style="stroke:none;stroke-width:1.0;" width="1118" x="0" y="0"/><!--cluster pool0--><g id="cluster_pool0"><rect fill="none" height="197.7" rx="25" ry="25" style="stroke:#181818;stroke-width:1.0;" width="362" x="7" y="7"/><text fill="#000000" font-family="sans-serif" font-size="14" font-weight="bold" lengthAdjust="spacing" textLength="29.75" x="173.125" y="23.9659">Pool</text></g><!--cluster pool1--><g id="cluster_pool1"><rect fill="none" height="215.69" rx="25" ry="25" style="stroke:#181818;stroke-width:1.0;" width="362" x="82" y="406.05"/><text fill="#000000" font-family="sans-serif" font-size="14" font-weight="bold" lengthAdjust="spacing" textLength="94.8125" x="215.5938" y="423.0159">Merging Pool</text></g><!--cluster pool2--><g id="cluster_pool2"><rect fill="none" height="255.69" rx="25" ry="25" style="stroke:#181818;stroke-width:1.0;" width="362" x="750" y="253.7"/><text fill="#000000" font-family="sans-serif" font-size="14" font-weight="bold" lengthAdjust="spacing" textLength="146.875" x="857.5625" y="270.6659">Decomissioning Pool</text></g><!--cluster pool3--><g id="cluster_pool3"><rect fill="none" height="197.7" rx="25" ry="25" style="stroke:#181818;stroke-width:1.0;" width="362" x="479" y="670.74"/><text fill="#000000" font-family="sans-serif" font-size="14" font-weight="bold" lengthAdjust="spacing" textLength="84.8125" x="617.5938" y="687.7059">Unallocated</text></g><g id="elem_node0"><ellipse cx="68.0028" cy="69.6744" fill="#F1F1F1" rx="37.4228" ry="16.6744" style="stroke:#181818;stroke-width:0.5;"/><text fill="#000000" font-family="sans-serif" font-size="14" lengthAdjust="spacing" textLength="36" x="47.0028" y="74.4073">Node</text></g><g id="elem_node1"><ellipse cx="178.0028" cy="69.6744" fill="#F1F1F1" rx="37.4228" ry="16.6744" style="stroke:#181818;stroke-width:0.5;"/><text fill="#000000" font-family="sans-serif" font-size="14" lengthAdjust="spacing" textLength="36" x="157.0028" y="74.4073">Node</text></g><g id="elem_node2"><ellipse cx="288.0028" cy="69.6744" fill="#F1F1F1" rx="37.4228" ry="16.6744" style="stroke:#181818;stroke-width:0.5;"/><text fill="#000000" font-family="sans-serif" font-size="14" lengthAdjust="spacing" textLength="36" x="267.0028" y="74.4073">Node</text></g><g id="elem_node3"><ellipse cx="68.0028" cy="164.0244" fill="#F1F1F1" rx="37.4228" ry="16.6744" style="stroke:#181818;stroke-width:0.5;"/><text fill="#000000" font-family="sans-serif" font-size="14" lengthAdjust="spacing" textLength="36" x="47.0028" y="168.7573">Node</text></g><g id="elem_node4"><ellipse cx="178.0028" cy="164.0244" fill="#F1F1F1" rx="37.4228" ry="16.6744" style="stroke:#181818;stroke-width:0.5;"/><text fill="#000000" font-family="sans-serif" font-size="14" lengthAdjust="spacing" textLength="36" x="157.0028" y="168.7573">Node</text></g><g id="elem_node5"><ellipse cx="288.0028" cy="164.0244" fill="#F1F1F1" rx="37.4228" ry="16.6744" style="stroke:#181818;stroke-width:0.5;"/><text fill="#000000" font-family="sans-serif" font-size="14" lengthAdjust="spacing" textLength="36" x="267.0028" y="168.7573">Node</text></g><g id="elem_node6"><ellipse cx="143.0028" cy="468.7244" fill="#F1F1F1" rx="37.4228" ry="16.6744" style="stroke:#181818;stroke-width:0.5;"/><text fill="#000000" font-family="sans-serif" font-size="14" lengthAdjust="spacing" textLength="36" x="122.0028" y="473.4573">Node</text></g><g id="elem_node7"><ellipse cx="253.0028" cy="468.7244" fill="#F1F1F1" rx="37.4228" ry="16.6744" style="stroke:#181818;stroke-width:0.5;"/><text fill="#000000" font-family="sans-serif" font-size="14" lengthAdjust="spacing" textLength="36" x="232.0028" y="473.4573">Node</text></g><g id="elem_node8"><ellipse cx="363.0028" cy="468.7244" fill="#F1F1F1" rx="37.4228" ry="16.6744" style="stroke:#181818;stroke-width:0.5;"/><text fill="#000000" font-family="sans-serif" font-size="14" lengthAdjust="spacing" textLength="36" x="342.0028" y="473.4573">Node</text></g><g id="elem_node9"><ellipse cx="143.0028" cy="581.0744" fill="#F1F1F1" rx="37.4228" ry="16.6744" style="stroke:#181818;stroke-width:0.5;"/><text fill="#000000" font-family="sans-serif" font-size="14" lengthAdjust="spacing" textLength="36" x="122.0028" y="585.8073">Node</text></g><g id="elem_node10"><ellipse cx="253.0028" cy="581.0744" fill="#F1F1F1" rx="37.4228" ry="16.6744" style="stroke:#181818;stroke-width:0.5;"/><text fill="#000000" font-family="sans-serif" font-size="14" lengthAdjust="spacing" textLength="36" x="232.0028" y="585.8073">Node</text></g><g id="elem_node11"><ellipse cx="363.0028" cy="581.0744" fill="#F1F1F1" rx="37.4228" ry="16.6744" style="stroke:#181818;stroke-width:0.5;"/><text fill="#000000" font-family="sans-serif" font-size="14" lengthAdjust="spacing" textLength="36" x="342.0028" y="585.8073">Node</text></g><g id="elem_node12"><ellipse cx="831.0028" cy="316.3744" fill="#F1F1F1" rx="37.4228" ry="16.6744" style="stroke:#181818;stroke-width:0.5;"/><text fill="#000000" font-family="sans-serif" font-size="14" lengthAdjust="spacing" textLength="36" x="810.0028" y="321.1073">Node</text></g><g id="elem_node13"><ellipse cx="941.0028" cy="316.3744" fill="#F1F1F1" rx="37.4228" ry="16.6744" style="stroke:#181818;stroke-width:0.5;"/><text fill="#000000" font-family="sans-serif" font-size="14" lengthAdjust="spacing" textLength="36" x="920.0028" y="321.1073">Node</text></g><g id="elem_node14"><ellipse cx="1051.0028" cy="316.3744" fill="#F1F1F1" rx="37.4228" ry="16.6744" style="stroke:#181818;stroke-width:0.5;"/><text fill="#000000" font-family="sans-serif" font-size="14" lengthAdjust="spacing" textLength="36" x="1030.0028" y="321.1073">Node</text></g><g id="elem_node15"><ellipse cx="831.0028" cy="468.7244" fill="#F1F1F1" rx="37.4228" ry="16.6744" style="stroke:#181818;stroke-width:0.5;"/><text fill="#000000" font-family="sans-serif" font-size="14" lengthAdjust="spacing" textLength="36" x="810.0028" y="473.4573">Node</text></g><g id="elem_node16"><ellipse cx="941.0028" cy="468.7244" fill="#F1F1F1" rx="37.4228" ry="16.6744" style="stroke:#181818;stroke-width:0.5;"/><text fill="#000000" font-family="sans-serif" font-size="14" lengthAdjust="spacing" textLength="36" x="920.0028" y="473.4573">Node</text></g><g id="elem_node17"><ellipse cx="1051.0028" cy="468.7244" fill="#F1F1F1" rx="37.4228" ry="16.6744" style="stroke:#181818;stroke-width:0.5;"/><text fill="#000000" font-family="sans-serif" font-size="14" lengthAdjust="spacing" textLength="36" x="1030.0028" y="473.4573">Node</text></g><g id="elem_node18"><ellipse cx="560.0028" cy="733.4244" fill="#F1F1F1" rx="37.4228" ry="16.6744" style="stroke:#181818;stroke-width:0.5;"/><text fill="#000000" font-family="sans-serif" font-size="14" lengthAdjust="spacing" textLength="36" x="539.0028" y="738.1573">Node</text></g><g id="elem_node19"><ellipse cx="670.0028" cy="733.4244" fill="#F1F1F1" rx="37.4228" ry="16.6744" style="stroke:#181818;stroke-width:0.5;"/><text fill="#000000" font-family="sans-serif" font-size="14" lengthAdjust="spacing" textLength="36" x="649.0028" y="738.1573">Node</text></g><g id="elem_node20"><ellipse cx="780.0028" cy="733.4244" fill="#F1F1F1" rx="37.4228" ry="16.6744" style="stroke:#181818;stroke-width:0.5;"/><text fill="#000000" font-family="sans-serif" font-size="14" lengthAdjust="spacing" textLength="36" x="759.0028" y="738.1573">Node</text></g><g id="elem_node21"><ellipse cx="560.0028" cy="827.7744" fill="#F1F1F1" rx="37.4228" ry="16.6744" style="stroke:#181818;stroke-width:0.5;"/><text fill="#000000" font-family="sans-serif" font-size="14" lengthAdjust="spacing" textLength="36" x="539.0028" y="832.5073">Node</text></g><g id="elem_node22"><ellipse cx="670.0028" cy="827.7744" fill="#F1F1F1" rx="37.4228" ry="16.6744" style="stroke:#181818;stroke-width:0.5;"/><text fill="#000000" font-family="sans-serif" font-size="14" lengthAdjust="spacing" textLength="36" x="649.0028" y="832.5073">Node</text></g><g id="elem_node23"><ellipse cx="780.0028" cy="827.7744" fill="#F1F1F1" rx="37.4228" ry="16.6744" style="stroke:#181818;stroke-width:0.5;"/><text fill="#000000" font-family="sans-serif" font-size="14" lengthAdjust="spacing" textLength="36" x="759.0028" y="832.5073">Node</text></g><!--link node0 to node1--><!--link node1 to node2--><!--link node3 to node4--><!--link node4 to node5--><!--link node0 to node3--><!--link node1 to node4--><!--link node2 to node5--><!--link node6 to node7--><!--link node7 to node8--><!--link node9 to node10--><!--link node10 to node11--><!--link node6 to node9--><!--link node7 to node10--><!--link node8 to node11--><!--link node12 to node13--><!--link node13 to node14--><!--link node15 to node16--><!--link node16 to node17--><!--link node12 to node15--><!--link node13 to node16--><!--link node14 to node17--><!--link node18 to node19--><!--link node19 to node20--><!--link node21 to node22--><!--link node22 to node23--><!--link node18 to node21--><!--link node19 to node22--><!--link node20 to node23--><!--link node12 to node18--><g id="link_node12_node18"><path d="M804.31,328.29 C799.59,330.02 794.68,331.68 790,333.05 C726.41,351.6 691.33,316.7 644,363.05 C542.04,462.89 551.9994,652.8982 557.5794,710.2882 " fill="none" id="node12-to-node18" style="stroke:#181818;stroke-width:1.0;"/><polygon fill="#181818" points="558.16,716.26,561.2703,706.9151,557.6761,711.2835,553.3078,707.6893,558.16,716.26" style="stroke:#181818;stroke-width:1.0;"/></g><!--link node13 to node19--><g id="link_node13_node19"><path d="M910.89,326.56 C902.84,328.85 894.13,331.18 886,333.05 C810.8,350.31 768.11,307.07 715,363.05 C618.51,464.74 651.9516,653.5766 664.7816,710.5366 " fill="none" id="node13-to-node19" style="stroke:#181818;stroke-width:1.0;"/><polygon fill="#181818" points="666.1,716.39,668.0246,706.731,665.0013,711.5122,660.2201,708.4889,666.1,716.39" style="stroke:#181818;stroke-width:1.0;"/></g><!--link node14 to node20--><g id="link_node14_node20"><path d="M1020.2,326.29 C1012.32,328.53 1003.86,330.91 996,333.05 C898.53,359.56 837.82,310.17 776,390.05 C697.78,491.12 751.6485,658.2976 771.5885,711.0476 " fill="none" id="node14-to-node20" style="stroke:#181818;stroke-width:1.0;"/><polygon fill="#181818" points="773.71,716.66,774.2693,706.827,771.942,711.983,766.7861,709.6558,773.71,716.66" style="stroke:#181818;stroke-width:1.0;"/></g><!--link node15 to node21--><g id="link_node15_node21"><path d="M837.21,485.41 C854.34,531.53 897.03,668.52 835,750.09 C773.58,830.86 712.68,783.63 615,811.09 C607.16,813.29 604.4694,814.0426 596.5894,816.2926 " fill="none" id="node15-to-node21" style="stroke:#181818;stroke-width:1.0;"/><polygon fill="#181818" points="590.82,817.94,600.5724,819.3152,595.6278,816.5672,598.3759,811.6227,590.82,817.94" style="stroke:#181818;stroke-width:1.0;"/></g><!--link node16 to node22--><g id="link_node16_node22"><path d="M941.22,485.58 C941.09,531 935.35,663.86 876,750.09 C862.02,770.4 852.35,770.69 830,781.09 C829.62,781.27 752.9004,803.1461 706.5304,816.3561 " fill="none" id="node16-to-node22" style="stroke:#181818;stroke-width:1.0;"/><polygon fill="#181818" points="700.76,818,710.5115,819.3811,705.5687,816.6301,708.3197,811.6872,700.76,818" style="stroke:#181818;stroke-width:1.0;"/></g><!--link node17 to node23--><g id="link_node17_node23"><path d="M1047.53,485.69 C1036.76,531.97 999.88,668.14 923,750.09 C891.39,783.79 847.2434,803.7423 815.5334,815.1923 " fill="none" id="node17-to-node23" style="stroke:#181818;stroke-width:1.0;"/><polygon fill="#181818" points="809.89,817.23,819.7135,817.9356,814.5928,815.5319,816.9966,810.4111,809.89,817.23" style="stroke:#181818;stroke-width:1.0;"/></g><!--link pool2 to pool1--><g id="link_pool2_pool1"><path d="M749.4653,317.1483 C749.2619,317.1439 749.0551,317.1394 748.8449,317.1349 C748.4246,317.1258 747.991,317.1167 747.5443,317.1076 C746.6508,317.0893 745.7049,317.0708 744.7084,317.0523 C736.7364,316.905 725.5284,316.7631 712.0506,316.7675 C685.095,316.7763 649.06,317.37 611.675,319.675 C536.905,324.285 456.735,335.74 433,363.05 C425.485,371.6925 421.8506,382.42 420.642,393.683 C420.3399,396.4987 420.1893,399.3479 420.1677,402.2064 C420.1623,402.921 420.1649,403.6362 420.1753,404.3516 C420.1804,404.7093 420.1875,405.067 420.1965,405.4248 C420.201,405.6037 419.6605,387.7908 419.6659,387.9697 " fill="none" id="pool2-to-pool1" style="stroke:#181818;stroke-width:1.0;"/><polygon fill="none" points="420.2114,405.9614,425.6632,387.7879,413.6687,388.1515,420.2114,405.9614" style="stroke:#181818;stroke-width:1.0;"/><text fill="#000000" font-family="sans-serif" font-size="13" lengthAdjust="spacing" textLength="69" x="434" y="377.947">merge data</text></g><!--link pool0 to pool1--><!--link pool0 to pool2--><!--link pool2 to pool3--><!--link pool1 to pool3--><!--SRC=[TT0z2y8m40RWFR_YMXmi66bJluTENGKN9t48JQY1D95-888_tjIpc2fc2E5vZpikWJA5xeI4fhrhELTTfKamcAZvxMgjHYPaaZiuE9Y6_HtE88vytCkwLAQ4TvYCmbmMjb9DewpnQjYevcYurhRWhHGkIoCtanWhPCA0Kfh1wxr1IZtQ8Yq-n6AafKS9qieZXhJsA2MatxcV-CYWVoQmWygjvZw4jnpZ6EZfeeIGvamfLlrnDhJxyfHWxrztvma0]--></g></svg>