<svg xmlns="http://www.w3.org/2000/svg" viewBox="0 0 800 480" style="background-color: #fefefe;">
  <!-- Original Matrix D -->
  <text x="100" y="30" font-size="14" text-anchor="middle">Matrix D</text>
  <rect x="50" y="50" width="100" height="150" fill="none" stroke="black" />
  <text x="60" y="70" font-size="14" font-weight="bold">D</text>

  <!-- Shards label -->
  <text x="400" y="30" font-size="14" text-anchor="middle" font-weight="bold">Shards</text>

  <!-- Shard squares -->
  <rect x="275" y="50" width="30" height="30" fill="none" stroke="black" />
  <rect x="315" y="50" width="30" height="30" fill="none" stroke="black" />
  <rect x="355" y="50" width="30" height="30" fill="none" stroke="black" />
  <rect x="395" y="50" width="30" height="30" fill="none" stroke="black" />
  <rect x="435" y="50" width="30" height="30" fill="none" stroke="black" />

  <!-- H_j label in central square -->
  <text x="370" y="70" text-anchor="middle" font-size="12">H<tspan font-size="8" baseline-shift="sub">j</tspan></text>

  <!-- Arrow and label from D to a_i -->
  <line x1="100" y1="200" x2="100" y2="318" stroke="black" marker-end="url(#arrowhead)" />
  <text x="180" y="250" font-size="14" text-anchor="middle">Open(Commit<tspan font-size="10" baseline-shift="sub">D</tspan>, χ)</text>

  <!-- a_i squares (moved down further) -->
  <rect x="35" y="320" width="30" height="30" fill="none" stroke="black" />
  <rect x="75" y="320" width="30" height="30" fill="none" stroke="black" />
  <rect x="115" y="320" width="30" height="30" fill="none" stroke="black" />
  <rect x="155" y="320" width="30" height="30" fill="none" stroke="black" />

  <!-- a_i labels -->
  <text x="50" y="340" text-anchor="middle" font-size="12">a<tspan font-size="8" baseline-shift="sub">0</tspan></text>
  <text x="90" y="340" text-anchor="middle" font-size="12">a<tspan font-size="8" baseline-shift="sub">1</tspan></text>
  <text x="130" y="340" text-anchor="middle" font-size="12">...</text>
  <text x="170" y="340" text-anchor="middle" font-size="12">a<tspan font-size="8" baseline-shift="sub">T-1</tspan></text>

  <!-- Arrow and label from H_j to IfEqual -->
  <line x1="370" y1="80" x2="370" y2="298" stroke="black" marker-end="url(#arrowhead)" />
  <text x="450" y="180" font-size="14" text-anchor="middle">Eval(Shard<tspan font-size="10" baseline-shift="sub">j</tspan>, χ)</text>

  <!-- Arrow and label from a_i to IfEqual -->
  <line x1="185" y1="335" x2="318" y2="335" stroke="black" marker-end="url(#arrowhead)" />
  <text x="250" y="320" font-size="14" text-anchor="middle">Eval({a<tspan font-size="10" baseline-shift="sub">i</tspan>}, P<tspan font-size="10" baseline-shift="sub">j</tspan>)</text>

  <!-- IfEqual diamond -->
  <polygon points="370,300 420,335 370,370 320,335" fill="lightyellow" stroke="black" stroke-width="2" />
  <text x="370" y="340" text-anchor="middle" font-size="14" font-weight="bold">IfEqual</text>

  <!-- No arrow and Halt block -->
  <line x1="420" y1="335" x2="500" y2="335" stroke="black" marker-end="url(#arrowhead)" />
  <text x="460" y="325" font-size="14">No</text>
  <rect x="500" y="315" width="60" height="40" fill="lightcoral" stroke="black" />
  <text x="530" y="340" text-anchor="middle" font-size="14">Halt</text>

  <!-- Yes arrow and Shard_j subset D block -->
  <line x1="370" y1="370" x2="370" y2="420" stroke="black" marker-end="url(#arrowhead)" />
  <text x="380" y="395" font-size="14">Yes</text>
  <rect x="320" y="420" width="100" height="40" fill="lightgreen" stroke="black" />
  <text x="370" y="445" text-anchor="middle" font-size="14">Shard<tspan font-size="10" baseline-shift="sub">j</tspan> ⊂ <tspan font-weight="bold">D</tspan></text>

  <!-- Arrow definition -->
  <defs>
    <marker id="arrowhead" markerWidth="10" markerHeight="7" refX="10" refY="3.5" orient="auto">
      <polygon points="0 0, 10 3.5, 0 7" />
    </marker>
  </defs>
</svg>