<?xml version="1.0" encoding="us-ascii" standalone="no"?><svg xmlns="http://www.w3.org/2000/svg" xmlns:xlink="http://www.w3.org/1999/xlink" contentStyleType="text/css" height="646px" preserveAspectRatio="none" style="width:267px;height:646px;background:#FFFFFF;" version="1.1" viewBox="0 0 267 646" width="267px" zoomAndPan="magnify"><defs/><g><!--entity D--><g id="elem_D"><rect fill="#F1F1F1" height="58.1358" rx="2.5" ry="2.5" style="stroke:#181818;stroke-width:0.5;" width="105" x="58" y="7"/><text fill="#000000" font-family="sans-serif" font-size="14" lengthAdjust="spacing" textLength="81" x="68" y="31.9659">Source Data</text><text fill="#000000" font-family="sans-serif" font-size="14" lengthAdjust="spacing" textLength="11" x="96" y="51.0339">&#119811;</text></g><!--entity S--><g id="elem_S"><rect fill="#F1F1F1" height="39.0679" rx="2.5" ry="2.5" style="stroke:#181818;stroke-width:0.5;" width="62" x="26.5" y="144.14"/><text fill="#000000" font-family="sans-serif" font-size="14" lengthAdjust="spacing" textLength="42" x="36.5" y="169.1059">Shard&#11388;</text></g><!--entity H--><g id="elem_H"><rect fill="#F1F1F1" height="58.1358" rx="2.5" ry="2.5" style="stroke:#181818;stroke-width:0.5;" width="69" x="7" y="244.2"/><text fill="#000000" font-family="sans-serif" font-size="14" lengthAdjust="spacing" textLength="49" x="17" y="269.1659">Hashes</text><text fill="#000000" font-family="sans-serif" font-size="14" lengthAdjust="spacing" textLength="12" x="29" y="288.2339">H&#11388;</text></g><!--entity C--><g id="elem_C"><rect fill="#F1F1F1" height="58.1358" rx="2.5" ry="2.5" style="stroke:#181818;stroke-width:0.5;" width="107" x="111" y="244.2"/><text fill="#000000" font-family="sans-serif" font-size="14" lengthAdjust="spacing" textLength="87" x="121" y="269.1659">Commitment</text><text fill="#000000" font-family="sans-serif" font-size="14" lengthAdjust="spacing" textLength="9" x="153" y="288.2339">C</text></g><!--entity CH--><g id="elem_CH"><rect fill="#F1F1F1" height="58.1358" rx="2.5" ry="2.5" style="stroke:#181818;stroke-width:0.5;" width="88" x="16.5" y="363.34"/><text fill="#000000" font-family="sans-serif" font-size="14" lengthAdjust="spacing" textLength="68" x="26.5" y="388.3059">Challenge</text><text fill="#000000" font-family="sans-serif" font-size="14" lengthAdjust="spacing" textLength="8" x="50.5" y="407.3739">&#967;</text></g><!--entity A--><g id="elem_A"><rect fill="#F1F1F1" height="58.1358" rx="2.5" ry="2.5" style="stroke:#181818;stroke-width:0.5;" width="144" x="61.5" y="482.48"/><text fill="#000000" font-family="sans-serif" font-size="14" lengthAdjust="spacing" textLength="124" x="71.5" y="507.4459">Opening for C at &#967;</text><text fill="#000000" font-family="sans-serif" font-size="14" lengthAdjust="spacing" textLength="20" x="131.5" y="526.5139">{a&#7522;}</text></g><!--entity FC--><g id="elem_FC"><rect fill="#F1F1F1" height="39.0679" rx="2.5" ry="2.5" style="stroke:#181818;stroke-width:0.5;" width="109" x="79" y="601.61"/><text fill="#000000" font-family="sans-serif" font-size="14" lengthAdjust="spacing" textLength="89" x="89" y="626.5759">&#119966; = (C, &#967;, {a&#7522;})</text></g><!--link D to S--><g id="link_D_S"><path d="M78.76,65.38 C71.04,74.09 63.78,84.28 59.5,95.14 C53.4,110.63 52.9091,123.7444 54.1691,137.6644 " fill="none" id="D-to-S" style="stroke:#181818;stroke-width:1.0;"/><polygon fill="#181818" points="54.71,143.64,57.8824,134.3161,54.2593,138.6604,49.9149,135.0372,54.71,143.64" style="stroke:#181818;stroke-width:1.0;"/><text fill="#000000" font-family="sans-serif" font-size="13" lengthAdjust="spacing" textLength="74" x="60.5" y="110.037">RS encoding</text></g><!--link S to H--><g id="link_S_H"><path d="M54.71,183.41 C52.22,200.15 49.4206,218.975 46.5806,238.115 " fill="none" id="S-to-H" style="stroke:#181818;stroke-width:1.0;"/><polygon fill="#181818" points="45.7,244.05,50.9776,235.7346,46.4339,239.1041,43.0643,234.5604,45.7,244.05" style="stroke:#181818;stroke-width:1.0;"/></g><!--link D to C--><g id="link_D_C"><path d="M127.01,65.54 C131.71,74.73 136.39,85.13 139.5,95.14 C155.33,145.99 160.8109,202.2208 162.9409,237.7508 " fill="none" id="D-to-C" style="stroke:#181818;stroke-width:1.0;"/><polygon fill="#181818" points="163.3,243.74,166.7543,234.5168,163.0008,238.749,158.7686,234.9955,163.3,243.74" style="stroke:#181818;stroke-width:1.0;"/><text fill="#000000" font-family="sans-serif" font-size="13" lengthAdjust="spacing" textLength="19" x="158.5" y="169.067">FRI</text></g><!--link C to CH--><g id="link_C_CH"><path d="M139.32,302.63 C123.09,320.91 106.0441,340.1137 89.7841,358.4237 " fill="none" id="C-to-CH" style="stroke:#181818;stroke-width:1.0;"/><polygon fill="#181818" points="85.8,362.91,94.767,358.8365,89.12,359.1714,88.7852,353.5244,85.8,362.91" style="stroke:#181818;stroke-width:1.0;"/></g><!--link H to CH--><g id="link_H_CH"><path d="M46.1,302.63 C49.06,320.91 51.9493,338.6774 54.9193,356.9874 " fill="none" id="H-to-CH" style="stroke:#181818;stroke-width:1.0;"/><polygon fill="#181818" points="55.88,362.91,58.3874,353.3857,55.0794,357.9745,50.4906,354.6666,55.88,362.91" style="stroke:#181818;stroke-width:1.0;"/></g><!--link CH to A--><g id="link_CH_A"><path d="M78.17,421.76 C89.56,440.04 101.1568,458.6378 112.5668,476.9478 " fill="none" id="CH-to-A" style="stroke:#181818;stroke-width:1.0;"/><polygon fill="#181818" points="115.74,482.04,114.3749,472.2862,113.0956,477.7965,107.5853,476.5172,115.74,482.04" style="stroke:#181818;stroke-width:1.0;"/></g><!--link C to A--><g id="link_C_A"><path d="M160.76,302.77 C154.79,348.31 143.9415,430.9911 137.9815,476.3611 " fill="none" id="C-to-A" style="stroke:#181818;stroke-width:1.0;"/><polygon fill="#181818" points="137.2,482.31,142.3381,473.9076,137.8512,477.3526,134.4063,472.8657,137.2,482.31" style="stroke:#181818;stroke-width:1.0;"/></g><!--link C to FC--><g id="link_C_FC"><path d="M182.07,302.68 C210.6,352.73 260.29,459.01 223.5,540.61 C211.85,566.47 192.1481,583.9506 171.5781,597.7906 " fill="none" id="C-to-FC" style="stroke:#181818;stroke-width:1.0;"/><polygon fill="#181818" points="166.6,601.14,176.3001,599.4346,170.7484,598.3488,171.8342,592.7972,166.6,601.14" style="stroke:#181818;stroke-width:1.0;"/></g><!--link CH to FC--><g id="link_CH_FC"><path d="M48.77,421.88 C38.01,452.55 26.16,502.15 43.5,540.61 C55.15,566.47 74.8519,583.9506 95.4219,597.7906 " fill="none" id="CH-to-FC" style="stroke:#181818;stroke-width:1.0;"/><polygon fill="#181818" points="100.4,601.14,95.1658,592.7972,96.2516,598.3488,90.6999,599.4346,100.4,601.14" style="stroke:#181818;stroke-width:1.0;"/></g><!--link A to FC--><g id="link_A_FC"><path d="M133.5,541.1 C133.5,560.15 133.5,578.66 133.5,595.31 " fill="none" id="A-to-FC" style="stroke:#181818;stroke-width:1.0;"/><polygon fill="#181818" points="133.5,601.31,137.5,592.31,133.5,596.31,129.5,592.31,133.5,601.31" style="stroke:#181818;stroke-width:1.0;"/></g><!--SRC=[LP0nJiCm68Ltd-Af4qZj1P10YXnLxeHKhoo_qfya8hOhnvqG4mChOYy3Ds1WumwS0KxG8s0v3YJ_ucU_xxrVSd_NsZrvCZ3EkghnpZ22Fx0GmdCLoDOTOw7TmLUCaWBXncAOq_7vSG7gKSxGXlpkv_qpENhgAEeRxbDSZO2Q0j8PqmR3DlpjW4oOd64DTHtRcaVgwsc0PcNNUxQjhN7hF2GeHEg_DSyzVN-yFQHmCSsUZY-lkCIPNCRKCcFdYLlB-3CbLgihQ5nWgy6sShkuIUZqgf1j6UtrTYFaS5D2PG4X1raWcqK-OtcseYf6yGi0]--></g></svg>