<?xml version="1.0" standalone="no"?>
<!DOCTYPE svg PUBLIC "-//W3C//DTD SVG 20010904//EN"
 "http://www.w3.org/TR/2001/REC-SVG-20010904/DTD/svg10.dtd">
<svg version="1.0" xmlns="http://www.w3.org/2000/svg"
 width="400.000000pt" height="400.000000pt" viewBox="0 0 400.000000 400.000000"
 preserveAspectRatio="xMidYMid meet">
<metadata>
Created by potrace 1.15, written by Peter Selinger 2001-2017
</metadata>
<g transform="translate(0.000000,400.000000) scale(0.100000,-0.100000)"
fill="#000000" stroke="none">
<path d="M2035 3640 c-201 -28 -385 -79 -504 -140 -47 -24 -101 -63 -101 -74
0 -1 32 -22 71 -45 191 -114 375 -284 434 -401 46 -91 73 -195 80 -313 4 -50
8 -103 11 -116 l5 -23 187 5 c158 4 198 8 260 27 40 13 83 33 96 45 64 59 109
371 87 607 -23 248 -102 394 -233 433 -68 20 -226 18 -393 -5z"/>
<path d="M3115 3471 c-3 -5 6 -49 21 -98 32 -110 43 -285 25 -400 -24 -146
-93 -283 -211 -415 -28 -32 -49 -62 -45 -68 3 -6 21 -17 38 -26 39 -20 138
-98 231 -181 91 -82 213 -143 299 -150 127 -11 229 67 283 214 27 74 29 87 29
238 0 148 -3 167 -29 250 -15 49 -38 110 -51 135 -62 120 -210 291 -329 379
-106 78 -247 144 -261 122z"/>
<path d="M950 3206 c-143 -53 -317 -212 -414 -378 -21 -37 -25 -51 -17 -66 6
-11 61 -46 123 -78 174 -91 247 -143 383 -274 68 -66 127 -120 131 -120 3 0
31 22 61 50 93 82 247 150 342 150 25 0 32 5 37 26 24 94 -152 372 -362 573
-123 119 -197 149 -284 117z"/>
<path d="M281 2499 c-64 -88 -148 -296 -153 -378 l-3 -43 85 -4 c143 -7 427
-68 555 -119 14 -6 145 174 145 199 0 6 -19 19 -43 29 -115 47 -353 195 -496
310 l-60 48 -30 -42z"/>
<path d="M2483 1856 c-100 -96 -193 -202 -193 -221 0 -4 46 42 103 101 164
173 210 224 205 224 -3 0 -55 -47 -115 -104z"/>
<path d="M2936 1923 c-17 -3 -48 -24 -77 -53 -42 -42 -49 -55 -49 -87 l0 -38
29 50 c35 61 59 84 65 64 2 -8 9 -29 15 -48 57 -178 -96 -505 -350 -747 -79
-74 -157 -128 -291 -198 -218 -116 -366 -151 -628 -151 -151 0 -186 3 -258 23
-111 30 -190 71 -237 123 -36 40 -37 43 -19 56 14 10 35 13 79 8 l60 -6 -40
26 c-77 49 -133 54 -202 18 -34 -18 -71 -82 -117 -204 -13 -35 -40 -98 -59
-139 -20 -41 -38 -90 -42 -108 -7 -32 -6 -33 57 -61 85 -38 221 -83 349 -115
222 -56 673 -47 960 19 447 103 849 449 981 845 30 89 32 104 32 240 1 137 -1
149 -28 215 -33 79 -79 154 -125 203 -17 18 -31 35 -31 36 0 2 10 7 23 11 21
7 21 8 -8 15 -33 9 -47 9 -89 3z m139 -187 c13 -28 29 -73 34 -100 l9 -49 -70
70 c-67 67 -71 74 -88 146 -9 42 -15 79 -11 82 10 11 99 -95 126 -149z m-41
-93 c82 -81 109 -159 86 -252 -7 -28 -15 -51 -19 -51 -4 0 -18 23 -32 52 -13
28 -37 68 -52 87 -51 64 -59 86 -51 151 4 33 10 60 13 60 4 0 28 -21 55 -47z
m17 -271 c36 -79 36 -114 3 -196 -36 -91 -49 -98 -63 -39 -7 27 -30 85 -53
130 l-41 82 29 81 29 82 34 -39 c18 -21 46 -67 62 -101z m-135 -114 c35 -69
64 -154 64 -188 0 -39 -28 -98 -74 -153 -21 -26 -40 -46 -42 -44 -2 1 -10 38
-19 82 -9 44 -29 105 -44 136 l-28 56 54 81 c30 45 56 82 58 82 3 0 17 -24 31
-52z m-110 -257 c13 -42 24 -98 24 -124 0 -44 -4 -53 -51 -102 -28 -30 -76
-73 -106 -96 -57 -44 -72 -43 -73 6 -1 33 -35 158 -53 190 l-17 30 113 106
c129 123 122 124 163 -10z m-1672 -177 c36 -36 68 -76 71 -87 14 -60 22 -117
15 -117 -14 0 -92 116 -125 187 -51 106 -50 106 39 17z m1417 -35 c11 -36 21
-92 22 -124 l2 -58 -80 -44 c-108 -58 -136 -62 -180 -29 -75 57 -145 140 -145
170 0 6 26 22 58 35 52 23 97 47 230 123 44 26 48 26 60 10 7 -9 22 -47 33
-83z m-1227 -92 c30 -17 44 -34 60 -72 10 -27 40 -79 64 -114 l45 -64 -29 7
c-101 25 -203 111 -222 188 -7 26 -12 57 -12 69 0 18 4 20 28 14 15 -3 45 -16
66 -28z m839 -40 c24 -40 107 -125 144 -146 14 -7 15 -13 7 -21 -15 -15 -219
-70 -259 -70 -54 0 -122 55 -181 147 -19 29 -34 56 -34 61 0 5 42 16 94 26 52
9 111 23 132 30 60 22 70 19 97 -27z m-659 -10 c56 -12 61 -15 85 -60 14 -26
54 -78 89 -117 l63 -70 -44 0 c-74 0 -141 26 -191 74 -40 39 -106 148 -106
176 0 13 31 12 104 -3z m326 -57 c11 -22 50 -71 85 -109 75 -79 74 -81 -41
-81 -86 0 -105 7 -155 60 -34 35 -119 152 -119 164 0 4 47 6 105 6 l105 0 20
-40z"/>
<path d="M113 1644 c3 -65 13 -146 22 -179 27 -103 135 -303 156 -290 4 3 25
30 45 60 74 112 182 182 387 249 19 6 21 31 7 94 -6 23 -11 60 -12 82 l-1 40
-96 0 c-53 0 -168 12 -256 25 -88 14 -182 28 -209 32 l-49 6 6 -119z"/>
<path d="M2620 1724 c-111 -60 -193 -112 -235 -150 l-40 -36 40 23 c22 12 56
32 75 44 19 12 78 48 130 80 52 32 99 62 105 67 20 18 -12 5 -75 -28z"/>
<path d="M2075 1514 c-83 -54 -168 -95 -247 -118 -97 -28 -136 -102 -85 -162
20 -23 34 -28 98 -33 70 -6 78 -10 141 -58 97 -75 172 -83 203 -23 10 19 15
58 15 117 0 78 4 96 30 148 38 77 39 118 4 150 -40 37 -78 32 -159 -21z"/>
<path d="M2655 1540 c-114 -19 -255 -57 -290 -79 -23 -14 -26 -14 65 8 25 6
101 24 170 40 193 45 206 49 185 49 -11 0 -69 -8 -130 -18z"/>
<path d="M1400 1293 c-71 -7 -224 -37 -208 -41 19 -4 400 37 407 44 5 5 -145
3 -199 -3z"/>
<path d="M666 1257 c-102 -55 -257 -234 -272 -314 -20 -107 137 -333 232 -333
7 0 24 17 37 38 31 48 187 344 212 400 l18 43 -35 37 c-20 20 -39 53 -43 72
-20 98 -52 110 -149 57z"/>
<path d="M1515 1164 c-130 -45 -303 -124 -274 -124 6 0 264 97 359 135 63 25
-7 16 -85 -11z"/>
<path d="M1645 1105 c-27 -19 -66 -46 -85 -59 -20 -13 -76 -63 -125 -111 -50
-48 -78 -79 -64 -69 45 33 329 264 329 269 0 7 -1 7 -55 -30z"/>
</g>
</svg>
