<?xml version="1.0" encoding="us-ascii" standalone="no"?><svg xmlns="http://www.w3.org/2000/svg" xmlns:xlink="http://www.w3.org/1999/xlink" contentStyleType="text/css" height="743px" preserveAspectRatio="none" style="width:917px;height:743px;background:#FEFEFE;" version="1.1" viewBox="0 0 917 743" width="917px" zoomAndPan="magnify"><defs/><g><rect fill="#FEFEFE" height="743" style="stroke:none;stroke-width:1.0;" width="917" x="0" y="0"/><!--cluster pool0--><g id="cluster_pool0"><rect fill="none" height="196.7" rx="25" ry="25" style="stroke:#181818;stroke-width:1.0;" width="362" x="7" y="67.73"/><text fill="#000000" font-family="sans-serif" font-size="14" font-weight="bold" lengthAdjust="spacing" textLength="29.75" x="173.125" y="84.6959">Pool</text></g><!--cluster pool1--><g id="cluster_pool1"><rect fill="none" height="196.69" rx="25" ry="25" style="stroke:#181818;stroke-width:1.0;" width="362" x="549" y="304.43"/><text fill="#000000" font-family="sans-serif" font-size="14" font-weight="bold" lengthAdjust="spacing" textLength="29.75" x="715.125" y="321.3959">Pool</text></g><!--cluster pool2--><g id="cluster_pool2"><rect fill="none" height="196.69" rx="25" ry="25" style="stroke:#181818;stroke-width:1.0;" width="362" x="65" y="304.43"/><text fill="#000000" font-family="sans-serif" font-size="14" font-weight="bold" lengthAdjust="spacing" textLength="29.75" x="231.125" y="321.3959">Pool</text></g><!--cluster pool3--><g id="cluster_pool3"><rect fill="none" height="196.7" rx="25" ry="25" style="stroke:#181818;stroke-width:1.0;" width="362" x="375" y="541.12"/><text fill="#000000" font-family="sans-serif" font-size="14" font-weight="bold" lengthAdjust="spacing" textLength="84.8125" x="513.5938" y="558.0859">Unallocated</text></g><g id="elem_node0"><ellipse cx="178.0028" cy="130.4044" fill="#F1F1F1" rx="37.4228" ry="16.6744" style="stroke:#181818;stroke-width:0.5;"/><text fill="#000000" font-family="sans-serif" font-size="14" lengthAdjust="spacing" textLength="36" x="157.0028" y="135.1373">Node</text></g><g id="elem_node1"><ellipse cx="288.0028" cy="130.4044" fill="#F1F1F1" rx="37.4228" ry="16.6744" style="stroke:#181818;stroke-width:0.5;"/><text fill="#000000" font-family="sans-serif" font-size="14" lengthAdjust="spacing" textLength="36" x="267.0028" y="135.1373">Node</text></g><g id="elem_node2"><ellipse cx="68.0028" cy="130.4044" fill="#F1F1F1" rx="37.4228" ry="16.6744" style="stroke:#181818;stroke-width:0.5;"/><text fill="#000000" font-family="sans-serif" font-size="14" lengthAdjust="spacing" textLength="36" x="47.0028" y="135.1373">Node</text></g><g id="elem_node3"><ellipse cx="178.0028" cy="223.7544" fill="#FFB6C1" rx="37.4228" ry="16.6744" style="stroke:#181818;stroke-width:0.5;"/><text fill="#000000" font-family="sans-serif" font-size="14" lengthAdjust="spacing" textLength="36" x="157.0028" y="228.4873">Node</text></g><g id="elem_node4"><ellipse cx="288.0028" cy="223.7544" fill="#F1F1F1" rx="37.4228" ry="16.6744" style="stroke:#181818;stroke-width:0.5;"/><text fill="#000000" font-family="sans-serif" font-size="14" lengthAdjust="spacing" textLength="36" x="267.0028" y="228.4873">Node</text></g><g id="elem_node5"><ellipse cx="68.0028" cy="223.7544" fill="#F1F1F1" rx="37.4228" ry="16.6744" style="stroke:#181818;stroke-width:0.5;"/><text fill="#000000" font-family="sans-serif" font-size="14" lengthAdjust="spacing" textLength="36" x="47.0028" y="228.4873">Node</text></g><g id="elem_node6"><ellipse cx="720.0028" cy="367.1044" fill="#F1F1F1" rx="37.4228" ry="16.6744" style="stroke:#181818;stroke-width:0.5;"/><text fill="#000000" font-family="sans-serif" font-size="14" lengthAdjust="spacing" textLength="36" x="699.0028" y="371.8373">Node</text></g><g id="elem_node7"><ellipse cx="830.0028" cy="367.1044" fill="#F1F1F1" rx="37.4228" ry="16.6744" style="stroke:#181818;stroke-width:0.5;"/><text fill="#000000" font-family="sans-serif" font-size="14" lengthAdjust="spacing" textLength="36" x="809.0028" y="371.8373">Node</text></g><g id="elem_node8"><ellipse cx="610.0028" cy="367.1044" fill="#F1F1F1" rx="37.4228" ry="16.6744" style="stroke:#181818;stroke-width:0.5;"/><text fill="#000000" font-family="sans-serif" font-size="14" lengthAdjust="spacing" textLength="36" x="589.0028" y="371.8373">Node</text></g><g id="elem_node9"><ellipse cx="720.0028" cy="460.4544" fill="#F1F1F1" rx="37.4228" ry="16.6744" style="stroke:#181818;stroke-width:0.5;"/><text fill="#000000" font-family="sans-serif" font-size="14" lengthAdjust="spacing" textLength="36" x="699.0028" y="465.1873">Node</text></g><g id="elem_node10"><ellipse cx="830.0028" cy="460.4544" fill="#F1F1F1" rx="37.4228" ry="16.6744" style="stroke:#181818;stroke-width:0.5;"/><text fill="#000000" font-family="sans-serif" font-size="14" lengthAdjust="spacing" textLength="36" x="809.0028" y="465.1873">Node</text></g><g id="elem_node11"><ellipse cx="610.0028" cy="460.4544" fill="#F1F1F1" rx="37.4228" ry="16.6744" style="stroke:#181818;stroke-width:0.5;"/><text fill="#000000" font-family="sans-serif" font-size="14" lengthAdjust="spacing" textLength="36" x="589.0028" y="465.1873">Node</text></g><g id="elem_node12"><ellipse cx="236.0028" cy="367.1044" fill="#F1F1F1" rx="37.4228" ry="16.6744" style="stroke:#181818;stroke-width:0.5;"/><text fill="#000000" font-family="sans-serif" font-size="14" lengthAdjust="spacing" textLength="36" x="215.0028" y="371.8373">Node</text></g><g id="elem_node13"><ellipse cx="126.0028" cy="367.1044" fill="#F1F1F1" rx="37.4228" ry="16.6744" style="stroke:#181818;stroke-width:0.5;"/><text fill="#000000" font-family="sans-serif" font-size="14" lengthAdjust="spacing" textLength="36" x="105.0028" y="371.8373">Node</text></g><g id="elem_node14"><ellipse cx="346.0028" cy="367.1044" fill="#F1F1F1" rx="37.4228" ry="16.6744" style="stroke:#181818;stroke-width:0.5;"/><text fill="#000000" font-family="sans-serif" font-size="14" lengthAdjust="spacing" textLength="36" x="325.0028" y="371.8373">Node</text></g><g id="elem_node15"><ellipse cx="236.0028" cy="460.4544" fill="#F1F1F1" rx="37.4228" ry="16.6744" style="stroke:#181818;stroke-width:0.5;"/><text fill="#000000" font-family="sans-serif" font-size="14" lengthAdjust="spacing" textLength="36" x="215.0028" y="465.1873">Node</text></g><g id="elem_node16"><ellipse cx="126.0028" cy="460.4544" fill="#F1F1F1" rx="37.4228" ry="16.6744" style="stroke:#181818;stroke-width:0.5;"/><text fill="#000000" font-family="sans-serif" font-size="14" lengthAdjust="spacing" textLength="36" x="105.0028" y="465.1873">Node</text></g><g id="elem_node17"><ellipse cx="346.0028" cy="460.4544" fill="#F1F1F1" rx="37.4228" ry="16.6744" style="stroke:#181818;stroke-width:0.5;"/><text fill="#000000" font-family="sans-serif" font-size="14" lengthAdjust="spacing" textLength="36" x="325.0028" y="465.1873">Node</text></g><g id="elem_node18"><ellipse cx="436.0028" cy="603.8044" fill="#90EE90" rx="37.4228" ry="16.6744" style="stroke:#181818;stroke-width:0.5;"/><text fill="#000000" font-family="sans-serif" font-size="14" lengthAdjust="spacing" textLength="36" x="415.0028" y="608.5373">Node</text></g><g id="elem_node19"><ellipse cx="546.0028" cy="603.8044" fill="#F1F1F1" rx="37.4228" ry="16.6744" style="stroke:#181818;stroke-width:0.5;"/><text fill="#000000" font-family="sans-serif" font-size="14" lengthAdjust="spacing" textLength="36" x="525.0028" y="608.5373">Node</text></g><g id="elem_node20"><ellipse cx="656.0028" cy="603.8044" fill="#F1F1F1" rx="37.4228" ry="16.6744" style="stroke:#181818;stroke-width:0.5;"/><text fill="#000000" font-family="sans-serif" font-size="14" lengthAdjust="spacing" textLength="36" x="635.0028" y="608.5373">Node</text></g><g id="elem_node21"><ellipse cx="436.0028" cy="697.1544" fill="#F1F1F1" rx="37.4228" ry="16.6744" style="stroke:#181818;stroke-width:0.5;"/><text fill="#000000" font-family="sans-serif" font-size="14" lengthAdjust="spacing" textLength="36" x="415.0028" y="701.8873">Node</text></g><g id="elem_node22"><ellipse cx="546.0028" cy="697.1544" fill="#F1F1F1" rx="37.4228" ry="16.6744" style="stroke:#181818;stroke-width:0.5;"/><text fill="#000000" font-family="sans-serif" font-size="14" lengthAdjust="spacing" textLength="36" x="525.0028" y="701.8873">Node</text></g><g id="elem_node23"><ellipse cx="656.0028" cy="697.1544" fill="#F1F1F1" rx="37.4228" ry="16.6744" style="stroke:#181818;stroke-width:0.5;"/><text fill="#000000" font-family="sans-serif" font-size="14" lengthAdjust="spacing" textLength="36" x="635.0028" y="701.8873">Node</text></g><!--link node0 to node1--><!--link node1 to node2--><!--link node3 to node4--><!--link node4 to node5--><!--link node0 to node3--><!--link node1 to node4--><!--link node2 to node5--><!--link node6 to node7--><!--link node7 to node8--><!--link node9 to node10--><!--link node10 to node11--><!--link node6 to node9--><!--link node7 to node10--><!--link node8 to node11--><!--link node12 to node13--><!--link node13 to node14--><!--link node15 to node16--><!--link node16 to node17--><!--link node12 to node15--><!--link node13 to node16--><!--link node14 to node17--><!--link node18 to node19--><!--link node19 to node20--><!--link node21 to node22--><!--link node22 to node23--><!--link node18 to node21--><!--link node19 to node22--><!--link node20 to node23--><!--link node12 to node3--><g id="link_node12_node3"><path d="M229.54,350.36 C218.37,323.14 197.8579,273.1408 186.7079,245.9708 " fill="none" id="node12-to-node3" style="stroke:#181818;stroke-width:1.0;"/><polygon fill="#181818" points="184.43,240.42,184.1464,250.2648,186.3283,245.0456,191.5474,247.2275,184.43,240.42" style="stroke:#181818;stroke-width:1.0;"/></g><!--link node18 to node12--><g id="link_node18_node12"><path d="M436.89,586.84 C437.78,555.77 435.43,486.46 401,443.77 C383.05,421.51 313.2729,394.7629 270.8929,379.9229 " fill="none" id="node18-to-node12" style="stroke:#181818;stroke-width:1.0;"/><polygon fill="#181818" points="265.23,377.94,272.4023,384.6896,269.949,379.5924,275.0462,377.1392,265.23,377.94" style="stroke:#181818;stroke-width:1.0;"/></g><!--link node0 to node14--><g id="link_node0_node14"><path d="M213.5055,142.7071 C256.6355,156.9971 327.33,183.15 343,207.08 C372.35,251.89 360.5056,314.3179 352.2856,344.7279 " fill="none" id="node0-node14" style="stroke:#181818;stroke-width:1.0;"/><polygon fill="#181818" points="207.81,140.82,215.0952,147.4476,212.5563,142.3926,217.6113,139.8536,207.81,140.82" style="stroke:#181818;stroke-width:1.0;"/><polygon fill="#181818" points="350.72,350.52,356.9299,342.8756,352.0247,345.6932,349.2071,340.788,350.72,350.52" style="stroke:#181818;stroke-width:1.0;"/></g><!--link node1 to node11--><g id="link_node1_node11"><path d="M310.7822,148.9187 C329.6022,163.5887 354.91,184.1 379,207.08 C467.77,291.72 559.7748,399.4225 593.5348,439.6825 " fill="none" id="node1-node11" style="stroke:#181818;stroke-width:1.0;"/><polygon fill="#181818" points="306.05,145.23,310.6891,153.9178,309.9935,148.3039,315.6074,147.6082,306.05,145.23" style="stroke:#181818;stroke-width:1.0;"/><polygon fill="#181818" points="597.39,444.28,594.6721,434.8136,594.1773,440.4487,588.5421,439.9539,597.39,444.28" style="stroke:#181818;stroke-width:1.0;"/></g><!--link pool0 to pool1--><!--link pool0 to pool2--><!--link pool2 to pool3--><!--link pool1 to pool3--><!--SRC=[TS-z2i8m50NWFKznMnqi66bI1mTn4bn4kZY9GsY23SP4cXRnxRrDwn_M33VmvN0kYRGjJ2CL-Ffkr4mt5qEYfybAtAxEcOu96QyHSeH9tCvu2caoW6m8-HVkhJ365Q9M4j-o1Cj9urKXl8ATmzN2WyKxWz5Mdyewr_Oy662BFh6fbBBO4f03fNJLDP0-zXB60wMmVDEyItqI8wJzUmhqK6efbJrI2gsmFyw3yn_FWhC1n_C0]--></g></svg>