<?xml version="1.0" encoding="us-ascii" standalone="no"?><svg xmlns="http://www.w3.org/2000/svg" xmlns:xlink="http://www.w3.org/1999/xlink" contentStyleType="text/css" height="625px" preserveAspectRatio="none" style="width:603px;height:625px;background:#FFFFFF;" version="1.1" viewBox="0 0 603 625" width="603px" zoomAndPan="magnify"><defs/><g><!--cluster L1--><g id="cluster_L1"><rect fill="none" height="93.07" rx="2.5" ry="2.5" style="stroke:#181818;stroke-width:1.0;" width="156" x="276" y="7"/><text fill="#000000" font-family="sans-serif" font-size="14" font-weight="bold" lengthAdjust="spacing" textLength="15.875" x="346.0625" y="23.9659">L1</text></g><!--cluster Prover--><g id="cluster_Prover"><rect fill="none" height="79.06" rx="2.5" ry="2.5" style="stroke:#181818;stroke-width:1.0;" width="388" x="160" y="243.28"/><text fill="#000000" font-family="sans-serif" font-size="14" font-weight="bold" lengthAdjust="spacing" textLength="45.625" x="331.1875" y="260.2459">Prover</text></g><!--cluster L2--><g id="cluster_L2"><rect fill="none" height="93.07" rx="2.5" ry="2.5" style="stroke:#181818;stroke-width:1.0;" width="330" x="191" y="346.34"/><text fill="#000000" font-family="sans-serif" font-size="14" font-weight="bold" lengthAdjust="spacing" textLength="15.875" x="348.0625" y="363.3059">L2</text></g><!--cluster DA--><g id="cluster_DA"><rect fill="none" height="130.07" rx="35" ry="35" style="stroke:#181818;stroke-width:1.0;" width="590" x="7" y="489.41"/><text fill="#000000" font-family="sans-serif" font-size="14" font-weight="bold" lengthAdjust="spacing" textLength="154.875" x="224.5625" y="511.3759">Data Storage Network</text></g><!--entity rollup_contract--><g id="elem_rollup_contract"><rect fill="#F1F1F1" height="39.0679" rx="2.5" ry="2.5" style="stroke:#181818;stroke-width:0.5;" width="124" x="292" y="45"/><text fill="#000000" font-family="sans-serif" font-size="14" lengthAdjust="spacing" textLength="104" x="302" y="69.9659">Rollup Contract</text></g><!--entity state1--><g id="elem_state1"><rect fill="#F1F1F1" height="25.0679" rx="2.5" ry="2.5" style="stroke:#181818;stroke-width:0.5;" width="61" x="175.5" y="281.28"/><text fill="#000000" font-family="sans-serif" font-size="14" lengthAdjust="spacing" textLength="41" x="185.5" y="299.2459">state1</text></g><!--entity i1--><g id="elem_i1"><ellipse cx="280" cy="293.81" fill="#F1F1F1" rx="8" ry="8" style="stroke:#181818;stroke-width:0.5;"/></g><!--entity state2--><g id="elem_state2"><rect fill="#F1F1F1" height="25.0679" rx="2.5" ry="2.5" style="stroke:#181818;stroke-width:0.5;" width="61" x="323.5" y="281.28"/><text fill="#000000" font-family="sans-serif" font-size="14" lengthAdjust="spacing" textLength="41" x="333.5" y="299.2459">state2</text></g><!--entity i2--><g id="elem_i2"><ellipse cx="428" cy="293.81" fill="#F1F1F1" rx="8" ry="8" style="stroke:#181818;stroke-width:0.5;"/></g><!--entity state3--><g id="elem_state3"><rect fill="#F1F1F1" height="25.0679" rx="2.5" ry="2.5" style="stroke:#181818;stroke-width:0.5;" width="61" x="471.5" y="281.28"/><text fill="#000000" font-family="sans-serif" font-size="14" lengthAdjust="spacing" textLength="41" x="481.5" y="299.2459">state3</text></g><!--entity block1--><g id="elem_block1"><rect fill="#F1F1F1" height="35.0679" rx="2.5" ry="2.5" style="stroke:#181818;stroke-width:0.5;" width="59" x="211.5" y="388.34"/><rect fill="#F1F1F1" height="35.0679" rx="2.5" ry="2.5" style="stroke:#181818;stroke-width:0.5;" width="59" x="207.5" y="384.34"/><text fill="#000000" font-family="sans-serif" font-size="14" lengthAdjust="spacing" textLength="43" x="215.5" y="407.3059">block1</text></g><!--entity block2--><g id="elem_block2"><rect fill="#F1F1F1" height="35.0679" rx="2.5" ry="2.5" style="stroke:#181818;stroke-width:0.5;" width="59" x="445.5" y="388.34"/><rect fill="#F1F1F1" height="35.0679" rx="2.5" ry="2.5" style="stroke:#181818;stroke-width:0.5;" width="59" x="441.5" y="384.34"/><text fill="#000000" font-family="sans-serif" font-size="14" lengthAdjust="spacing" textLength="43" x="449.5" y="407.3059">block2</text></g><!--entity DAContract--><g id="elem_DAContract"><rect fill="#F1F1F1" height="39.0679" rx="2.5" ry="2.5" style="stroke:#181818;stroke-width:0.5;" width="100" x="306" y="384.34"/><text fill="#000000" font-family="sans-serif" font-size="14" lengthAdjust="spacing" textLength="80" x="316" y="409.3059">DA Contract</text></g><text fill="#000000" font-family="sans-serif" font-size="14" lengthAdjust="spacing" textLength="4" x="354" y="467.308">&#160;</text><rect fill="#F1F1F1" height="12" style="stroke:#181818;stroke-width:1.5;" width="12" x="350" y="483.41"/><!--entity node1--><g id="elem_node1"><path d="M228,565.41 C228,555.41 259,555.41 259,555.41 C259,555.41 290,555.41 290,565.41 L290,593.4779 C290,603.4779 259,603.4779 259,603.4779 C259,603.4779 228,603.4779 228,593.4779 L228,565.41 " fill="#F1F1F1" style="stroke:#181818;stroke-width:0.5;"/><path d="M228,565.41 C228,575.41 259,575.41 259,575.41 C259,575.41 290,575.41 290,565.41 " fill="none" style="stroke:#181818;stroke-width:0.5;"/><text fill="#000000" font-family="sans-serif" font-size="14" lengthAdjust="spacing" textLength="42" x="238" y="594.3759">node1</text></g><!--entity node2--><g id="elem_node2"><path d="M325,565.41 C325,555.41 356,555.41 356,555.41 C356,555.41 387,555.41 387,565.41 L387,593.4779 C387,603.4779 356,603.4779 356,603.4779 C356,603.4779 325,603.4779 325,593.4779 L325,565.41 " fill="#F1F1F1" style="stroke:#181818;stroke-width:0.5;"/><path d="M325,565.41 C325,575.41 356,575.41 356,575.41 C356,575.41 387,575.41 387,565.41 " fill="none" style="stroke:#181818;stroke-width:0.5;"/><text fill="#000000" font-family="sans-serif" font-size="14" lengthAdjust="spacing" textLength="42" x="335" y="594.3759">node2</text></g><!--entity node3--><g id="elem_node3"><path d="M422,565.41 C422,555.41 453,555.41 453,555.41 C453,555.41 484,555.41 484,565.41 L484,593.4779 C484,603.4779 453,603.4779 453,603.4779 C453,603.4779 422,603.4779 422,593.4779 L422,565.41 " fill="#F1F1F1" style="stroke:#181818;stroke-width:0.5;"/><path d="M422,565.41 C422,575.41 453,575.41 453,575.41 C453,575.41 484,575.41 484,565.41 " fill="none" style="stroke:#181818;stroke-width:0.5;"/><text fill="#000000" font-family="sans-serif" font-size="14" lengthAdjust="spacing" textLength="42" x="432" y="594.3759">node3</text></g><!--entity node4--><g id="elem_node4"><path d="M519,565.41 C519,555.41 550,555.41 550,555.41 C550,555.41 581,555.41 581,565.41 L581,593.4779 C581,603.4779 550,603.4779 550,603.4779 C550,603.4779 519,603.4779 519,593.4779 L519,565.41 " fill="#F1F1F1" style="stroke:#181818;stroke-width:0.5;"/><path d="M519,565.41 C519,575.41 550,575.41 550,575.41 C550,575.41 581,575.41 581,565.41 " fill="none" style="stroke:#181818;stroke-width:0.5;"/><text fill="#000000" font-family="sans-serif" font-size="14" lengthAdjust="spacing" textLength="42" x="529" y="594.3759">node4</text></g><!--entity proof1--><g id="elem_proof1"><path d="M157.5,146.57 L157.5,218.7738 A2.5,2.5 0 0 0 160,221.2738 L334,221.2738 A2.5,2.5 0 0 0 336.5,218.7738 L336.5,154.07 L326.5,144.07 L160,144.07 A2.5,2.5 0 0 0 157.5,146.57 " fill="#F1F1F1" style="stroke:#181818;stroke-width:0.5;"/><path d="M326.5,144.07 L326.5,151.57 A2.5,2.5 0 0 0 329,154.07 L336.5,154.07 " fill="#F1F1F1" style="stroke:#181818;stroke-width:0.5;"/><text fill="#000000" font-family="sans-serif" font-size="14" font-weight="bold" lengthAdjust="spacing" textLength="16.875" x="167.5" y="169.0359">TX</text><text fill="#000000" font-family="sans-serif" font-size="14" lengthAdjust="spacing" textLength="79" x="167.5" y="188.1039">1-to-2 proof</text><text fill="#000000" font-family="sans-serif" font-size="14" lengthAdjust="spacing" textLength="159" x="167.5" y="207.1718">block1 availability proof</text></g><!--entity proof2--><g id="elem_proof2"><path d="M371.5,146.57 L371.5,218.7738 A2.5,2.5 0 0 0 374,221.2738 L548,221.2738 A2.5,2.5 0 0 0 550.5,218.7738 L550.5,154.07 L540.5,144.07 L374,144.07 A2.5,2.5 0 0 0 371.5,146.57 " fill="#F1F1F1" style="stroke:#181818;stroke-width:0.5;"/><path d="M540.5,144.07 L540.5,151.57 A2.5,2.5 0 0 0 543,154.07 L550.5,154.07 " fill="#F1F1F1" style="stroke:#181818;stroke-width:0.5;"/><text fill="#000000" font-family="sans-serif" font-size="14" font-weight="bold" lengthAdjust="spacing" textLength="16.875" x="381.5" y="169.0359">TX</text><text fill="#000000" font-family="sans-serif" font-size="14" lengthAdjust="spacing" textLength="79" x="381.5" y="188.1039">2-to-3 proof</text><text fill="#000000" font-family="sans-serif" font-size="14" lengthAdjust="spacing" textLength="159" x="381.5" y="207.1718">block2 availability proof</text></g><!--link proof1 to proof2--><!--link state1 to i1--><g id="link_state1_i1"><path d="M236.93,293.81 C248.15,293.81 259.36,293.81 270.58,293.81 " fill="none" id="state1-i1" style="stroke:#181818;stroke-width:1.0;"/></g><!--link i1 to state2--><g id="link_i1_state2"><path d="M289.25,293.81 C300.55,293.81 305.85,293.81 317.14,293.81 " fill="none" id="i1-to-state2" style="stroke:#181818;stroke-width:1.0;"/><polygon fill="#181818" points="323.14,293.81,314.14,289.81,318.14,293.81,314.14,297.81,323.14,293.81" style="stroke:#181818;stroke-width:1.0;"/></g><!--link state2 to i2--><g id="link_state2_i2"><path d="M384.93,293.81 C396.15,293.81 407.36,293.81 418.58,293.81 " fill="none" id="state2-i2" style="stroke:#181818;stroke-width:1.0;"/></g><!--link i2 to state3--><g id="link_i2_state3"><path d="M437.25,293.81 C448.55,293.81 453.85,293.81 465.14,293.81 " fill="none" id="i2-to-state3" style="stroke:#181818;stroke-width:1.0;"/><polygon fill="#181818" points="471.14,293.81,462.14,289.81,466.14,293.81,462.14,297.81,471.14,293.81" style="stroke:#181818;stroke-width:1.0;"/></g><!--link proof1 to i1--><g id="link_proof1_i1"><path d="M258.45,221.54 C265.3,244.19 273.44,271.1 277.47,284.44 " fill="none" id="proof1-i1" style="stroke:#181818;stroke-width:1.0;"/></g><!--link proof2 to i2--><g id="link_proof2_i2"><path d="M449.55,221.54 C442.7,244.19 434.56,271.1 430.53,284.44 " fill="none" id="proof2-i2" style="stroke:#181818;stroke-width:1.0;"/></g><!--reverse link rollup_contract to proof1--><g id="link_rollup_contract_proof1"><path d="M332.504,88.8722 C317.704,104.9322 300.06,124.08 281.73,143.98 " fill="none" id="rollup_contract-backto-proof1" style="stroke:#181818;stroke-width:1.0;"/><polygon fill="#181818" points="336.57,84.46,327.5295,88.3676,333.1816,88.1368,333.4124,93.789,336.57,84.46" style="stroke:#181818;stroke-width:1.0;"/></g><!--reverse link rollup_contract to proof2--><g id="link_rollup_contract_proof2"><path d="M375.496,88.8722 C390.296,104.9322 407.94,124.08 426.27,143.98 " fill="none" id="rollup_contract-backto-proof2" style="stroke:#181818;stroke-width:1.0;"/><polygon fill="#181818" points="371.43,84.46,374.5876,93.789,374.8184,88.1368,380.4705,88.3676,371.43,84.46" style="stroke:#181818;stroke-width:1.0;"/></g><!--reverse link i1 to DAContract--><g id="link_i1_DAContract"><path d="M289.4114,308.1979 C301.5914,325.5179 326.12,360.39 342.79,384.1 " fill="none" id="i1-backto-DAContract" style="stroke:#181818;stroke-width:1.0;"/><polygon fill="#181818" points="285.96,303.29,287.8652,312.9528,288.8362,307.3799,294.4091,308.3509,285.96,303.29" style="stroke:#181818;stroke-width:1.0;"/></g><!--reverse link i2 to DAContract--><g id="link_i2_DAContract"><path d="M419.0231,308.2832 C407.4831,325.6032 384.31,360.39 368.51,384.1 " fill="none" id="i2-backto-DAContract" style="stroke:#181818;stroke-width:1.0;"/><polygon fill="#181818" points="422.35,303.29,414.0309,308.5619,419.5776,307.451,420.6885,312.9977,422.35,303.29" style="stroke:#181818;stroke-width:1.0;"/></g><!--link block1 to DAContract--><!--link DAContract to block2--><!--reverse link i1 to block1--><g id="link_i1_block1"><path d="M274.652,308.8999 C268.082,326.2199 255.12,360.39 246.12,384.1 " fill="none" id="i1-backto-block1" style="stroke:#181818;stroke-width:1.0;"/><polygon fill="#181818" points="276.78,303.29,269.848,310.2862,275.0066,307.965,277.3279,313.1236,276.78,303.29" style="stroke:#181818;stroke-width:1.0;"/></g><!--reverse link i2 to block2--><g id="link_i2_block2"><path d="M433.8359,308.8292 C441.0459,326.1492 455.31,360.39 465.18,384.1 " fill="none" id="i2-backto-block2" style="stroke:#181818;stroke-width:1.0;"/><polygon fill="#181818" points="431.53,303.29,431.296,313.1361,433.4516,307.906,438.6816,310.0616,431.53,303.29" style="stroke:#181818;stroke-width:1.0;"/></g><!--link node1 to node2--><!--link node2 to node3--><!--link node3 to node4--><!--link DAp to node1--><!--link DAp to node2--><!--link DAp to node3--><!--link DAp to node4--><!--link block1 to DAp--><g id="link_block1_DAp"><path d="M258.85,423.49 C267.52,431.25 277.98,440.12 288,447.41 C309.63,463.14 332.2398,475.7491 344.4798,482.2991 " fill="none" id="block1-to-DAp" style="stroke:#181818;stroke-width:1.0;"/><polygon fill="#181818" points="349.77,485.13,343.722,477.3568,345.3615,482.7709,339.9475,484.4104,349.77,485.13" style="stroke:#181818;stroke-width:1.0;"/></g><!--link DAContract to DAp--><g id="link_DAContract_DAp"><path d="M356,429.83 C356,449.09 356,465.67 356,477.26 " fill="none" id="DAContract-DAp" style="stroke:#181818;stroke-width:1.0;"/><polygon fill="#181818" points="356,423.83,352,432.83,356,428.83,360,432.83,356,423.83" style="stroke:#181818;stroke-width:1.0;"/><polygon fill="#181818" points="356,483.26,360,474.26,356,478.26,352,474.26,356,483.26" style="stroke:#181818;stroke-width:1.0;"/></g><!--link block2 to DAp--><g id="link_block2_DAp"><path d="M453.15,423.49 C444.48,431.25 434.02,440.12 424,447.41 C402.37,463.14 379.7602,475.7491 367.5202,482.2991 " fill="none" id="block2-to-DAp" style="stroke:#181818;stroke-width:1.0;"/><polygon fill="#181818" points="362.23,485.13,372.0525,484.4104,366.6385,482.7709,368.278,477.3568,362.23,485.13" style="stroke:#181818;stroke-width:1.0;"/></g><!--SRC=[VLB1ReCm3BtdAwnUUa8JeSSAgLftgwPfss7IEaq10erA4nH2fsdQloy9fb2Wum3u-UNPp_4ICi4ApKwGAmqx2bgLPNC29U717BZcpOcuH_FKC5cK77OX_12mJmyjdjsX2kwLD9gbPW6iReMgpnGnGdwlP9wqEdDjfRnModG6jM66XpuMqd2TizHgWrSJuOX7R_3eY1UHje8hFp11qKHgkxIeKBA6f5JfCPo7wTZoTdDjTxlfGbUfDagpmj6OOV22qICtNqeVaOyTL4gRhlljfl9OPaybhEOWLOOJkOBe58gcqCgFdEJ2zRjEujUtzLqIxsKO61LGgBHIEUnbQnlOcOcI9Q8KvhlD-PRyNpWLeKuakXQX_ufGGben2FJxGMGPbnz1tANQoxSfKHnCuEvRNA8Ohnm8VYyiIWGTiUo5B_4g8MWgBuK0HS2My-ekG7-23aANxrgrO3pPvPPr8qb8lmj8iIrCCLkbQzCRw6SoNARXkJ4DDxFNwOeDtBQ5Y5-aiGBkad_FvYAVYsPpgujeK_KPjy6eDmT7y_1g2WzS-O5Kmqci4UfyOlW7]--></g></svg>