<?xml version="1.0" encoding="us-ascii" standalone="no"?><svg xmlns="http://www.w3.org/2000/svg" xmlns:xlink="http://www.w3.org/1999/xlink" contentStyleType="text/css" height="445px" preserveAspectRatio="none" style="width:401px;height:445px;background:#FFFFFF;" version="1.1" viewBox="0 0 401 445" width="401px" zoomAndPan="magnify"><defs/><g><!--cluster L1--><g id="cluster_L1"><rect fill="none" height="93.07" rx="2.5" ry="2.5" style="stroke:#181818;stroke-width:1.0;" width="156" x="123" y="7"/><text fill="#000000" font-family="sans-serif" font-size="14" font-weight="bold" lengthAdjust="spacing" textLength="15.875" x="193.0625" y="23.9659">L1</text></g><!--cluster Prover--><g id="cluster_Prover"><rect fill="none" height="79.07" rx="2.5" ry="2.5" style="stroke:#181818;stroke-width:1.0;" width="388" x="7" y="243.27"/><text fill="#000000" font-family="sans-serif" font-size="14" font-weight="bold" lengthAdjust="spacing" textLength="45.625" x="178.1875" y="260.2359">Prover</text></g><!--cluster L2--><g id="cluster_L2"><rect fill="none" height="93.07" rx="2.5" ry="2.5" style="stroke:#181818;stroke-width:1.0;" width="194" x="104" y="346.34"/><text fill="#000000" font-family="sans-serif" font-size="14" font-weight="bold" lengthAdjust="spacing" textLength="15.875" x="193.0625" y="363.3059">L2</text></g><!--entity rollup_contract--><g id="elem_rollup_contract"><rect fill="#F1F1F1" height="39.0679" rx="2.5" ry="2.5" style="stroke:#181818;stroke-width:0.5;" width="124" x="139" y="45"/><text fill="#000000" font-family="sans-serif" font-size="14" lengthAdjust="spacing" textLength="104" x="149" y="69.9659">Rollup Contract</text></g><!--entity state1--><g id="elem_state1"><rect fill="#F1F1F1" height="25.0679" rx="2.5" ry="2.5" style="stroke:#181818;stroke-width:0.5;" width="61" x="22.5" y="281.27"/><text fill="#000000" font-family="sans-serif" font-size="14" lengthAdjust="spacing" textLength="41" x="32.5" y="299.2359">state1</text></g><!--entity i1--><g id="elem_i1"><ellipse cx="127" cy="293.81" fill="#F1F1F1" rx="8" ry="8" style="stroke:#181818;stroke-width:0.5;"/></g><!--entity state2--><g id="elem_state2"><rect fill="#F1F1F1" height="25.0679" rx="2.5" ry="2.5" style="stroke:#181818;stroke-width:0.5;" width="61" x="170.5" y="281.27"/><text fill="#000000" font-family="sans-serif" font-size="14" lengthAdjust="spacing" textLength="41" x="180.5" y="299.2359">state2</text></g><!--entity i2--><g id="elem_i2"><ellipse cx="275" cy="293.81" fill="#F1F1F1" rx="8" ry="8" style="stroke:#181818;stroke-width:0.5;"/></g><!--entity state3--><g id="elem_state3"><rect fill="#F1F1F1" height="25.0679" rx="2.5" ry="2.5" style="stroke:#181818;stroke-width:0.5;" width="61" x="318.5" y="281.27"/><text fill="#000000" font-family="sans-serif" font-size="14" lengthAdjust="spacing" textLength="41" x="328.5" y="299.2359">state3</text></g><!--entity block1--><g id="elem_block1"><rect fill="#F1F1F1" height="35.0679" rx="2.5" ry="2.5" style="stroke:#181818;stroke-width:0.5;" width="59" x="124.5" y="388.34"/><rect fill="#F1F1F1" height="35.0679" rx="2.5" ry="2.5" style="stroke:#181818;stroke-width:0.5;" width="59" x="120.5" y="384.34"/><text fill="#000000" font-family="sans-serif" font-size="14" lengthAdjust="spacing" textLength="43" x="128.5" y="407.3059">block1</text></g><!--entity block2--><g id="elem_block2"><rect fill="#F1F1F1" height="35.0679" rx="2.5" ry="2.5" style="stroke:#181818;stroke-width:0.5;" width="59" x="222.5" y="388.34"/><rect fill="#F1F1F1" height="35.0679" rx="2.5" ry="2.5" style="stroke:#181818;stroke-width:0.5;" width="59" x="218.5" y="384.34"/><text fill="#000000" font-family="sans-serif" font-size="14" lengthAdjust="spacing" textLength="43" x="226.5" y="407.3059">block2</text></g><!--entity proof1--><g id="elem_proof1"><path d="M80.5,146.57 L80.5,218.7738 A2.5,2.5 0 0 0 83,221.2738 L181,221.2738 A2.5,2.5 0 0 0 183.5,218.7738 L183.5,154.07 L173.5,144.07 L83,144.07 A2.5,2.5 0 0 0 80.5,146.57 " fill="#F1F1F1" style="stroke:#181818;stroke-width:0.5;"/><path d="M173.5,144.07 L173.5,151.57 A2.5,2.5 0 0 0 176,154.07 L183.5,154.07 " fill="#F1F1F1" style="stroke:#181818;stroke-width:0.5;"/><text fill="#000000" font-family="sans-serif" font-size="14" font-weight="bold" lengthAdjust="spacing" textLength="16.875" x="90.5" y="169.0359">TX</text><text fill="#000000" font-family="sans-serif" font-size="14" lengthAdjust="spacing" textLength="79" x="90.5" y="188.1039">1-to-2 proof</text><text fill="#000000" font-family="sans-serif" font-size="14" lengthAdjust="spacing" textLength="77" x="90.5" y="207.1718">block1 data</text></g><!--entity proof2--><g id="elem_proof2"><path d="M218.5,146.57 L218.5,218.7738 A2.5,2.5 0 0 0 221,221.2738 L319,221.2738 A2.5,2.5 0 0 0 321.5,218.7738 L321.5,154.07 L311.5,144.07 L221,144.07 A2.5,2.5 0 0 0 218.5,146.57 " fill="#F1F1F1" style="stroke:#181818;stroke-width:0.5;"/><path d="M311.5,144.07 L311.5,151.57 A2.5,2.5 0 0 0 314,154.07 L321.5,154.07 " fill="#F1F1F1" style="stroke:#181818;stroke-width:0.5;"/><text fill="#000000" font-family="sans-serif" font-size="14" font-weight="bold" lengthAdjust="spacing" textLength="16.875" x="228.5" y="169.0359">TX</text><text fill="#000000" font-family="sans-serif" font-size="14" lengthAdjust="spacing" textLength="79" x="228.5" y="188.1039">2-to-3 proof</text><text fill="#000000" font-family="sans-serif" font-size="14" lengthAdjust="spacing" textLength="77" x="228.5" y="207.1718">block2 data</text></g><!--link proof1 to proof2--><!--link state1 to i1--><g id="link_state1_i1"><path d="M83.93,293.81 C95.15,293.81 106.36,293.81 117.58,293.81 " fill="none" id="state1-i1" style="stroke:#181818;stroke-width:1.0;"/></g><!--link i1 to state2--><g id="link_i1_state2"><path d="M136.25,293.81 C147.55,293.81 152.85,293.81 164.14,293.81 " fill="none" id="i1-to-state2" style="stroke:#181818;stroke-width:1.0;"/><polygon fill="#181818" points="170.14,293.81,161.14,289.81,165.14,293.81,161.14,297.81,170.14,293.81" style="stroke:#181818;stroke-width:1.0;"/></g><!--link state2 to i2--><g id="link_state2_i2"><path d="M231.93,293.81 C243.15,293.81 254.36,293.81 265.58,293.81 " fill="none" id="state2-i2" style="stroke:#181818;stroke-width:1.0;"/></g><!--link i2 to state3--><g id="link_i2_state3"><path d="M284.25,293.81 C295.55,293.81 300.85,293.81 312.14,293.81 " fill="none" id="i2-to-state3" style="stroke:#181818;stroke-width:1.0;"/><polygon fill="#181818" points="318.14,293.81,309.14,289.81,313.14,293.81,309.14,297.81,318.14,293.81" style="stroke:#181818;stroke-width:1.0;"/></g><!--link i1 to block1--><g id="link_i1_block1"><path d="M128.96,303.29 C132.97,320.6 142.17,360.39 147.66,384.1 " fill="none" id="i1-block1" style="stroke:#181818;stroke-width:1.0;"/></g><!--link i2 to block2--><g id="link_i2_block2"><path d="M273.04,303.29 C269.03,320.6 259.83,360.39 254.34,384.1 " fill="none" id="i2-block2" style="stroke:#181818;stroke-width:1.0;"/></g><!--link proof1 to i1--><g id="link_proof1_i1"><path d="M130.27,221.54 C129.23,244.19 127.99,271.1 127.38,284.44 " fill="none" id="proof1-i1" style="stroke:#181818;stroke-width:1.0;"/></g><!--link proof2 to i2--><g id="link_proof2_i2"><path d="M271.73,221.54 C272.77,244.19 274.01,271.1 274.62,284.44 " fill="none" id="proof2-i2" style="stroke:#181818;stroke-width:1.0;"/></g><!--reverse link rollup_contract to proof1--><g id="link_rollup_contract_proof1"><path d="M186.6948,89.6079 C177.1448,105.6779 166.22,124.08 154.4,143.98 " fill="none" id="rollup_contract-backto-proof1" style="stroke:#181818;stroke-width:1.0;"/><polygon fill="#181818" points="189.76,84.45,181.7235,90.1434,187.2056,88.7483,188.6008,94.2304,189.76,84.45" style="stroke:#181818;stroke-width:1.0;"/></g><!--reverse link rollup_contract to proof2--><g id="link_rollup_contract_proof2"><path d="M215.3052,89.6079 C224.8552,105.6779 235.78,124.08 247.6,143.98 " fill="none" id="rollup_contract-backto-proof2" style="stroke:#181818;stroke-width:1.0;"/><polygon fill="#181818" points="212.24,84.45,213.3992,94.2304,214.7944,88.7483,220.2765,90.1434,212.24,84.45" style="stroke:#181818;stroke-width:1.0;"/></g><!--SRC=[TL4zJyCm4DtzAqvTc2pawrfbGMmT4690eWWvZfDO97PqSLWG_nr_jRGfzHBTk_VUlRlSGMDaHtA4rX7i4SWDmpA2i_3eUqrw6Lbyf9MNjXiqx0LyCmZl3zeyHz443yvwaiflGCxPQFfG1MFivyBcYToNfc2Ll9Ia1cOllHQfDjPhQgKAtf3SZ5Zny0OFLxmjonFY-BCbi2oXGig06cTdg0UdFiN_CARuyRKcRhohgvVNtNrT7QpWtd64YPnhuM2p2pJIovGeuU9QXb6slPJXIeQCPJbmUkjDqsZxpgjZAzyhj4pNUnvFP4vLLQu4h7nFB6G6LwnmevAQBrCoAcbo6KObvrYKRGoUbR5_Z1d0wkhNPzQD9cE_]--></g></svg>