<?xml version="1.0" encoding="us-ascii" standalone="no"?><svg xmlns="http://www.w3.org/2000/svg" xmlns:xlink="http://www.w3.org/1999/xlink" contentStyleType="text/css" height="625px" preserveAspectRatio="none" style="width:627px;height:625px;background:#FFFFFF;" version="1.1" viewBox="0 0 627 625" width="627px" zoomAndPan="magnify"><defs/><g><!--cluster L1--><g id="cluster_L1"><rect fill="none" height="93.07" rx="2.5" ry="2.5" style="stroke:#181818;stroke-width:1.0;" width="156" x="300" y="7"/><text fill="#000000" font-family="sans-serif" font-size="14" font-weight="bold" lengthAdjust="spacing" textLength="15.875" x="370.0625" y="23.9659">L1</text></g><!--cluster Prover--><g id="cluster_Prover"><rect fill="none" height="79.06" rx="2.5" ry="2.5" style="stroke:#181818;stroke-width:1.0;" width="388" x="184" y="243.28"/><text fill="#000000" font-family="sans-serif" font-size="14" font-weight="bold" lengthAdjust="spacing" textLength="45.625" x="355.1875" y="260.2459">Prover</text></g><!--cluster L2--><g id="cluster_L2"><rect fill="none" height="93.07" rx="2.5" ry="2.5" style="stroke:#181818;stroke-width:1.0;" width="330" x="215" y="346.34"/><text fill="#000000" font-family="sans-serif" font-size="14" font-weight="bold" lengthAdjust="spacing" textLength="15.875" x="372.0625" y="363.3059">L2</text></g><!--cluster DA--><g id="cluster_DA"><rect fill="none" height="130.07" rx="35" ry="35" style="stroke:#181818;stroke-width:1.0;" width="614" x="7" y="489.41"/><text fill="#000000" font-family="sans-serif" font-size="14" font-weight="bold" lengthAdjust="spacing" textLength="178.0625" x="224.9688" y="511.3759">Data Availability Network</text></g><!--entity rollup_contract--><g id="elem_rollup_contract"><rect fill="#F1F1F1" height="39.0679" rx="2.5" ry="2.5" style="stroke:#181818;stroke-width:0.5;" width="124" x="316" y="45"/><text fill="#000000" font-family="sans-serif" font-size="14" lengthAdjust="spacing" textLength="104" x="326" y="69.9659">Rollup Contract</text></g><!--entity state1--><g id="elem_state1"><rect fill="#F1F1F1" height="25.0679" rx="2.5" ry="2.5" style="stroke:#181818;stroke-width:0.5;" width="61" x="199.5" y="281.28"/><text fill="#000000" font-family="sans-serif" font-size="14" lengthAdjust="spacing" textLength="41" x="209.5" y="299.2459">state1</text></g><!--entity i1--><g id="elem_i1"><ellipse cx="304" cy="293.81" fill="#F1F1F1" rx="8" ry="8" style="stroke:#181818;stroke-width:0.5;"/></g><!--entity state2--><g id="elem_state2"><rect fill="#F1F1F1" height="25.0679" rx="2.5" ry="2.5" style="stroke:#181818;stroke-width:0.5;" width="61" x="347.5" y="281.28"/><text fill="#000000" font-family="sans-serif" font-size="14" lengthAdjust="spacing" textLength="41" x="357.5" y="299.2459">state2</text></g><!--entity i2--><g id="elem_i2"><ellipse cx="452" cy="293.81" fill="#F1F1F1" rx="8" ry="8" style="stroke:#181818;stroke-width:0.5;"/></g><!--entity state3--><g id="elem_state3"><rect fill="#F1F1F1" height="25.0679" rx="2.5" ry="2.5" style="stroke:#181818;stroke-width:0.5;" width="61" x="495.5" y="281.28"/><text fill="#000000" font-family="sans-serif" font-size="14" lengthAdjust="spacing" textLength="41" x="505.5" y="299.2459">state3</text></g><!--entity block1--><g id="elem_block1"><rect fill="#F1F1F1" height="35.0679" rx="2.5" ry="2.5" style="stroke:#181818;stroke-width:0.5;" width="59" x="235.5" y="388.34"/><rect fill="#F1F1F1" height="35.0679" rx="2.5" ry="2.5" style="stroke:#181818;stroke-width:0.5;" width="59" x="231.5" y="384.34"/><text fill="#000000" font-family="sans-serif" font-size="14" lengthAdjust="spacing" textLength="43" x="239.5" y="407.3059">block1</text></g><!--entity block2--><g id="elem_block2"><rect fill="#F1F1F1" height="35.0679" rx="2.5" ry="2.5" style="stroke:#181818;stroke-width:0.5;" width="59" x="469.5" y="388.34"/><rect fill="#F1F1F1" height="35.0679" rx="2.5" ry="2.5" style="stroke:#181818;stroke-width:0.5;" width="59" x="465.5" y="384.34"/><text fill="#000000" font-family="sans-serif" font-size="14" lengthAdjust="spacing" textLength="43" x="473.5" y="407.3059">block2</text></g><!--entity DAContract--><g id="elem_DAContract"><rect fill="#F1F1F1" height="39.0679" rx="2.5" ry="2.5" style="stroke:#181818;stroke-width:0.5;" width="100" x="330" y="384.34"/><text fill="#000000" font-family="sans-serif" font-size="14" lengthAdjust="spacing" textLength="80" x="340" y="409.3059">DA Contract</text></g><text fill="#000000" font-family="sans-serif" font-size="14" lengthAdjust="spacing" textLength="4" x="378" y="467.308">&#160;</text><rect fill="#F1F1F1" height="12" style="stroke:#181818;stroke-width:1.5;" width="12" x="374" y="483.41"/><!--entity node1--><g id="elem_node1"><path d="M252,565.41 C252,555.41 283,555.41 283,555.41 C283,555.41 314,555.41 314,565.41 L314,593.4779 C314,603.4779 283,603.4779 283,603.4779 C283,603.4779 252,603.4779 252,593.4779 L252,565.41 " fill="#F1F1F1" style="stroke:#181818;stroke-width:0.5;"/><path d="M252,565.41 C252,575.41 283,575.41 283,575.41 C283,575.41 314,575.41 314,565.41 " fill="none" style="stroke:#181818;stroke-width:0.5;"/><text fill="#000000" font-family="sans-serif" font-size="14" lengthAdjust="spacing" textLength="42" x="262" y="594.3759">node1</text></g><!--entity node2--><g id="elem_node2"><path d="M349,565.41 C349,555.41 380,555.41 380,555.41 C380,555.41 411,555.41 411,565.41 L411,593.4779 C411,603.4779 380,603.4779 380,603.4779 C380,603.4779 349,603.4779 349,593.4779 L349,565.41 " fill="#F1F1F1" style="stroke:#181818;stroke-width:0.5;"/><path d="M349,565.41 C349,575.41 380,575.41 380,575.41 C380,575.41 411,575.41 411,565.41 " fill="none" style="stroke:#181818;stroke-width:0.5;"/><text fill="#000000" font-family="sans-serif" font-size="14" lengthAdjust="spacing" textLength="42" x="359" y="594.3759">node2</text></g><!--entity node3--><g id="elem_node3"><path d="M446,565.41 C446,555.41 477,555.41 477,555.41 C477,555.41 508,555.41 508,565.41 L508,593.4779 C508,603.4779 477,603.4779 477,603.4779 C477,603.4779 446,603.4779 446,593.4779 L446,565.41 " fill="#F1F1F1" style="stroke:#181818;stroke-width:0.5;"/><path d="M446,565.41 C446,575.41 477,575.41 477,575.41 C477,575.41 508,575.41 508,565.41 " fill="none" style="stroke:#181818;stroke-width:0.5;"/><text fill="#000000" font-family="sans-serif" font-size="14" lengthAdjust="spacing" textLength="42" x="456" y="594.3759">node3</text></g><!--entity node4--><g id="elem_node4"><path d="M543,565.41 C543,555.41 574,555.41 574,555.41 C574,555.41 605,555.41 605,565.41 L605,593.4779 C605,603.4779 574,603.4779 574,603.4779 C574,603.4779 543,603.4779 543,593.4779 L543,565.41 " fill="#F1F1F1" style="stroke:#181818;stroke-width:0.5;"/><path d="M543,565.41 C543,575.41 574,575.41 574,575.41 C574,575.41 605,575.41 605,565.41 " fill="none" style="stroke:#181818;stroke-width:0.5;"/><text fill="#000000" font-family="sans-serif" font-size="14" lengthAdjust="spacing" textLength="42" x="553" y="594.3759">node4</text></g><!--entity proof1--><g id="elem_proof1"><path d="M181.5,146.57 L181.5,218.7738 A2.5,2.5 0 0 0 184,221.2738 L358,221.2738 A2.5,2.5 0 0 0 360.5,218.7738 L360.5,154.07 L350.5,144.07 L184,144.07 A2.5,2.5 0 0 0 181.5,146.57 " fill="#F1F1F1" style="stroke:#181818;stroke-width:0.5;"/><path d="M350.5,144.07 L350.5,151.57 A2.5,2.5 0 0 0 353,154.07 L360.5,154.07 " fill="#F1F1F1" style="stroke:#181818;stroke-width:0.5;"/><text fill="#000000" font-family="sans-serif" font-size="14" font-weight="bold" lengthAdjust="spacing" textLength="16.875" x="191.5" y="169.0359">TX</text><text fill="#000000" font-family="sans-serif" font-size="14" lengthAdjust="spacing" textLength="79" x="191.5" y="188.1039">1-to-2 proof</text><text fill="#000000" font-family="sans-serif" font-size="14" lengthAdjust="spacing" textLength="159" x="191.5" y="207.1718">block1 availability proof</text></g><!--entity proof2--><g id="elem_proof2"><path d="M395.5,146.57 L395.5,218.7738 A2.5,2.5 0 0 0 398,221.2738 L572,221.2738 A2.5,2.5 0 0 0 574.5,218.7738 L574.5,154.07 L564.5,144.07 L398,144.07 A2.5,2.5 0 0 0 395.5,146.57 " fill="#F1F1F1" style="stroke:#181818;stroke-width:0.5;"/><path d="M564.5,144.07 L564.5,151.57 A2.5,2.5 0 0 0 567,154.07 L574.5,154.07 " fill="#F1F1F1" style="stroke:#181818;stroke-width:0.5;"/><text fill="#000000" font-family="sans-serif" font-size="14" font-weight="bold" lengthAdjust="spacing" textLength="16.875" x="405.5" y="169.0359">TX</text><text fill="#000000" font-family="sans-serif" font-size="14" lengthAdjust="spacing" textLength="79" x="405.5" y="188.1039">2-to-3 proof</text><text fill="#000000" font-family="sans-serif" font-size="14" lengthAdjust="spacing" textLength="159" x="405.5" y="207.1718">block2 availability proof</text></g><!--link proof1 to proof2--><!--link state1 to i1--><g id="link_state1_i1"><path d="M260.93,293.81 C272.15,293.81 283.36,293.81 294.58,293.81 " fill="none" id="state1-i1" style="stroke:#181818;stroke-width:1.0;"/></g><!--link i1 to state2--><g id="link_i1_state2"><path d="M313.25,293.81 C324.55,293.81 329.85,293.81 341.14,293.81 " fill="none" id="i1-to-state2" style="stroke:#181818;stroke-width:1.0;"/><polygon fill="#181818" points="347.14,293.81,338.14,289.81,342.14,293.81,338.14,297.81,347.14,293.81" style="stroke:#181818;stroke-width:1.0;"/></g><!--link state2 to i2--><g id="link_state2_i2"><path d="M408.93,293.81 C420.15,293.81 431.36,293.81 442.58,293.81 " fill="none" id="state2-i2" style="stroke:#181818;stroke-width:1.0;"/></g><!--link i2 to state3--><g id="link_i2_state3"><path d="M461.25,293.81 C472.55,293.81 477.85,293.81 489.14,293.81 " fill="none" id="i2-to-state3" style="stroke:#181818;stroke-width:1.0;"/><polygon fill="#181818" points="495.14,293.81,486.14,289.81,490.14,293.81,486.14,297.81,495.14,293.81" style="stroke:#181818;stroke-width:1.0;"/></g><!--link proof1 to i1--><g id="link_proof1_i1"><path d="M282.45,221.54 C289.3,244.19 297.44,271.1 301.47,284.44 " fill="none" id="proof1-i1" style="stroke:#181818;stroke-width:1.0;"/></g><!--link proof2 to i2--><g id="link_proof2_i2"><path d="M473.55,221.54 C466.7,244.19 458.56,271.1 454.53,284.44 " fill="none" id="proof2-i2" style="stroke:#181818;stroke-width:1.0;"/></g><!--reverse link rollup_contract to proof1--><g id="link_rollup_contract_proof1"><path d="M356.504,88.8722 C341.704,104.9322 324.06,124.08 305.73,143.98 " fill="none" id="rollup_contract-backto-proof1" style="stroke:#181818;stroke-width:1.0;"/><polygon fill="#181818" points="360.57,84.46,351.5295,88.3676,357.1816,88.1368,357.4124,93.789,360.57,84.46" style="stroke:#181818;stroke-width:1.0;"/></g><!--reverse link rollup_contract to proof2--><g id="link_rollup_contract_proof2"><path d="M399.496,88.8722 C414.296,104.9322 431.94,124.08 450.27,143.98 " fill="none" id="rollup_contract-backto-proof2" style="stroke:#181818;stroke-width:1.0;"/><polygon fill="#181818" points="395.43,84.46,398.5876,93.789,398.8184,88.1368,404.4705,88.3676,395.43,84.46" style="stroke:#181818;stroke-width:1.0;"/></g><!--reverse link i1 to DAContract--><g id="link_i1_DAContract"><path d="M313.4114,308.1979 C325.5914,325.5179 350.12,360.39 366.79,384.1 " fill="none" id="i1-backto-DAContract" style="stroke:#181818;stroke-width:1.0;"/><polygon fill="#181818" points="309.96,303.29,311.8652,312.9528,312.8362,307.3799,318.4091,308.3509,309.96,303.29" style="stroke:#181818;stroke-width:1.0;"/></g><!--reverse link i2 to DAContract--><g id="link_i2_DAContract"><path d="M443.0231,308.2832 C431.4831,325.6032 408.31,360.39 392.51,384.1 " fill="none" id="i2-backto-DAContract" style="stroke:#181818;stroke-width:1.0;"/><polygon fill="#181818" points="446.35,303.29,438.0309,308.5619,443.5776,307.451,444.6885,312.9977,446.35,303.29" style="stroke:#181818;stroke-width:1.0;"/></g><!--link block1 to DAContract--><!--link DAContract to block2--><!--reverse link i1 to block1--><g id="link_i1_block1"><path d="M298.652,308.8999 C292.082,326.2199 279.12,360.39 270.12,384.1 " fill="none" id="i1-backto-block1" style="stroke:#181818;stroke-width:1.0;"/><polygon fill="#181818" points="300.78,303.29,293.848,310.2862,299.0066,307.965,301.3279,313.1236,300.78,303.29" style="stroke:#181818;stroke-width:1.0;"/></g><!--reverse link i2 to block2--><g id="link_i2_block2"><path d="M457.8359,308.8292 C465.0459,326.1492 479.31,360.39 489.18,384.1 " fill="none" id="i2-backto-block2" style="stroke:#181818;stroke-width:1.0;"/><polygon fill="#181818" points="455.53,303.29,455.296,313.1361,457.4516,307.906,462.6816,310.0616,455.53,303.29" style="stroke:#181818;stroke-width:1.0;"/></g><!--link node1 to node2--><!--link node2 to node3--><!--link node3 to node4--><!--link DAp to node1--><!--link DAp to node2--><!--link DAp to node3--><!--link DAp to node4--><!--link block1 to DAp--><g id="link_block1_DAp"><path d="M282.85,423.49 C291.52,431.25 301.98,440.12 312,447.41 C333.63,463.14 356.2398,475.7491 368.4798,482.2991 " fill="none" id="block1-to-DAp" style="stroke:#181818;stroke-width:1.0;"/><polygon fill="#181818" points="373.77,485.13,367.722,477.3568,369.3615,482.7709,363.9475,484.4104,373.77,485.13" style="stroke:#181818;stroke-width:1.0;"/></g><!--link DAContract to DAp--><g id="link_DAContract_DAp"><path d="M380,429.83 C380,449.09 380,465.67 380,477.26 " fill="none" id="DAContract-DAp" style="stroke:#181818;stroke-width:1.0;"/><polygon fill="#181818" points="380,423.83,376,432.83,380,428.83,384,432.83,380,423.83" style="stroke:#181818;stroke-width:1.0;"/><polygon fill="#181818" points="380,483.26,384,474.26,380,478.26,376,474.26,380,483.26" style="stroke:#181818;stroke-width:1.0;"/></g><!--link block2 to DAp--><g id="link_block2_DAp"><path d="M477.15,423.49 C468.48,431.25 458.02,440.12 448,447.41 C426.37,463.14 403.7602,475.7491 391.5202,482.2991 " fill="none" id="block2-to-DAp" style="stroke:#181818;stroke-width:1.0;"/><polygon fill="#181818" points="386.23,485.13,396.0525,484.4104,390.6385,482.7709,392.278,477.3568,386.23,485.13" style="stroke:#181818;stroke-width:1.0;"/></g><!--SRC=[VLB1ReCm3BtdAwnTUa8JeSSA2QsxLTCqxJ1fdQO0WKQb2GgXqpJjtvS4KoZGSG3ydlFivtW5kM2bPYSeb8OT1QsggZs1al1e3bppzaJSetbcc2mh3hiGVWZOPu3kNjoX6XwKD9fbvWvOqmdLdnbYXFnUoJnhTURQIdcjZEaS6iCC3tqifE6wO9dL1gycmaaUlP579taHwIguyYCJ54rajakB2YKRI2kL7SDbc4ujRvDhkzka3rsbnYZDIfV638Fap4J5Kb49ymrFt7mfVSH3s4QjjEajR9FQOxazchA6WrGvZkKAedCecaDhFtTI2DVq9erVtpRtQRoNOM1KGA7MIXMmbvrtOEDEFUTRyd_XN8GwaUXQXFuhGWdfn23GxmUHvrn-175FTHjWAL4UJE0kNLoY6EyT27ulMPG8Eicojxx2-uIWhRqK0XG1Mywhkm3z2JeA7T-tQi5ujj1TrWsIa64XCCMsCCTibRvDRs2OoNYZnkUcQRYUWqvVREIsAqJy8aqLS9VyUv6BF1SjSkkBQ5iFZDjWr5k2esLuFOT7hln0wl4aDWZrFZ7y0m00]--></g></svg>